<svg width="21" height="20" viewBox="0 0 21 20" fill="none" xmlns="http://www.w3.org/2000/svg">
    <g id="api">
        <path id="Vector"
            d="M3.83325 10.8333H7.99992M10.4999 13.3333V6.66663H12.9999C13.4419 6.66663 13.8659 6.84222 14.1784 7.15478C14.491 7.46734 14.6666 7.89127 14.6666 8.33329V9.16663C14.6666 9.60865 14.491 10.0326 14.1784 10.3451C13.8659 10.6577 13.4419 10.8333 12.9999 10.8333H10.4999M17.1666 6.66663V13.3333M7.99992 13.3333V8.74996C7.99992 8.19742 7.78043 7.66752 7.38972 7.27682C6.99902 6.88612 6.46912 6.66663 5.91659 6.66663C5.36405 6.66663 4.83415 6.88612 4.44345 7.27682C4.05275 7.66752 3.83325 8.19742 3.83325 8.74996V13.3333"
            stroke="#9EB1D5" stroke-width="1.6" stroke-linecap="round" stroke-linejoin="round" />
    </g>
</svg>