<svg width="526" height="603" viewBox="0 0 526 603" fill="none" xmlns="http://www.w3.org/2000/svg">
<g clip-path="url(#clip0_9365_711)">
<path d="M216.152 388.83L247.772 370.55C251.032 368.67 252.662 366.2 252.662 363.74C252.662 361.27 252.672 359.34 252.672 359.34L214.622 337.78C212.882 336.78 211.472 334.34 211.472 332.33V293.35L156.242 325.26V364.24C156.242 366.25 157.652 368.69 159.392 369.69L192.542 388.83C199.062 392.59 209.632 392.59 216.152 388.83Z" fill="#8894A6"/>
<g opacity="0.5">
<path d="M216.152 388.83L247.772 370.55C251.032 368.67 252.662 366.2 252.662 363.74C252.662 361.27 252.672 359.34 252.672 359.34L214.622 337.78C212.882 336.78 211.472 334.34 211.472 332.33V293.35L156.242 325.26V364.24C156.242 366.25 157.652 368.69 159.392 369.69L192.542 388.83C199.062 392.59 209.632 392.59 216.152 388.83Z" fill="black"/>
</g>
<path d="M169.502 371.139V375.519L159.382 369.689C157.652 368.689 156.242 366.259 156.242 364.239V325.259L166.762 319.189C166.982 321.859 167.212 324.619 167.432 327.309L160.052 331.579V362.039C160.052 364.059 161.452 366.489 163.192 367.489L169.502 371.139Z" fill="#8894A6"/>
<path opacity="0.7" d="M169.502 371.139V375.519L159.382 369.689C157.652 368.689 156.242 366.259 156.242 364.239V325.259L166.762 319.189C166.982 321.859 167.212 324.619 167.432 327.309L160.052 331.579V362.039C160.052 364.059 161.452 366.489 163.192 367.489L169.502 371.139Z" fill="black"/>
<path d="M160.053 362.039C160.053 364.049 161.463 366.489 163.203 367.489L192.543 384.429C199.063 388.189 209.633 388.189 216.153 384.429L247.783 366.149C254.303 362.389 254.303 356.289 247.783 352.519L218.433 335.569C216.693 334.569 215.283 332.129 215.283 330.119V299.659L160.053 331.569V362.029V362.039Z" fill="#8894A6"/>
<path opacity="0.3" d="M160.053 362.039C160.053 364.049 161.463 366.489 163.203 367.489L192.543 384.429C199.063 388.189 209.633 388.189 216.153 384.429L247.783 366.149C254.303 362.389 254.303 356.289 247.783 352.519L218.433 335.569C216.693 334.569 215.283 332.129 215.283 330.119V299.659L160.053 331.569V362.029V362.039Z" fill="black"/>
<path opacity="0.7" d="M224.843 339.279L218.433 335.569C216.693 334.569 215.283 332.129 215.283 330.119V299.659L160.053 331.569V362.029C160.053 364.039 161.463 366.479 163.203 367.479L169.503 371.119L224.843 339.269V339.279Z" fill="#8894A6"/>
<path opacity="0.6" d="M224.843 339.279L218.433 335.569C216.693 334.569 215.283 332.129 215.283 330.119V299.659L160.053 331.569V362.029C160.053 364.039 161.463 366.479 163.203 367.479L169.503 371.119L224.843 339.269V339.279Z" fill="black"/>
<path d="M252.663 359.34V363.74C252.663 366.21 251.023 368.66 247.773 370.55L216.153 388.82C213.023 390.64 208.973 391.55 204.883 391.62V387.24C208.973 387.19 213.023 386.24 216.153 384.44L247.773 366.15C251.023 364.28 252.663 361.81 252.663 359.34Z" fill="#8894A6"/>
<path opacity="0.2" d="M252.663 359.34V363.74C252.663 366.21 251.023 368.66 247.773 370.55L216.153 388.82C213.023 390.64 208.973 391.55 204.883 391.62V387.24C208.973 387.19 213.023 386.24 216.153 384.44L247.773 366.15C251.023 364.28 252.663 361.81 252.663 359.34Z" fill="black"/>
<path d="M71.3814 404.1C73.4214 405.28 76.8314 405.21 79.0114 403.96C106.161 388.28 265.441 296.32 292.591 280.65C294.761 279.4 296.521 276.35 296.521 273.84V86.8899C296.521 84.3799 294.871 81.3899 292.831 80.2199C290.791 79.0399 287.381 79.1099 285.211 80.3599L71.6214 203.66C69.4514 204.91 67.6914 207.97 67.6914 210.47V397.42C67.6914 399.93 69.3414 402.92 71.3814 404.09V404.1Z" fill="#8894A6"/>
<path opacity="0.3" d="M71.3814 404.1C73.4214 405.28 76.8314 405.21 79.0114 403.96C106.161 388.28 265.441 296.32 292.591 280.65C294.761 279.4 296.521 276.35 296.521 273.84V86.8899C296.521 84.3799 294.871 81.3899 292.831 80.2199C290.791 79.0399 287.381 79.1099 285.211 80.3599L71.6214 203.66C69.4514 204.91 67.6914 207.97 67.6914 210.47V397.42C67.6914 399.93 69.3414 402.92 71.3814 404.09V404.1Z" fill="black"/>
<path d="M79.002 403.95L292.582 280.64C294.752 279.39 296.512 276.33 296.512 273.83V86.8796C296.512 84.3696 294.752 83.3496 292.582 84.6096L79.012 207.92C76.842 209.17 75.082 212.23 75.082 214.73V401.68C75.082 404.19 76.842 405.21 79.012 403.95H79.002Z" fill="#8894A6"/>
<path d="M79.002 403.95L292.582 280.64C294.752 279.39 296.512 276.33 296.512 273.83V86.8796C296.512 84.3696 294.752 83.3496 292.582 84.6096L79.012 207.92C76.842 209.17 75.082 212.23 75.082 214.73V401.68C75.082 404.19 76.842 405.21 79.012 403.95H79.002Z" fill="#8894A6"/>
<path opacity="0.5" d="M79.002 403.95L292.582 280.64C294.752 279.39 296.512 276.33 296.512 273.83V86.8796C296.512 84.3696 294.752 83.3496 292.582 84.6096L79.012 207.92C76.842 209.17 75.082 212.23 75.082 214.73V401.68C75.082 404.19 76.842 405.21 79.012 403.95H79.002Z" fill="black"/>
<path d="M78.4216 404.25C76.2416 405.21 73.2216 405.18 71.3716 404.1C69.3316 402.92 67.6816 399.94 67.6816 397.41V376.38L75.0616 380.65V401.68C75.0616 403.97 76.5116 405.01 78.4216 404.24V404.25Z" fill="#8894A6"/>
<path opacity="0.7" d="M78.4216 404.25C76.2416 405.21 73.2216 405.18 71.3716 404.1C69.3316 402.92 67.6816 399.94 67.6816 397.41V376.38L75.0616 380.65V401.68C75.0616 403.97 76.5116 405.01 78.4216 404.24V404.25Z" fill="black"/>
<path d="M75.0725 380.65V401.67C75.0725 404.18 76.8325 405.2 79.0025 403.94L292.583 280.63C294.753 279.38 296.512 276.32 296.512 273.82V252.79L75.0625 380.64L75.0725 380.65Z" fill="#8894A6"/>
<g opacity="0.5">
<path d="M75.0725 380.65V401.67C75.0725 404.18 76.8325 405.2 79.0025 403.94L292.583 280.63C294.753 279.38 296.512 276.32 296.512 273.82V252.79L75.0625 380.64L75.0725 380.65Z" fill="black"/>
</g>
<path d="M82.4512 365.14V217.18C82.4512 215.67 83.5112 213.84 84.8112 213.09L286.771 96.4898C288.071 95.7398 289.131 96.3498 289.131 97.8498V245.81C289.131 247.32 288.081 249.15 286.781 249.9L84.8112 366.5C83.5112 367.25 82.4512 366.64 82.4512 365.14Z" fill="#6D7685"/>
<path d="M185.792 325.25C183.752 326.43 182.102 329.29 182.102 331.64C182.102 333.99 183.752 334.95 185.792 333.77C187.832 332.59 189.482 329.73 189.482 327.38C189.482 325.03 187.832 324.07 185.792 325.25Z" fill="#8894A6"/>
<path opacity="0.5" d="M185.792 325.25C183.752 326.43 182.102 329.29 182.102 331.64C182.102 333.99 183.752 334.95 185.792 333.77C187.832 332.59 189.482 329.73 189.482 327.38C189.482 325.03 187.832 324.07 185.792 325.25Z" fill="white"/>
<path d="M76.2216 210.84C75.5116 212.08 75.0816 213.48 75.0616 214.73V380.66L67.6816 376.39V210.48C67.6816 209.23 68.1316 207.83 68.8416 206.59L76.2216 210.84Z" fill="#8894A6"/>
<path opacity="0.7" d="M76.2216 210.84C75.5116 212.08 75.0816 213.48 75.0616 214.73V380.66L67.6816 376.39V210.48C67.6816 209.23 68.1316 207.83 68.8416 206.59L76.2216 210.84Z" fill="black"/>
<path d="M152.851 446.719L206.221 477.619C207.871 478.579 210.551 478.579 212.201 477.619L369.861 386.719C371.511 385.769 371.511 384.219 369.861 383.269L316.491 352.369C314.841 351.409 312.161 351.409 310.511 352.369L152.851 443.269C151.201 444.219 151.201 445.769 152.851 446.719Z" fill="#E0E0E0"/>
<path d="M366.621 377.79C366.621 377.17 366.211 376.54 365.381 376.06L315.241 347.12C313.591 346.17 310.911 346.17 309.261 347.12L156.281 435.59C155.451 436.07 155.041 436.69 155.041 437.32C155.041 437.94 155.041 441.95 155.041 442.58C155.041 443.21 155.451 443.83 156.281 444.31L206.391 473.25C208.041 474.2 210.721 474.2 212.371 473.25L365.371 384.92C366.191 384.45 366.611 383.82 366.611 383.2C366.611 382.57 366.611 378.43 366.611 377.8L366.621 377.79Z" fill="#009CAE"/>
<path opacity="0.5" d="M366.621 377.79C366.621 377.17 366.211 376.54 365.381 376.06L315.241 347.12C313.591 346.17 310.911 346.17 309.261 347.12L156.281 435.59C155.451 436.07 155.041 436.69 155.041 437.32C155.041 437.94 155.041 441.95 155.041 442.58C155.041 443.21 155.451 443.83 156.281 444.31L206.391 473.25C208.041 474.2 210.721 474.2 212.371 473.25L365.371 384.92C366.191 384.45 366.611 383.82 366.611 383.2C366.611 382.57 366.611 378.43 366.611 377.8L366.621 377.79Z" fill="black"/>
<path d="M206.4 467.85L156.29 439.04C154.64 438.09 154.63 436.55 156.29 435.59L309.27 347.12C310.92 346.17 313.6 346.16 315.25 347.12L365.39 376.06C367.04 377.01 367.04 378.56 365.39 379.51L212.39 467.84C210.74 468.79 208.06 468.8 206.41 467.84L206.4 467.85Z" fill="#009CAE"/>
<path opacity="0.3" d="M206.4 467.85L156.29 439.04C154.64 438.09 154.63 436.55 156.29 435.59L309.27 347.12C310.92 346.17 313.6 346.16 315.25 347.12L365.39 376.06C367.04 377.01 367.04 378.56 365.39 379.51L212.39 467.84C210.74 468.79 208.06 468.8 206.41 467.84L206.4 467.85Z" fill="black"/>
<path d="M209.201 468.56V473.94C208.191 473.92 207.171 473.69 206.391 473.25L156.301 444.31C155.471 443.83 155.061 443.21 155.061 442.58V437.31C155.061 437.93 155.471 438.55 156.301 439.04L206.391 467.86C207.171 468.3 208.191 468.54 209.201 468.56Z" fill="#009CAE"/>
<path opacity="0.7" d="M209.201 468.56V473.94C208.191 473.92 207.171 473.69 206.391 473.25L156.301 444.31C155.471 443.83 155.061 443.21 155.061 442.58V437.31C155.061 437.93 155.471 438.55 156.301 439.04L206.391 467.86C207.171 468.3 208.191 468.54 209.201 468.56Z" fill="black"/>
<path d="M273.191 384.38L278.901 387.68C279.041 387.76 279.201 387.77 279.261 387.77L284.531 384.84L278.391 381.39L273.191 384.39V384.38Z" fill="#A6B8D9"/>
<path d="M280.072 380.41L285.812 383.72C285.902 383.77 286.022 383.79 286.152 383.79H286.362L291.412 380.86L285.272 377.41L280.072 380.41Z" fill="#A6B8D9"/>
<path d="M261.621 391.07L267.351 394.38C267.441 394.43 267.571 394.45 267.691 394.45L276.221 389.64L270.081 386.18L261.631 391.06L261.621 391.07Z" fill="#A6B8D9"/>
<path d="M254.752 395.03L260.482 398.34C260.572 398.39 260.702 398.42 260.822 398.42L266.092 395.49L259.952 392.04L254.752 395.04V395.03Z" fill="#A6B8D9"/>
<path d="M223.361 446.96L228.631 444.03L222.491 440.58L217.291 443.58L223.031 446.89C223.121 446.94 223.241 446.96 223.371 446.96H223.361Z" fill="#A6B8D9"/>
<path d="M247.881 399L253.581 402.29C253.711 402.37 253.871 402.38 253.951 402.38L259.221 399.45L253.081 395.99L247.881 398.99V399Z" fill="#A6B8D9"/>
<path d="M286.161 385.87L280.961 388.87L286.681 392.17C286.781 392.22 286.901 392.25 287.031 392.25L292.301 389.32L286.161 385.87Z" fill="#A6B8D9"/>
<path d="M266.951 412.819L272.221 409.889L266.081 406.439L260.881 409.439L266.611 412.749C266.701 412.799 266.831 412.829 266.961 412.829L266.951 412.819Z" fill="#A6B8D9"/>
<path d="M293.912 388.279L299.182 385.349L293.032 381.899L287.842 384.899L293.572 388.209C293.662 388.259 293.782 388.279 293.912 388.279Z" fill="#A6B8D9"/>
<path d="M260.082 416.79L265.352 413.86L259.202 410.41L254.002 413.41L259.702 416.7C259.832 416.78 259.992 416.79 260.072 416.79H260.082Z" fill="#A6B8D9"/>
<path d="M253.211 420.75L258.481 417.82L252.341 414.37L247.141 417.37L252.881 420.68C252.981 420.73 253.101 420.76 253.221 420.76L253.211 420.75Z" fill="#A6B8D9"/>
<path d="M280.702 404.88L291.752 398.61L277.852 390.67L271.922 394.09L279.192 398.28C279.282 398.33 279.402 398.43 279.402 398.58C279.402 398.68 279.332 398.78 279.222 398.85L274.632 401.5L280.332 404.79C280.462 404.88 280.622 404.89 280.702 404.89V404.88Z" fill="#A6B8D9"/>
<path d="M234.131 406.94L239.861 410.25C239.951 410.3 240.081 410.33 240.201 410.33L245.471 407.4L239.331 403.95L234.131 406.95V406.94Z" fill="#A6B8D9"/>
<path d="M273.822 408.85L279.092 405.92L272.952 402.47L267.752 405.47L273.452 408.76C273.592 408.85 273.762 408.86 273.832 408.86L273.822 408.85Z" fill="#A6B8D9"/>
<path d="M195.521 445.09L200.791 442.16L194.651 438.71L189.451 441.71L195.151 445C195.291 445.08 195.451 445.09 195.521 445.09Z" fill="#A6B8D9"/>
<path d="M179.152 438.679L184.902 441.999C184.992 442.039 185.112 442.069 185.232 442.069H185.442L190.492 439.139L184.352 435.689L179.152 438.689V438.679Z" fill="#A6B8D9"/>
<path d="M205.101 448.529H205.311L210.361 445.599L204.221 442.149L199.021 445.149L204.761 448.459C204.851 448.509 204.971 448.529 205.101 448.529Z" fill="#A6B8D9"/>
<path d="M209.611 454.89L214.881 451.96L208.731 448.51L203.531 451.51L209.231 454.8C209.371 454.88 209.531 454.89 209.601 454.89H209.611Z" fill="#A6B8D9"/>
<path d="M186.021 434.71L191.761 438.02C191.851 438.07 191.981 438.09 192.101 438.09L197.371 435.16L191.231 431.71L186.031 434.71H186.021Z" fill="#A6B8D9"/>
<path d="M216.482 450.93L221.742 448L215.602 444.55L210.402 447.55L216.132 450.86C216.232 450.91 216.352 450.94 216.482 450.94V450.93Z" fill="#A6B8D9"/>
<path d="M206.641 422.81L212.371 426.12C212.471 426.17 212.591 426.2 212.711 426.2L217.981 423.27L211.841 419.82L206.641 422.82V422.81Z" fill="#A6B8D9"/>
<path d="M213.512 418.84L219.232 422.14C219.332 422.19 219.462 422.23 219.592 422.23L224.862 419.3L218.722 415.85L213.522 418.85L213.512 418.84Z" fill="#A6B8D9"/>
<path d="M220.381 414.87L226.081 418.16C226.211 418.24 226.371 418.25 226.451 418.25L231.721 415.32L225.571 411.87L220.371 414.87H220.381Z" fill="#A6B8D9"/>
<path d="M199.771 426.78L205.471 430.07C205.601 430.15 205.761 430.16 205.841 430.16L211.111 427.23L204.971 423.78L199.771 426.78Z" fill="#A6B8D9"/>
<path d="M227.262 410.91L232.992 414.22C232.992 414.22 233.162 414.3 233.332 414.3L238.602 411.37L232.452 407.92L227.262 410.92V410.91Z" fill="#A6B8D9"/>
<path d="M192.891 430.74L198.621 434.05C198.721 434.1 198.841 434.13 198.971 434.13L204.241 431.2L198.091 427.75L192.891 430.75V430.74Z" fill="#A6B8D9"/>
<path d="M241.002 402.97L246.742 406.29C246.832 406.33 246.952 406.359 247.072 406.359L252.342 403.43L246.202 399.979L241.002 402.979V402.97Z" fill="#A6B8D9"/>
<path d="M258.172 402.02L263.882 405.32C264.012 405.4 264.172 405.41 264.242 405.41H264.452L269.502 402.48L263.362 399.03L258.162 402.03L258.172 402.02Z" fill="#A6B8D9"/>
<path d="M295.262 371.639L300.972 374.939C301.112 375.019 301.272 375.029 301.332 375.029L306.602 372.099L300.462 368.649L295.262 371.649V371.639Z" fill="#A6B8D9"/>
<path d="M302.131 367.68L307.841 370.97C307.941 371.03 308.071 371.06 308.201 371.06L313.471 368.13L307.331 364.68L302.131 367.68Z" fill="#A6B8D9"/>
<path d="M251.301 405.99L257.021 409.29C257.151 409.36 257.301 409.37 257.381 409.37L262.651 406.44L256.511 402.99L251.311 405.99H251.301Z" fill="#A6B8D9"/>
<path d="M309.012 363.71L314.722 367.01C314.862 367.09 315.022 367.1 315.082 367.1L320.352 364.17L314.212 360.71L309.012 363.71Z" fill="#A6B8D9"/>
<path d="M271.121 401.44H271.331L276.381 398.51L270.241 395.06L265.041 398.06L270.751 401.36C270.881 401.44 271.031 401.45 271.111 401.45L271.121 401.44Z" fill="#A6B8D9"/>
<path d="M303.021 376.13L308.721 379.42C308.851 379.51 309.011 379.52 309.101 379.52L314.371 376.59L308.231 373.14L303.031 376.14L303.021 376.13Z" fill="#A6B8D9"/>
<path d="M316.771 368.19L322.471 371.48C322.611 371.57 322.781 371.58 322.841 371.58L328.111 368.65L321.971 365.2L316.771 368.2V368.19Z" fill="#A6B8D9"/>
<path d="M315.972 375.55L321.242 372.62L315.102 369.17L309.902 372.17L315.632 375.48C315.732 375.53 315.852 375.56 315.982 375.56L315.972 375.55Z" fill="#A6B8D9"/>
<path d="M337.161 372.03C337.251 372.07 337.371 372.1 337.491 372.1H337.701L342.751 369.169L328.841 361.229L323.641 364.229L337.161 372.03Z" fill="#A6B8D9"/>
<path d="M244.432 409.96L250.142 413.26C250.272 413.34 250.422 413.35 250.502 413.35H250.712L255.772 410.42L249.632 406.97L244.432 409.97V409.96Z" fill="#A6B8D9"/>
<path d="M323.742 380.029H323.952L329.002 377.099L322.862 373.649L317.662 376.649L323.372 379.949C323.502 380.029 323.662 380.039 323.732 380.039L323.742 380.029Z" fill="#A6B8D9"/>
<path d="M330.611 376.06L335.881 373.13L329.731 369.68L324.531 372.68L330.231 375.97C330.361 376.06 330.531 376.07 330.611 376.07V376.06Z" fill="#A6B8D9"/>
<path d="M210.062 429.8L215.773 433.09C215.903 433.17 216.063 433.18 216.143 433.18L221.413 430.25L215.273 426.8L210.072 429.8H210.062Z" fill="#A6B8D9"/>
<path d="M196.322 437.74L202.022 441.03C202.152 441.11 202.312 441.12 202.392 441.12H202.602L207.662 438.19L201.522 434.74L196.322 437.74Z" fill="#A6B8D9"/>
<path d="M218.851 440.59L224.121 437.66L217.971 434.21L212.771 437.21L218.511 440.52C218.571 440.55 218.681 440.6 218.851 440.6V440.59Z" fill="#A6B8D9"/>
<path d="M211.971 444.56L217.241 441.63L211.091 438.18L205.891 441.18L211.631 444.49C211.721 444.54 211.841 444.56 211.971 444.56Z" fill="#A6B8D9"/>
<path d="M225.722 436.62H225.932L230.992 433.69L224.852 430.24L219.652 433.24L225.352 436.53C225.492 436.61 225.652 436.62 225.722 436.62Z" fill="#A6B8D9"/>
<path d="M237.551 413.929L243.271 417.229C243.371 417.279 243.501 417.319 243.631 417.319H243.841L248.891 414.389L242.751 410.939L237.551 413.939V413.929Z" fill="#A6B8D9"/>
<path d="M239.461 428.69L244.731 425.76L238.591 422.31L233.391 425.31L239.091 428.6C239.231 428.68 239.391 428.69 239.461 428.69Z" fill="#A6B8D9"/>
<path d="M232.592 432.66L237.862 429.73L231.712 426.28L226.512 429.28L232.252 432.59C232.352 432.64 232.472 432.67 232.592 432.67V432.66Z" fill="#A6B8D9"/>
<path d="M223.812 421.859L229.512 425.149C229.642 425.229 229.803 425.239 229.883 425.239L235.152 422.309L229.012 418.859L223.812 421.859Z" fill="#A6B8D9"/>
<path d="M203.191 433.77L208.891 437.06C209.021 437.14 209.181 437.15 209.261 437.15L214.531 434.22L208.391 430.77L203.191 433.77Z" fill="#A6B8D9"/>
<path d="M230.682 417.9L236.392 421.2C236.522 421.28 236.682 421.29 236.752 421.29L242.022 418.36L235.882 414.91L230.682 417.91V417.9Z" fill="#A6B8D9"/>
<path d="M216.942 425.83L222.642 429.12C222.772 429.2 222.932 429.21 223.012 429.21H223.222L228.272 426.28L222.132 422.83L216.932 425.83H216.942Z" fill="#A6B8D9"/>
<path d="M246.332 424.72L251.602 421.79L245.462 418.34L240.262 421.34L245.992 424.65C246.092 424.7 246.212 424.73 246.342 424.73L246.332 424.72Z" fill="#A6B8D9"/>
<path d="M286.941 376.45L292.681 379.76C292.771 379.81 292.891 379.83 293.021 379.83L298.291 376.9L292.151 373.45L286.951 376.45H286.941Z" fill="#A6B8D9"/>
<path d="M177.471 439.649L172.271 442.649L178.011 445.959C178.101 446.009 178.221 446.029 178.351 446.029H178.561L183.621 443.099L177.471 439.649Z" fill="#A6B8D9"/>
<path d="M187.771 442.67L180.041 447.13L185.781 450.44C185.871 450.49 185.991 450.51 186.121 450.51H186.331L193.921 446.12L187.781 442.67H187.771Z" fill="#A6B8D9"/>
<path d="M169.132 433.58L162.852 437.21L168.562 440.51C168.692 440.59 168.852 440.6 168.922 440.6L175.272 437.04L169.132 433.59V433.58Z" fill="#A6B8D9"/>
<path d="M201.862 452.47L195.582 456.1L201.282 459.39C201.422 459.47 201.582 459.48 201.652 459.48L208.002 455.92L201.862 452.47Z" fill="#A6B8D9"/>
<path d="M197.352 446.109L187.812 451.619L193.553 454.929C193.643 454.979 193.763 454.999 193.893 454.999H194.102L203.503 449.559L197.352 446.109Z" fill="#A6B8D9"/>
<path d="M179.871 434.27L185.141 431.34L179.001 427.89L173.801 430.89L179.501 434.18C179.631 434.26 179.791 434.27 179.871 434.27Z" fill="#A6B8D9"/>
<path d="M203.352 460.59L209.062 463.89C209.162 463.95 209.292 463.98 209.422 463.98L217.222 459.58L211.082 456.13L203.352 460.59Z" fill="#A6B8D9"/>
<path d="M186.742 430.3L192.012 427.37L185.872 423.92L180.672 426.92L186.402 430.23C186.492 430.28 186.622 430.3 186.742 430.3Z" fill="#A6B8D9"/>
<path d="M217.222 412.7H217.432L222.492 409.77L216.352 406.32L211.152 409.32L216.872 412.62C216.972 412.67 217.102 412.71 217.232 412.71L217.222 412.7Z" fill="#A6B8D9"/>
<path d="M224.101 408.739L229.371 405.809L223.231 402.359L218.031 405.359L223.751 408.659C223.881 408.729 224.031 408.749 224.111 408.749L224.101 408.739Z" fill="#A6B8D9"/>
<path d="M210.351 416.67H210.561L215.621 413.74L209.481 410.29L204.281 413.29L209.981 416.58C210.121 416.66 210.281 416.67 210.351 416.67Z" fill="#A6B8D9"/>
<path d="M200.492 422.37H200.702L205.762 419.44L199.622 415.99L194.422 418.99L200.142 422.29C200.242 422.34 200.372 422.38 200.502 422.38L200.492 422.37Z" fill="#A6B8D9"/>
<path d="M193.611 426.33L198.881 423.4L192.741 419.95L187.541 422.95L193.271 426.26C193.371 426.31 193.491 426.34 193.611 426.34V426.33Z" fill="#A6B8D9"/>
<path d="M340.082 381.65L345.832 384.97C345.922 385.01 346.042 385.04 346.162 385.04H346.372L351.432 382.11L345.292 378.66L340.092 381.66L340.082 381.65Z" fill="#A6B8D9"/>
<path d="M304.262 402.32L309.962 405.61C310.092 405.69 310.252 405.71 310.332 405.71L315.602 402.78L309.462 399.33L304.262 402.33V402.32Z" fill="#A6B8D9"/>
<path d="M326.332 389.579L332.042 392.869C332.182 392.949 332.342 392.959 332.402 392.959H332.612L344.542 386.059L338.402 382.609L326.332 389.579Z" fill="#A6B8D9"/>
<path d="M311.141 398.349L316.841 401.639C316.971 401.719 317.131 401.739 317.221 401.739L322.491 398.809L316.351 395.359L311.151 398.359L311.141 398.349Z" fill="#A6B8D9"/>
<path d="M318.012 394.389L323.692 397.669C323.832 397.759 324.002 397.779 324.092 397.779L329.362 394.849L323.222 391.399L318.022 394.399L318.012 394.389Z" fill="#A6B8D9"/>
<path d="M230.972 404.77H231.182L236.242 401.84L230.102 398.39L224.902 401.39L230.602 404.68C230.732 404.76 230.892 404.77 230.972 404.77Z" fill="#A6B8D9"/>
<path d="M344.382 370.189L339.182 373.189L352.702 380.989C352.792 381.029 352.912 381.059 353.032 381.059H353.242L358.292 378.129L344.382 370.189Z" fill="#A6B8D9"/>
<path d="M220.711 450.56L226.411 453.85C226.551 453.93 226.711 453.94 226.781 453.94L233.131 450.38L226.991 446.93L220.711 450.56Z" fill="#A6B8D9"/>
<path d="M228.672 445.97L234.362 449.26C234.502 449.35 234.652 449.36 234.742 449.36H234.952L274.012 426.8L267.872 423.34L228.672 445.97Z" fill="#A6B8D9"/>
<path d="M230.232 442.989L235.502 440.059L229.362 436.609L224.162 439.609L229.892 442.919C229.992 442.969 230.112 442.999 230.232 442.999V442.989Z" fill="#A6B8D9"/>
<path d="M212.752 455.16L218.452 458.45C218.582 458.53 218.742 458.54 218.822 458.54L225.172 454.98L219.032 451.53L212.752 455.16Z" fill="#A6B8D9"/>
<path d="M269.541 422.37L275.251 425.67C275.381 425.75 275.531 425.76 275.611 425.76H275.821L281.961 422.2L275.811 418.75L269.531 422.38L269.541 422.37Z" fill="#A6B8D9"/>
<path d="M285.461 413.18L291.181 416.48C291.311 416.55 291.461 416.56 291.531 416.56H291.741L297.881 413L291.741 409.55L285.461 413.18Z" fill="#A6B8D9"/>
<path d="M277.502 417.769L283.242 421.079C283.342 421.129 283.462 421.159 283.582 421.159L289.932 417.599L283.782 414.149L277.502 417.779V417.769Z" fill="#A6B8D9"/>
<path d="M293.412 408.59L299.122 411.89C299.252 411.97 299.402 411.98 299.482 411.98H299.692L307.272 407.59L301.132 404.14L293.402 408.6L293.412 408.59Z" fill="#A6B8D9"/>
<path d="M300.781 384.319H300.991L306.041 381.389L299.901 377.939L294.701 380.939L300.421 384.239C300.521 384.289 300.641 384.319 300.771 384.319H300.781Z" fill="#A6B8D9"/>
<path d="M309.441 397.25H309.651L314.701 394.32L308.561 390.87L303.361 393.87L309.081 397.18C309.211 397.25 309.361 397.26 309.431 397.26L309.441 397.25Z" fill="#A6B8D9"/>
<path d="M285.211 411.249L299.521 403.099L293.381 399.649L279.141 407.869L284.881 411.179C284.881 411.179 285.051 411.259 285.221 411.259L285.211 411.249Z" fill="#A6B8D9"/>
<path d="M324.642 388.48H324.852L329.902 385.55L323.762 382.1L318.562 385.1L324.302 388.41C324.392 388.46 324.512 388.48 324.642 388.48Z" fill="#A6B8D9"/>
<path d="M331.512 384.51H331.722L336.772 381.58L330.632 378.13L325.432 381.13L331.152 384.43C331.282 384.5 331.432 384.51 331.502 384.51H331.512Z" fill="#A6B8D9"/>
<path d="M278.332 415.21L283.602 412.28L277.462 408.83L272.262 411.83L277.972 415.13C278.072 415.19 278.202 415.22 278.332 415.22V415.21Z" fill="#A6B8D9"/>
<path d="M316.871 384H317.081L322.131 381.07L315.991 377.62L310.791 380.62L316.491 383.91C316.621 384 316.791 384.01 316.871 384.01V384Z" fill="#A6B8D9"/>
<path d="M243.972 435.05L249.242 432.12L243.102 428.67L237.902 431.67L243.632 434.98C243.732 435.03 243.852 435.06 243.972 435.06V435.05Z" fill="#A6B8D9"/>
<path d="M271.471 419.18L276.731 416.25L270.591 412.8L265.391 415.8L271.141 419.12C271.141 419.12 271.301 419.19 271.471 419.19V419.18Z" fill="#A6B8D9"/>
<path d="M237.101 439.02H237.311L242.361 436.09L236.221 432.64L231.021 435.64L236.761 438.95C236.851 439 236.971 439.02 237.101 439.02Z" fill="#A6B8D9"/>
<path d="M250.851 431.09L256.121 428.16L249.981 424.71L244.781 427.71L250.531 431.03C250.591 431.06 250.701 431.1 250.851 431.1V431.09Z" fill="#A6B8D9"/>
<path d="M257.721 427.12H257.931L262.981 424.19L256.841 420.74L251.641 423.74L257.341 427.03C257.471 427.11 257.631 427.12 257.711 427.12H257.721Z" fill="#A6B8D9"/>
<path d="M264.591 423.15H264.801L269.861 420.22L263.721 416.77L258.521 419.77L264.261 423.08C264.351 423.13 264.471 423.15 264.601 423.15H264.591Z" fill="#A6B8D9"/>
<path d="M247.701 395.109L252.971 392.18L246.831 388.729L241.631 391.729L247.331 395.02C247.461 395.1 247.621 395.109 247.701 395.109Z" fill="#A6B8D9"/>
<path d="M338.381 380.55H338.591L343.651 377.62L337.501 374.17L332.301 377.17L338.041 380.48C338.131 380.53 338.251 380.55 338.381 380.55Z" fill="#A6B8D9"/>
<path d="M261.451 387.17L266.721 384.24L260.581 380.79L255.381 383.79L261.081 387.08C261.211 387.16 261.371 387.17 261.451 387.17Z" fill="#A6B8D9"/>
<path d="M276.711 378.359L281.981 375.43L275.841 371.979L270.641 374.979L276.351 378.28C276.481 378.36 276.641 378.37 276.711 378.37V378.359Z" fill="#A6B8D9"/>
<path d="M269.842 382.319L275.102 379.389L268.962 375.939L263.762 378.939L269.472 382.239C269.602 382.319 269.762 382.329 269.842 382.329V382.319Z" fill="#A6B8D9"/>
<path d="M240.832 399.069L246.102 396.139L239.962 392.689L234.762 395.689L240.482 398.989C240.612 399.059 240.762 399.079 240.842 399.079L240.832 399.069Z" fill="#A6B8D9"/>
<path d="M254.582 391.14H254.792L259.842 388.21L253.702 384.76L248.502 387.76L254.202 391.05C254.332 391.13 254.492 391.14 254.572 391.14H254.582Z" fill="#A6B8D9"/>
<path d="M283.592 374.39L288.852 371.46L282.712 368.01L277.512 371.01L283.222 374.31C283.352 374.39 283.512 374.4 283.592 374.4V374.39Z" fill="#A6B8D9"/>
<path d="M310.532 356.53L315.792 353.6L312.452 351.8L307.252 354.8L310.182 356.45C310.282 356.5 310.412 356.53 310.532 356.53Z" fill="#A6B8D9"/>
<path d="M321.951 363.13L327.221 360.2L321.081 356.75L315.881 359.75L321.591 363.04C321.731 363.12 321.891 363.13 321.951 363.13Z" fill="#A6B8D9"/>
<path d="M289.911 368.43H290.121L295.171 365.5L291.831 363.7L286.631 366.7L289.541 368.34C289.671 368.42 289.821 368.43 289.901 368.43H289.911Z" fill="#A6B8D9"/>
<path d="M296.782 364.47H296.992L302.042 361.54L298.702 359.74L293.502 362.74L296.442 364.4C296.532 364.45 296.662 364.47 296.782 364.47Z" fill="#A6B8D9"/>
<path d="M303.661 360.5L308.921 357.57L305.581 355.77L300.381 358.77L303.321 360.43C303.411 360.48 303.541 360.5 303.661 360.5Z" fill="#A6B8D9"/>
<g opacity="0.8">
<path d="M311.48 101.53V249.99C311.48 251.96 310.09 254.35 308.39 255.33L108.3 371.07C107.95 371.27 107.59 371.37 107.28 371.36C107.15 371.36 107.02 371.34 106.89 371.31C106.8 371.29 106.71 371.26 106.63 371.22C106.57 371.19 106.52 371.16 106.47 371.13C106.41 371.09 106.35 371.05 106.29 371.01C106.23 370.96 106.17 370.92 106.12 370.86C105.88 370.64 105.69 370.36 105.55 370.05C105.35 369.59 105.23 369.06 105.23 368.49V220.78C105.23 218.82 106.62 216.42 108.32 215.44L308.39 99.7498C309.19 99.2898 309.91 99.2198 310.46 99.4898C310.55 99.5298 310.64 99.5798 310.72 99.6398L310.74 99.6598C310.82 99.7198 310.88 99.7798 310.94 99.8598C310.98 99.8898 311 99.9298 311.03 99.9698C311.07 100.02 311.11 100.07 311.13 100.13C311.21 100.25 311.27 100.38 311.31 100.52C311.34 100.6 311.37 100.69 311.38 100.79C311.39 100.81 311.4 100.83 311.39 100.85C311.42 100.94 311.43 101.03 311.44 101.13C311.45 101.25 311.46 101.38 311.46 101.51L311.48 101.53Z" fill="#A6B8D9"/>
<path d="M309.761 100.34C309.871 100.34 309.961 100.36 310.061 100.41C310.071 100.41 310.081 100.42 310.091 100.43L310.151 100.48L310.231 100.59L310.301 100.71C310.301 100.72 310.321 100.74 310.331 100.75L310.311 100.78L310.411 101.07V101.1L310.441 101.14V101.17C310.441 101.17 310.461 101.23 310.461 101.24C310.461 101.34 310.481 101.44 310.481 101.54V250C310.481 251.62 309.301 253.67 307.891 254.48L107.801 370.22C107.551 370.36 107.381 370.38 107.281 370.38C107.281 370.38 107.181 370.38 107.071 370.34C107.041 370.33 107.021 370.31 106.991 370.3L106.861 370.22L106.841 370.2V370.18L106.781 370.13C106.651 370.01 106.541 369.85 106.451 369.65C106.291 369.3 106.211 368.9 106.211 368.5V220.79C106.211 219.17 107.391 217.12 108.801 216.31L308.891 100.62C309.221 100.43 309.521 100.34 309.761 100.34ZM309.761 99.3398C309.351 99.3398 308.881 99.4698 308.391 99.7598L108.301 215.45C106.601 216.43 105.211 218.83 105.211 220.79V368.5C105.211 369.07 105.331 369.6 105.531 370.06C105.671 370.37 105.851 370.65 106.101 370.87C106.151 370.93 106.211 370.97 106.271 371.02C106.331 371.06 106.391 371.1 106.451 371.14C106.501 371.17 106.551 371.2 106.611 371.23C106.691 371.27 106.781 371.3 106.871 371.32C107.001 371.35 107.131 371.37 107.261 371.37C107.271 371.37 107.291 371.37 107.301 371.37C107.601 371.37 107.941 371.27 108.281 371.08L308.371 255.34C310.071 254.36 311.461 251.97 311.461 250V101.53C311.461 101.4 311.451 101.27 311.441 101.15C311.431 101.05 311.421 100.96 311.391 100.87C311.401 100.85 311.391 100.83 311.381 100.81C311.371 100.71 311.341 100.62 311.311 100.54C311.271 100.4 311.211 100.27 311.131 100.15C311.111 100.09 311.071 100.04 311.031 99.9898C311.001 99.9498 310.981 99.9098 310.941 99.8798C310.881 99.7998 310.821 99.7398 310.741 99.6798C310.741 99.6798 310.731 99.6698 310.721 99.6598C310.641 99.5998 310.551 99.5498 310.461 99.5098C310.251 99.4098 310.011 99.3598 309.751 99.3598L309.761 99.3398Z" fill="#A6B8D9"/>
<g opacity="0.7">
<path d="M311.48 101.53V249.99C311.48 251.96 310.09 254.35 308.39 255.33L108.3 371.07C107.95 371.27 107.59 371.37 107.28 371.36C107.15 371.36 107.02 371.34 106.89 371.31C106.8 371.29 106.71 371.26 106.63 371.22C106.57 371.19 106.52 371.16 106.47 371.13C106.41 371.09 106.35 371.05 106.29 371.01C106.23 370.96 106.17 370.92 106.12 370.86C105.88 370.64 105.69 370.36 105.55 370.05C105.35 369.59 105.23 369.06 105.23 368.49V220.78C105.23 218.82 106.62 216.42 108.32 215.44L308.39 99.7498C309.19 99.2898 309.91 99.2198 310.46 99.4898C310.55 99.5298 310.64 99.5798 310.72 99.6398L310.74 99.6598C310.82 99.7198 310.88 99.7798 310.94 99.8598C310.98 99.8898 311 99.9298 311.03 99.9698C311.07 100.02 311.11 100.07 311.13 100.13C311.21 100.25 311.27 100.38 311.31 100.52C311.34 100.6 311.37 100.69 311.38 100.79C311.39 100.81 311.4 100.83 311.39 100.85C311.42 100.94 311.43 101.03 311.44 101.13C311.45 101.25 311.46 101.38 311.46 101.51L311.48 101.53Z" fill="#A6B8D9"/>
</g>
</g>
<path d="M310.471 99.4905C309.911 99.2305 309.201 99.3005 308.401 99.7505L108.311 215.441C106.611 216.421 105.221 218.821 105.221 220.781V230.861L101.281 228.551V218.541C101.281 216.581 102.661 214.191 104.361 213.211L304.461 97.5305C305.341 97.0105 306.131 97.0005 306.701 97.3505C307.261 97.6805 309.821 99.1505 310.471 99.5005V99.4905Z" fill="#007177"/>
<path d="M311.471 101.511C311.461 99.5605 310.081 98.7805 308.391 99.7505L108.301 215.441C106.601 216.421 105.221 218.811 105.221 220.781V230.861L311.481 111.621V101.501L311.471 101.511Z" fill="#6D809F"/>
<g opacity="0.4">
<path d="M308.391 99.7502L108.301 215.44C107.461 215.93 106.681 216.77 106.131 217.73L102.211 215.46C102.761 214.51 103.521 213.68 104.351 213.21L304.451 97.5202C305.331 97.0102 306.121 97.0002 306.691 97.3402C307.241 97.6802 309.801 99.1302 310.451 99.4802C309.911 99.2202 309.181 99.3002 308.381 99.7502H308.391Z" fill="white"/>
</g>
<path opacity="0.15" d="M101.271 228.57V218.55C101.271 217.55 101.641 216.45 102.211 215.47L106.141 217.73C105.571 218.7 105.221 219.8 105.221 220.79V230.87L101.271 228.57Z" fill="black"/>
<path d="M292.902 112.99C291.942 113.55 291.162 115.2 291.162 116.68C291.162 118.16 291.942 118.91 292.902 118.36C293.862 117.8 294.642 116.15 294.642 114.67C294.642 113.19 293.862 112.44 292.902 112.99Z" fill="#A6B8D9"/>
<path d="M299.172 109.36C298.212 109.92 297.432 111.57 297.432 113.05C297.432 114.53 298.212 115.28 299.172 114.73C300.132 114.17 300.912 112.52 300.912 111.04C300.912 109.56 300.132 108.81 299.172 109.36Z" fill="#A6B8D9"/>
<path d="M305.441 105.74C304.481 106.3 303.701 107.95 303.701 109.43C303.701 110.91 304.481 111.66 305.441 111.11C306.401 110.55 307.181 108.9 307.181 107.42C307.181 105.94 306.401 105.19 305.441 105.74Z" fill="#A6B8D9"/>
<path opacity="0.9" d="M106.351 371.08C106.241 371.01 106.111 370.94 105.971 370.86C105.691 370.69 105.361 370.51 105.021 370.32H105.011C104.841 370.21 104.671 370.11 104.491 370.02C104.481 370.01 104.461 370 104.451 370C104.171 369.84 103.891 369.68 103.641 369.53C103.381 369.38 103.141 369.25 102.961 369.15C102.781 369.04 102.641 368.97 102.581 368.94C102.391 368.84 102.211 368.7 102.051 368.51C101.891 368.34 101.751 368.13 101.631 367.88C101.411 367.41 101.281 366.85 101.281 366.25V228.55L105.221 230.86V368.49C105.251 369.1 105.361 369.61 105.541 370.05C105.681 370.36 105.861 370.64 106.111 370.86C106.151 370.92 106.211 370.97 106.281 371.01C106.301 371.04 106.321 371.06 106.351 371.08Z" fill="#A6B8D9"/>
<path d="M172.111 282.251C172.111 282.251 164.831 277.541 163.881 277.511C162.941 277.481 143.191 276.861 143.191 276.861L151.421 281.241V281.601L172.111 282.251Z" fill="#263238"/>
<path d="M136.623 296.441V283.481L172.103 239.371V256.571L151.413 281.241V281.601L172.103 282.251V299.451L136.623 296.441Z" fill="#FAFAFA"/>
<path d="M172.112 239.371L163.882 234.631L128.402 278.731L136.622 283.471L172.112 239.371Z" fill="#006E7A"/>
<path d="M128.402 278.73V291.7L136.622 296.44V283.47L128.402 278.73Z" fill="#006E7A"/>
<path d="M193.583 290.921L182.562 297.281L210.023 196.641L220.643 190.511L193.572 290.931L193.583 290.921Z" fill="#FAFAFA"/>
<path d="M220.653 190.511L212.423 185.771L201.803 191.901L210.033 196.641L220.653 190.511Z" fill="#006E7A"/>
<path d="M201.802 191.9L210.032 196.64L182.572 297.28L174.342 292.54L201.802 191.9Z" fill="#006E7A"/>
<path d="M222.893 243.44L231.113 248.18L251.813 223.27L243.583 218.53L222.893 243.44Z" fill="#263238"/>
<path d="M251.813 223.271L231.123 222.501V205.301L266.603 208.431V221.391L231.123 265.381V248.181L251.813 223.641V223.281V223.271Z" fill="#FAFAFA"/>
<path d="M222.893 200.561L231.113 205.301L266.603 208.431L258.373 203.691L222.893 200.561Z" fill="#006E7A"/>
<path d="M231.113 205.301V222.501L222.893 217.761V200.561" fill="#006E7A"/>
<path d="M222.893 243.44L231.113 248.18V265.38L222.893 260.64V243.44Z" fill="#006E7A"/>
<g opacity="0.8">
<path d="M376.081 127.14V275.6C376.081 277.57 374.691 279.96 372.991 280.94L287.701 330.15C287.351 330.35 286.991 330.45 286.681 330.44C286.551 330.44 286.421 330.42 286.291 330.39C286.201 330.37 286.111 330.34 286.031 330.3C285.971 330.27 285.921 330.24 285.871 330.21C285.811 330.17 285.751 330.13 285.691 330.09C285.631 330.04 285.571 330 285.521 329.94C285.281 329.72 285.091 329.44 284.951 329.13C284.751 328.67 284.631 328.14 284.631 327.57V179.86C284.631 177.9 286.021 175.5 287.721 174.52L373.011 125.36C373.811 124.9 374.531 124.83 375.081 125.1C375.171 125.14 375.261 125.19 375.341 125.25L375.361 125.27C375.441 125.33 375.501 125.39 375.561 125.47C375.601 125.5 375.621 125.54 375.651 125.58C375.691 125.63 375.731 125.68 375.751 125.74C375.831 125.86 375.891 125.99 375.931 126.13C375.961 126.21 375.991 126.3 376.001 126.4C376.011 126.42 376.021 126.44 376.011 126.46C376.041 126.55 376.051 126.64 376.061 126.74C376.071 126.86 376.081 126.99 376.081 127.12V127.14Z" fill="#32B0BE"/>
<path d="M374.361 125.94C374.471 125.94 374.561 125.96 374.661 126.01C374.671 126.01 374.681 126.02 374.691 126.03L374.751 126.07L374.831 126.18L374.901 126.3C374.901 126.31 374.921 126.33 374.921 126.34L374.901 126.37L375.001 126.66V126.69L375.021 126.73V126.76C375.021 126.76 375.041 126.82 375.041 126.83C375.041 126.93 375.061 127.03 375.061 127.13V275.59C375.061 277.21 373.881 279.26 372.471 280.07L287.191 329.28C286.941 329.42 286.771 329.44 286.671 329.44C286.671 329.44 286.571 329.44 286.461 329.4C286.431 329.39 286.411 329.37 286.391 329.36L286.261 329.28L286.241 329.26V329.24L286.181 329.19C286.051 329.07 285.941 328.91 285.851 328.71C285.691 328.36 285.611 327.96 285.611 327.56V179.86C285.611 178.24 286.791 176.19 288.201 175.38L373.481 126.23C373.811 126.04 374.111 125.95 374.351 125.95M374.361 124.94C373.951 124.94 373.481 125.07 372.991 125.36L287.701 174.52C286.001 175.5 284.611 177.9 284.611 179.86V327.57C284.611 328.14 284.731 328.67 284.931 329.13C285.071 329.44 285.251 329.72 285.501 329.94C285.551 330 285.611 330.04 285.671 330.09C285.731 330.13 285.791 330.17 285.851 330.21C285.901 330.24 285.951 330.27 286.011 330.3C286.091 330.34 286.181 330.37 286.271 330.39C286.401 330.42 286.531 330.44 286.661 330.44C286.671 330.44 286.691 330.44 286.701 330.44C287.001 330.44 287.341 330.34 287.681 330.15L372.971 280.94C374.671 279.96 376.061 277.57 376.061 275.6V127.14C376.061 127.01 376.051 126.88 376.041 126.76C376.031 126.66 376.021 126.57 375.991 126.48C376.001 126.46 375.991 126.44 375.981 126.42C375.971 126.32 375.941 126.23 375.911 126.15C375.871 126.01 375.811 125.88 375.731 125.76C375.711 125.7 375.671 125.65 375.631 125.6C375.601 125.56 375.581 125.52 375.541 125.49C375.481 125.41 375.421 125.35 375.341 125.29C375.341 125.29 375.331 125.28 375.321 125.27C375.241 125.21 375.151 125.16 375.061 125.12C374.851 125.02 374.611 124.97 374.351 124.97L374.361 124.94Z" fill="#32B0BE"/>
<g opacity="0.8">
<path d="M376.081 127.14V275.6C376.081 277.57 374.691 279.96 372.991 280.94L287.701 330.15C287.351 330.35 286.991 330.45 286.681 330.44C286.551 330.44 286.421 330.42 286.291 330.39C286.201 330.37 286.111 330.34 286.031 330.3C285.971 330.27 285.921 330.24 285.871 330.21C285.811 330.17 285.751 330.13 285.691 330.09C285.631 330.04 285.571 330 285.521 329.94C285.281 329.72 285.091 329.44 284.951 329.13C284.751 328.67 284.631 328.14 284.631 327.57V179.86C284.631 177.9 286.021 175.5 287.721 174.52L373.011 125.36C373.811 124.9 374.531 124.83 375.081 125.1C375.171 125.14 375.261 125.19 375.341 125.25L375.361 125.27C375.441 125.33 375.501 125.39 375.561 125.47C375.601 125.5 375.621 125.54 375.651 125.58C375.691 125.63 375.731 125.68 375.751 125.74C375.831 125.86 375.891 125.99 375.931 126.13C375.961 126.21 375.991 126.3 376.001 126.4C376.011 126.42 376.021 126.44 376.011 126.46C376.041 126.55 376.051 126.64 376.061 126.74C376.071 126.86 376.081 126.99 376.081 127.12V127.14Z" fill="#32B0BE"/>
</g>
</g>
<path d="M375.072 125.09C374.512 124.83 373.802 124.9 373.002 125.35L287.712 174.51C286.012 175.49 284.622 177.89 284.622 179.85V189.93L280.682 187.62V177.61C280.682 175.65 282.062 173.26 283.762 172.28L369.062 123.12C369.942 122.6 370.732 122.59 371.302 122.94C371.862 123.27 374.422 124.74 375.072 125.09Z" fill="#007177"/>
<path d="M376.071 127.12C376.061 125.17 374.681 124.39 372.991 125.36L287.701 174.52C286.001 175.5 284.621 177.89 284.621 179.86V189.94L376.071 137.24V127.12Z" fill="#6D809F"/>
<g opacity="0.4">
<path d="M372.991 125.361L287.711 174.521C286.871 175.011 286.091 175.851 285.541 176.811L281.621 174.541C282.171 173.591 282.931 172.761 283.761 172.291L369.051 123.131C369.931 122.621 370.721 122.611 371.291 122.951C371.841 123.291 374.401 124.741 375.051 125.091C374.511 124.831 373.781 124.911 372.981 125.361H372.991Z" fill="white"/>
</g>
<path opacity="0.15" d="M280.682 187.64V177.62C280.682 176.62 281.052 175.52 281.622 174.54L285.552 176.8C284.982 177.77 284.632 178.87 284.632 179.86V189.94L280.682 187.64Z" fill="black"/>
<path d="M357.511 138.59C356.551 139.15 355.771 140.8 355.771 142.28C355.771 143.76 356.551 144.51 357.511 143.96C358.471 143.4 359.251 141.75 359.251 140.27C359.251 138.79 358.471 138.04 357.511 138.59Z" fill="#32B0BE"/>
<path d="M363.781 134.97C362.821 135.53 362.041 137.18 362.041 138.66C362.041 140.14 362.821 140.89 363.781 140.34C364.741 139.78 365.521 138.13 365.521 136.65C365.521 135.17 364.741 134.42 363.781 134.97Z" fill="#32B0BE"/>
<path d="M370.051 131.34C369.091 131.9 368.311 133.55 368.311 135.03C368.311 136.51 369.091 137.26 370.051 136.71C371.011 136.15 371.791 134.5 371.791 133.02C371.791 131.54 371.011 130.79 370.051 131.34Z" fill="#32B0BE"/>
<path opacity="0.9" d="M285.752 330.15C285.642 330.08 285.512 330.01 285.372 329.93C285.092 329.76 284.762 329.58 284.422 329.39H284.412C284.242 329.28 284.072 329.18 283.892 329.09C283.882 329.08 283.862 329.07 283.852 329.07C283.572 328.91 283.292 328.75 283.042 328.6C282.782 328.45 282.542 328.32 282.362 328.22C282.182 328.11 282.042 328.04 281.982 328.01C281.792 327.91 281.612 327.77 281.452 327.58C281.292 327.41 281.152 327.2 281.032 326.95C280.812 326.48 280.682 325.92 280.682 325.32V187.63L284.622 189.94V327.57C284.652 328.18 284.762 328.69 284.942 329.13C285.082 329.44 285.262 329.72 285.512 329.94C285.552 330 285.612 330.05 285.682 330.09C285.702 330.12 285.722 330.14 285.752 330.16V330.15Z" fill="#A6B8D9"/>
<path d="M292.201 198.311C292.201 198.131 292.251 197.931 292.361 197.731L294.581 193.141C294.621 193.071 294.651 193.031 294.681 193.001C294.711 192.981 294.731 192.961 294.741 192.961C294.811 192.921 294.861 192.931 294.911 192.971C294.961 193.021 294.981 193.091 294.981 193.201V194.741C294.981 194.941 294.971 195.091 294.931 195.221C294.901 195.341 294.851 195.481 294.771 195.641L293.601 198.061L294.771 199.131C294.851 199.201 294.901 199.281 294.931 199.371C294.961 199.461 294.981 199.601 294.981 199.791V201.331C294.981 201.431 294.961 201.541 294.911 201.641C294.861 201.741 294.801 201.811 294.741 201.851C294.741 201.851 294.711 201.861 294.681 201.871C294.651 201.881 294.621 201.871 294.581 201.851L292.361 199.821C292.261 199.741 292.201 199.611 292.201 199.431V198.291V198.311Z" fill="#27DEBF"/>
<path d="M300.302 186.811C300.342 186.661 300.392 186.511 300.472 186.361C300.552 186.211 300.652 186.091 300.802 186.011L301.632 185.531C301.702 185.491 301.762 185.491 301.802 185.541C301.852 185.591 301.872 185.661 301.872 185.771C301.872 185.821 301.872 185.871 301.852 185.941L298.052 202.141C298.022 202.271 297.972 202.421 297.892 202.581C297.812 202.741 297.702 202.861 297.552 202.951L296.752 203.411C296.682 203.451 296.622 203.451 296.582 203.401C296.532 203.351 296.512 203.281 296.512 203.171C296.512 203.121 296.512 203.071 296.532 203.001L300.302 186.821V186.811Z" fill="#27DEBF"/>
<path d="M306.192 191.38C306.192 191.56 306.142 191.76 306.032 191.96L303.812 196.55C303.772 196.62 303.742 196.66 303.712 196.69C303.682 196.71 303.662 196.73 303.652 196.73C303.582 196.77 303.522 196.77 303.482 196.72C303.432 196.67 303.412 196.6 303.412 196.49V194.95C303.412 194.75 303.422 194.59 303.452 194.47C303.482 194.35 303.532 194.21 303.612 194.05L304.782 191.63L303.612 190.56C303.542 190.49 303.482 190.41 303.452 190.32C303.422 190.23 303.412 190.09 303.412 189.9V188.36C303.412 188.26 303.432 188.15 303.482 188.05C303.532 187.95 303.592 187.88 303.652 187.84C303.652 187.84 303.682 187.83 303.712 187.82C303.742 187.81 303.772 187.82 303.812 187.84L306.032 189.87C306.132 189.95 306.192 190.08 306.192 190.26V191.4V191.38Z" fill="#27DEBF"/>
<path d="M312.352 190.311C312.432 190.261 312.502 190.271 312.562 190.321C312.622 190.381 312.652 190.471 312.652 190.601V192.301C312.652 192.431 312.622 192.551 312.562 192.681C312.502 192.811 312.432 192.891 312.352 192.941L311.302 193.541C311.222 193.591 311.152 193.581 311.092 193.531C311.032 193.471 311.002 193.381 311.002 193.251V191.551C311.002 191.421 311.032 191.301 311.092 191.171C311.152 191.041 311.222 190.961 311.302 190.911L312.352 190.311Z" fill="#27DEBF"/>
<path d="M315.852 188.291C315.932 188.241 316.002 188.251 316.062 188.301C316.122 188.361 316.152 188.451 316.152 188.581V190.281C316.152 190.411 316.122 190.531 316.062 190.661C316.002 190.791 315.932 190.871 315.852 190.921L314.802 191.521C314.722 191.571 314.652 191.561 314.592 191.511C314.532 191.451 314.502 191.361 314.502 191.231V189.531C314.502 189.401 314.532 189.281 314.592 189.151C314.652 189.021 314.722 188.941 314.802 188.891L315.852 188.291Z" fill="#27DEBF"/>
<path d="M319.34 186.271C319.42 186.221 319.49 186.231 319.55 186.281C319.61 186.341 319.64 186.431 319.64 186.561V188.261C319.64 188.391 319.61 188.511 319.55 188.641C319.49 188.771 319.42 188.851 319.34 188.901L318.29 189.501C318.21 189.551 318.14 189.541 318.08 189.491C318.02 189.431 317.99 189.341 317.99 189.211V187.511C317.99 187.381 318.02 187.261 318.08 187.131C318.14 187.001 318.21 186.921 318.29 186.871L319.34 186.271Z" fill="#27DEBF"/>
<path d="M293.131 210.68L344.371 181.09C344.971 180.74 345.471 180.99 345.471 181.64C345.471 182.29 344.981 183.11 344.371 183.46L293.131 213.05C292.531 213.4 292.031 213.15 292.031 212.5C292.031 211.84 292.521 211.03 293.131 210.68Z" fill="#27DEBF"/>
<path d="M309.571 229.67L360.811 200.08C361.411 199.73 361.911 199.98 361.911 200.63C361.911 201.28 361.421 202.1 360.811 202.45L309.571 232.04C308.971 232.39 308.471 232.14 308.471 231.49C308.471 230.83 308.961 230.02 309.571 229.67Z" fill="#E0E0E0"/>
<path d="M309.571 239.161L334.101 225.011C334.701 224.661 335.201 224.911 335.201 225.561C335.201 226.211 334.711 227.031 334.101 227.381L309.571 241.531C308.971 241.881 308.471 241.631 308.471 240.981C308.471 240.321 308.961 239.511 309.571 239.161Z" fill="#E0E0E0"/>
<path d="M309.571 248.65L334.101 234.5C334.701 234.15 335.201 234.4 335.201 235.05C335.201 235.7 334.711 236.52 334.101 236.87L309.571 251.02C308.971 251.37 308.471 251.12 308.471 250.47C308.471 249.81 308.961 249 309.571 248.65Z" fill="#E0E0E0"/>
<path d="M348.621 178.651L369.041 166.821C369.641 166.471 370.141 166.721 370.141 167.371C370.141 168.021 369.651 168.841 369.041 169.191L348.621 181.021C348.021 181.371 347.521 181.121 347.521 180.471C347.521 179.811 348.011 179.001 348.621 178.651Z" fill="#27DEBF"/>
<path d="M293.131 315.09L344.371 285.5C344.971 285.15 345.471 285.4 345.471 286.05C345.471 286.7 344.981 287.52 344.371 287.87L293.131 317.46C292.531 317.81 292.031 317.56 292.031 316.91C292.031 316.25 292.521 315.44 293.131 315.09Z" fill="#27DEBF"/>
<path d="M348.621 283.051L369.041 271.221C369.641 270.871 370.141 271.121 370.141 271.771C370.141 272.421 369.651 273.241 369.041 273.591L348.621 285.421C348.021 285.771 347.521 285.521 347.521 284.871C347.521 284.211 348.011 283.401 348.621 283.051Z" fill="#27DEBF"/>
<path d="M348.621 254.631L369.041 242.801C369.641 242.451 370.141 242.701 370.141 243.351C370.141 244.001 369.651 244.821 369.041 245.171L348.621 257.001C348.021 257.351 347.521 257.101 347.521 256.451C347.521 255.791 348.011 254.981 348.621 254.631Z" fill="#27DEBF"/>
<path d="M348.621 264.12L369.041 252.29C369.641 251.94 370.141 252.19 370.141 252.84C370.141 253.49 369.651 254.31 369.041 254.66L348.621 266.49C348.021 266.84 347.521 266.59 347.521 265.94C347.521 265.28 348.011 264.47 348.621 264.12Z" fill="#27DEBF"/>
<path d="M293.131 305.611L344.371 276.021C344.971 275.671 345.471 275.921 345.471 276.571C345.471 277.221 344.981 278.041 344.371 278.391L293.131 307.981C292.531 308.331 292.031 308.081 292.031 307.431C292.031 306.771 292.521 305.961 293.131 305.611Z" fill="#F5F5F5"/>
<path d="M331.211 264.651L342.681 258.031C343.291 257.681 343.781 257.931 343.781 258.581C343.781 259.231 343.291 260.051 342.681 260.401L331.211 267.021C330.611 267.371 330.111 267.121 330.111 266.471C330.111 265.811 330.601 265.001 331.211 264.651Z" fill="#27DEBF"/>
<path d="M293.131 220.201L323.021 202.931C323.621 202.581 324.121 202.831 324.121 203.481C324.121 204.131 323.631 204.951 323.021 205.301L293.131 222.571C292.531 222.921 292.031 222.671 292.031 222.021C292.031 221.361 292.521 220.551 293.131 220.201Z" fill="#27DEBF"/>
<path opacity="0.6" d="M293.131 220.201L323.021 202.931C323.621 202.581 324.121 202.831 324.121 203.481C324.121 204.131 323.631 204.951 323.021 205.301L293.131 222.571C292.531 222.921 292.031 222.671 292.031 222.021C292.031 221.361 292.521 220.551 293.131 220.201Z" fill="white"/>
<path d="M293.131 229.671L303.271 223.811C303.881 223.461 304.371 223.711 304.371 224.361C304.371 225.011 303.881 225.831 303.271 226.181L293.131 232.041C292.531 232.391 292.031 232.141 292.031 231.491C292.031 230.831 292.521 230.021 293.131 229.671Z" fill="#27DEBF"/>
<path opacity="0.6" d="M293.131 229.671L303.271 223.811C303.881 223.461 304.371 223.711 304.371 224.361C304.371 225.011 303.881 225.831 303.271 226.181L293.131 232.041C292.531 232.391 292.031 232.141 292.031 231.491C292.031 230.831 292.521 230.021 293.131 229.671Z" fill="white"/>
<path d="M293.131 239.161L303.271 233.301C303.881 232.951 304.371 233.201 304.371 233.851C304.371 234.501 303.881 235.321 303.271 235.671L293.131 241.531C292.531 241.881 292.031 241.631 292.031 240.981C292.031 240.321 292.521 239.511 293.131 239.161Z" fill="#27DEBF"/>
<path opacity="0.6" d="M293.131 239.161L303.271 233.301C303.881 232.951 304.371 233.201 304.371 233.851C304.371 234.501 303.881 235.321 303.271 235.671L293.131 241.531C292.531 241.881 292.031 241.631 292.031 240.981C292.031 240.321 292.521 239.511 293.131 239.161Z" fill="white"/>
<path d="M293.131 248.661L303.271 242.801C303.881 242.451 304.371 242.701 304.371 243.351C304.371 244.001 303.881 244.821 303.271 245.171L293.131 251.031C292.531 251.381 292.031 251.131 292.031 250.481C292.031 249.821 292.521 249.011 293.131 248.661Z" fill="#27DEBF"/>
<path opacity="0.6" d="M293.131 248.661L303.271 242.801C303.881 242.451 304.371 242.701 304.371 243.351C304.371 244.001 303.881 244.821 303.271 245.171L293.131 251.031C292.531 251.381 292.031 251.131 292.031 250.481C292.031 249.821 292.521 249.011 293.131 248.661Z" fill="white"/>
<path d="M293.131 258.15L303.271 252.29C303.881 251.94 304.371 252.19 304.371 252.84C304.371 253.49 303.881 254.31 303.271 254.66L293.131 260.52C292.531 260.87 292.031 260.62 292.031 259.97C292.031 259.31 292.521 258.5 293.131 258.15Z" fill="#27DEBF"/>
<path opacity="0.6" d="M293.131 258.15L303.271 252.29C303.881 251.94 304.371 252.19 304.371 252.84C304.371 253.49 303.881 254.31 303.271 254.66L293.131 260.52C292.531 260.87 292.031 260.62 292.031 259.97C292.031 259.31 292.521 258.5 293.131 258.15Z" fill="white"/>
<path d="M327.272 200.48L340.272 193C340.872 192.65 341.372 192.9 341.372 193.55C341.372 194.2 340.882 195.02 340.272 195.37L327.272 202.85C326.672 203.2 326.172 202.95 326.172 202.3C326.172 201.64 326.662 200.83 327.272 200.48Z" fill="#27DEBF"/>
<path opacity="0.6" d="M327.272 200.48L340.272 193C340.872 192.65 341.372 192.9 341.372 193.55C341.372 194.2 340.882 195.02 340.272 195.37L327.272 202.85C326.672 203.2 326.172 202.95 326.172 202.3C326.172 201.64 326.662 200.83 327.272 200.48Z" fill="white"/>
<path d="M321.901 251.011L351.791 233.741C352.391 233.391 352.891 233.641 352.891 234.291C352.891 234.941 352.401 235.761 351.791 236.111L321.901 253.381C321.301 253.731 320.801 253.481 320.801 252.831C320.801 252.171 321.291 251.361 321.901 251.011Z" fill="#F5F5F5"/>
<path d="M339.151 250.591L369.041 233.321C369.641 232.971 370.141 233.221 370.141 233.871C370.141 234.521 369.651 235.341 369.041 235.691L339.151 252.961C338.551 253.311 338.051 253.061 338.051 252.411C338.051 251.751 338.541 250.941 339.151 250.591Z" fill="#F5F5F5"/>
<path d="M356.041 231.291L369.041 223.811C369.641 223.461 370.141 223.711 370.141 224.361C370.141 225.011 369.651 225.831 369.041 226.181L356.041 233.661C355.441 234.011 354.941 233.761 354.941 233.111C354.941 232.451 355.431 231.641 356.041 231.291Z" fill="#F5F5F5"/>
<path d="M309.571 220.18L339.461 202.91C340.061 202.56 340.561 202.81 340.561 203.46C340.561 204.11 340.071 204.93 339.461 205.28L309.571 222.55C308.971 222.9 308.471 222.65 308.471 222C308.471 221.34 308.961 220.53 309.571 220.18Z" fill="#27DEBF"/>
<path opacity="0.6" d="M309.571 220.18L339.461 202.91C340.061 202.56 340.561 202.81 340.561 203.46C340.561 204.11 340.071 204.93 339.461 205.28L309.571 222.55C308.971 222.9 308.471 222.65 308.471 222C308.471 221.34 308.961 220.53 309.571 220.18Z" fill="white"/>
<path d="M343.711 200.461L356.711 192.981C357.311 192.631 357.811 192.881 357.811 193.531C357.811 194.181 357.321 195.001 356.711 195.351L343.711 202.831C343.111 203.181 342.611 202.931 342.611 202.281C342.611 201.621 343.101 200.811 343.711 200.461Z" fill="#27DEBF"/>
<path opacity="0.6" d="M343.711 200.461L356.711 192.981C357.311 192.631 357.811 192.881 357.811 193.531C357.811 194.181 357.321 195.001 356.711 195.351L343.711 202.831C343.111 203.181 342.611 202.931 342.611 202.281C342.611 201.621 343.101 200.811 343.711 200.461Z" fill="white"/>
<path d="M407.072 312.99C410.982 313.75 412.762 315.08 414.982 320.5C417.202 325.92 421.162 339.12 422.092 342.75C422.502 344.37 412.232 358.89 412.672 358.68C412.812 358.61 408.662 351.68 408.662 351.68L413.702 342.03L410.112 333.26L407.072 312.99Z" fill="#FFA8A7"/>
<path d="M405.742 313.08C405.742 313.08 409.312 312.44 411.672 314.4C414.032 316.36 414.392 317.66 415.982 321.69C417.572 325.72 420.202 334.08 420.202 334.08C420.202 334.08 419.452 338.58 412.122 339.47L405.842 325.32C405.842 325.32 403.652 316.76 405.752 313.07L405.742 313.08Z" fill="#AFB7C4"/>
<path d="M398.38 429.18C398.28 430.45 398.12 431.59 398.61 432.99C399.32 434.99 400.81 435.91 401.69 436.7C402.57 437.49 403.55 438.66 404.25 439.8C404.87 440.81 405.58 441.98 406.92 443.14C407.75 443.86 410.1 443.93 411.24 443.45C412.37 442.97 412.75 442.55 412.68 440.74C412.61 438.97 407.13 438.31 407.13 438.31L398.38 429.17V429.18Z" fill="#455A64"/>
<path d="M411.97 435.35C412.44 435.53 412.56 436.42 412.63 438.19C412.68 439.53 413.25 441.49 411.4 442.34C409.91 443.02 407.53 442.57 406.52 441.3C405.26 439.72 404.42 438.33 402.62 436.41C401.07 434.74 399.45 434.18 398.76 430.84C398.32 428.7 398.67 427.81 400.11 427.19C402.09 426.34 405.21 429.11 406.77 429.54C408.11 429.91 411.51 435.16 411.97 435.34V435.35Z" fill="#AFB7C4"/>
<path opacity="0.2" d="M411.97 435.35C412.44 435.53 412.56 436.42 412.63 438.19C412.68 439.53 413.25 441.49 411.4 442.34C409.91 443.02 407.53 442.57 406.52 441.3C405.26 439.72 404.42 438.33 402.62 436.41C401.07 434.74 399.45 434.18 398.76 430.84C398.32 428.7 398.67 427.81 400.11 427.19C402.09 426.34 405.21 429.11 406.77 429.54C408.11 429.91 411.51 435.16 411.97 435.34V435.35Z" fill="black"/>
<path d="M406.761 429.55C406.681 429.53 406.591 429.49 406.501 429.46C403.641 429.71 402.491 431.68 402.201 432.28C401.941 432.86 402.751 433.32 403.241 432.86C404.351 430.66 406.631 430.17 407.531 430.06C407.241 429.8 406.971 429.61 406.761 429.55Z" fill="#FAFAFA"/>
<path d="M408.05 430.56C405.4 430.92 404.34 432.78 404.06 433.35C403.8 433.93 404.61 434.39 405.1 433.93C405.98 432.18 407.6 431.51 408.68 431.26C408.47 431.01 408.26 430.77 408.05 430.56Z" fill="#FAFAFA"/>
<path d="M373.441 456.59C373.141 458.09 373.681 458.87 375.621 459.99C377.561 461.11 380.601 461.49 383.801 460.56C387.001 459.63 388.531 458.23 389.861 457.9C391.191 457.57 394.481 457.54 395.791 457.15C397.101 456.77 397.081 456.09 397.081 454.51L373.451 456.58L373.441 456.59Z" fill="#455A64"/>
<path d="M395.781 446.91C395.781 446.91 396.401 448.8 396.741 450.46C397.011 451.78 397.391 453.97 396.931 454.96C396.471 455.95 394.671 456.59 391.891 456.57C390.091 456.56 387.281 457.78 385.351 458.86C383.361 459.97 381.211 459.97 379.101 459.73C376.621 459.44 374.061 458 373.651 456.98C373.251 455.95 373.151 455.18 378.981 452.7C379.031 452.68 385.761 450.2 388.581 447.08L395.771 446.93L395.781 446.91Z" fill="#AFB7C4"/>
<g opacity="0.2">
<path d="M395.781 446.91C395.781 446.91 396.401 448.8 396.741 450.46C397.011 451.78 397.391 453.97 396.931 454.96C396.471 455.95 394.671 456.59 391.891 456.57C390.091 456.56 387.281 457.78 385.351 458.86C383.361 459.97 381.211 459.97 379.101 459.73C376.621 459.44 374.061 458 373.651 456.98C373.251 455.95 373.151 455.18 378.981 452.7C379.031 452.68 385.761 450.2 388.581 447.08L395.771 446.93L395.781 446.91Z" fill="black"/>
</g>
<path d="M384.562 459.23C384.562 459.23 384.062 454.22 379.982 452.78C376.302 451.48 373.082 454.21 373.442 456.59C373.682 458.19 378.172 461.81 384.562 459.23Z" fill="#FAFAFA"/>
<path d="M381.01 451.851C381.01 451.851 382.32 451.851 383.79 453.091C384.97 454.081 385 454.741 385 454.741C385.27 455.151 386.13 454.931 386.06 454.231C386.06 454.231 385.79 451.701 382.46 451.181C382.46 451.181 381.54 450.951 381.01 451.851Z" fill="#FAFAFA"/>
<path d="M383.34 450.73C383.34 450.73 384.68 450.611 386.15 451.851C387.33 452.841 387.33 453.62 387.33 453.62C387.6 454.03 388.46 453.81 388.39 453.11C388.39 453.11 388.12 450.58 384.79 450.06C384.79 450.06 383.87 449.83 383.34 450.73Z" fill="#FAFAFA"/>
<path d="M385.65 449.41C385.65 449.41 386.98 449.2 388.53 450.33C389.77 451.24 389.83 452.01 389.83 452.01C390.13 452.4 390.97 452.12 390.86 451.43C390.86 451.43 390.41 448.93 387.06 448.64C387.06 448.64 386.13 448.48 385.66 449.41H385.65Z" fill="#FAFAFA"/>
<path d="M411.972 432.49V435.89C411.972 435.89 409.712 437.63 406.472 436.04C406.372 435.83 406.102 432.49 406.102 432.49H411.972Z" fill="#FFA8A7"/>
<path d="M395.78 444.56C395.78 444.56 395.78 446.17 395.78 447.1C395.78 448.02 394.7 449.4 391.88 449.3C389.9 449.23 388.52 448.7 388.59 447.07V444.72L395.78 444.57V444.56Z" fill="#FFA8A7"/>
<path d="M415.64 403.62C415.46 396.45 413.98 393.3 413.98 393.3C413.98 393.3 414.53 384.44 415.72 373.59C417.54 357.07 416.7 353.87 413.44 346.44C413.44 346.44 385.64 343.62 384.79 355.18C383.73 369.57 383.61 398.84 383.99 403.92C384.37 409 384.37 404.31 385.6 414.6C386.58 422.74 388.6 444.71 388.6 444.71C392.29 446.7 395.79 444.56 395.79 444.56C395.79 444.56 398.06 417.67 397.82 411.81C397.53 404.65 397.12 402.83 397.12 402.83C397.12 402.83 400.37 379.65 400.87 375.91C400.87 375.91 401.32 382.59 401.7 387.67C402.08 392.75 402.05 396.85 403.12 407.36C403.96 415.61 405.99 433.41 405.99 433.41C409.28 434.8 412.05 432.96 412.05 432.96C412.05 432.96 415.77 409.42 415.62 403.62H415.64Z" fill="#455A64"/>
<path d="M399.671 433.32C399.671 433.32 399.831 429.35 405.191 428.8L405.501 428.97C405.501 428.97 404.641 427.41 402.861 426.93C401.071 426.45 399.671 426.91 398.731 428.12C397.791 429.33 398.741 432.55 399.671 433.32Z" fill="#FAFAFA"/>
<path d="M392.832 309.25L394.132 320L403.582 319.14L402.502 307.22L392.832 309.25Z" fill="#FFA8A7"/>
<path d="M412.792 318.19C411.752 315.36 409.372 312.4 405.742 313.08C404.792 313.26 403.962 313.39 403.072 313.57C402.992 316.04 398.322 317.33 393.682 315.82C392.282 316.22 391.002 316.63 389.842 317.04C386.522 318.23 385.182 323.75 385.112 332.99C385.042 342.23 383.742 360.78 383.742 360.78C383.742 360.78 390.732 364.49 403.812 362.12C416.892 359.75 416.662 355.3 416.662 355.3C416.662 355.3 416.402 349.88 410.502 340.78C415.512 327.46 414.332 322.38 412.792 318.18V318.19Z" fill="#C3C9D2"/>
<path d="M385.812 295.61C385.812 295.61 383.831 291.85 386.521 287.62C389.691 282.64 395.801 281.79 403.051 283.73C406.641 284.69 411.661 288.51 412.111 295.4C412.461 300.71 397.641 304.63 397.981 308.27L385.812 295.61Z" fill="#263238"/>
<path d="M385.491 297.62C385.491 297.62 383.481 300.84 383.761 301.17C384.041 301.5 385.381 301.82 385.381 301.82L385.481 297.62H385.491Z" fill="#F28F8F"/>
<path d="M391.621 287.41C389.611 288.52 386.141 290.56 385.441 298.08C384.721 305.81 386.511 308.44 387.581 309.42C388.311 310.08 391.971 310.23 393.861 309.59C396.231 308.78 401.331 306.09 403.651 302.05C406.381 297.3 406.801 291.05 403.441 288.69C398.711 285.38 393.321 286.47 391.621 287.41Z" fill="#FFA8A7"/>
<path d="M391.721 296.51C391.721 296.51 387.581 295.24 386.821 290.34C386.061 285.44 392.191 283.36 392.191 283.36L391.731 296.51H391.721Z" fill="#263238"/>
<path d="M391.032 287.75C391.032 287.75 389.442 294.82 391.692 299.21C391.692 299.21 392.862 296.43 395.242 297.16C397.632 297.89 397.502 301.06 395.682 302.72C393.862 304.39 392.022 303.6 392.022 303.6C392.022 303.6 393.112 306.58 395.552 308.94C395.552 308.94 402.592 312.08 408.692 305.2C414.222 298.96 413.192 288.07 404.722 285.5C396.252 282.93 391.032 287.76 391.032 287.76V287.75Z" fill="#263238"/>
<path d="M420.202 315.47C414.892 315.47 410.592 311.17 410.592 305.86V289.76C415.902 289.76 420.202 294.06 420.202 299.37V315.47Z" fill="#263238"/>
<path d="M411.662 287.67C410.792 287.95 410.312 288.89 410.592 289.76L413.752 288.74C413.472 287.87 412.532 287.39 411.662 287.67Z" fill="#263238"/>
<path d="M365.942 334.07C364.572 332.5 364.342 329.04 362.512 326.66C360.732 324.34 361.022 321.88 359.872 322.95C358.642 324.09 359.582 327.92 359.582 327.92C359.582 327.92 357.452 331.87 357.272 333.89C357.092 335.91 362.432 340.98 362.432 340.98L365.932 334.07H365.942Z" fill="#FFA8A7"/>
<path d="M359.871 327.65C359.871 327.65 357.711 330.68 347.961 326.72C345.271 325.63 347.081 331.42 350.391 333.81C353.451 336.03 357.271 336.72 360.331 338.79C360.331 338.5 359.881 327.64 359.881 327.64L359.871 327.65Z" fill="#FFA8A7"/>
<path d="M390.671 316.761C387.891 317.731 385.461 318.841 382.871 323.711C379.541 329.971 373.481 342.231 373.481 342.231L365.931 334.061C365.931 334.061 364.831 332.511 362.791 335.891C360.751 339.271 361.651 340.201 361.651 340.201C361.651 340.201 370.431 351.961 372.041 353.461C373.651 354.961 376.301 353.791 378.031 351.441C379.761 349.091 388.691 332.901 388.691 332.901C388.691 332.901 394.591 322.681 390.661 316.761H390.671Z" fill="#FFA8A7"/>
<path d="M392.012 316.32C391.322 316.54 386.532 316.54 383.552 321.95C380.232 327.95 376.742 334.73 376.742 334.73C376.742 334.73 379.142 340.53 385.282 340.98C385.292 340.38 390.302 331.48 392.192 327.67C394.082 323.86 393.902 318.04 392.022 316.33L392.012 316.32Z" fill="#AFB7C4"/>
<path d="M400.871 375.91L401.401 370.29C401.401 370.29 405.481 369.9 409.881 367.08C409.881 367.08 408.071 369.97 403.121 371.29L402.001 376.76L401.711 387.67L400.881 375.91H400.871Z" fill="#C3C9D2"/>
</g>
<defs>
<clipPath id="clip0_9365_711">
<rect width="473.16" height="440.05" fill="white" transform="translate(26.4219 79.3701)"/>
</clipPath>
</defs>
</svg>
