<svg width="20" height="20" viewBox="0 0 20 20" fill="none" xmlns="http://www.w3.org/2000/svg">
<path d="M13.3335 6.66665V4.99998C13.3335 4.55795 13.1579 4.13403 12.8453 3.82147C12.5328 3.50891 12.1089 3.33331 11.6668 3.33331H5.00016C4.55814 3.33331 4.13421 3.50891 3.82165 3.82147C3.50909 4.13403 3.3335 4.55795 3.3335 4.99998V11.6666C3.3335 12.1087 3.50909 12.5326 3.82165 12.8452C4.13421 13.1577 4.55814 13.3333 5.00016 13.3333H6.66683M6.66683 8.33331C6.66683 7.89129 6.84242 7.46736 7.15499 7.1548C7.46755 6.84224 7.89147 6.66665 8.3335 6.66665H15.0002C15.4422 6.66665 15.8661 6.84224 16.1787 7.1548C16.4912 7.46736 16.6668 7.89129 16.6668 8.33331V15C16.6668 15.442 16.4912 15.8659 16.1787 16.1785C15.8661 16.4911 15.4422 16.6666 15.0002 16.6666H8.3335C7.89147 16.6666 7.46755 16.4911 7.15499 16.1785C6.84242 15.8659 6.66683 15.442 6.66683 15V8.33331Z" stroke="#9EB1D5" stroke-width="1.6" stroke-linecap="round" stroke-linejoin="round"/>
</svg>
