<svg width="20" height="20" viewBox="0 0 20 20" fill="none" xmlns="http://www.w3.org/2000/svg">
<path d="M11.6668 3.33337V6.66671H6.66683V3.33337M5.00016 3.33337H13.3335L16.6668 6.66671V15C16.6668 15.4421 16.4912 15.866 16.1787 16.1786C15.8661 16.4911 15.4422 16.6667 15.0002 16.6667H5.00016C4.55814 16.6667 4.13421 16.4911 3.82165 16.1786C3.50909 15.866 3.3335 15.4421 3.3335 15V5.00004C3.3335 4.55801 3.50909 4.13409 3.82165 3.82153C4.13421 3.50897 4.55814 3.33337 5.00016 3.33337ZM8.3335 11.6667C8.3335 12.1087 8.50909 12.5327 8.82165 12.8452C9.13421 13.1578 9.55814 13.3334 10.0002 13.3334C10.4422 13.3334 10.8661 13.1578 11.1787 12.8452C11.4912 12.5327 11.6668 12.1087 11.6668 11.6667C11.6668 11.2247 11.4912 10.8008 11.1787 10.4882C10.8661 10.1756 10.4422 10 10.0002 10C9.55814 10 9.13421 10.1756 8.82165 10.4882C8.50909 10.8008 8.3335 11.2247 8.3335 11.6667Z" stroke="#9EB1D5" stroke-width="1.6" stroke-linecap="round" stroke-linejoin="round"/>
</svg>
