<svg width="20" height="20" viewBox="0 0 20 20" fill="none" xmlns="http://www.w3.org/2000/svg">
<g id="device-desktop-code">
<path id="Vector" d="M10.4167 14.1666C10.8769 14.1666 11.25 13.7935 11.25 13.3333C11.25 12.873 10.8769 12.4999 10.4167 12.4999V14.1666ZM2.5 12.4999H1.66667H2.5ZM3.33333 3.33325V4.16659V3.33325ZM16.6667 10.8333C16.6667 11.2935 17.0398 11.6666 17.5 11.6666C17.9602 11.6666 18.3333 11.2935 18.3333 10.8333H16.6667ZM5.83333 15.8333C5.3731 15.8333 5 16.2063 5 16.6666C5 17.1268 5.3731 17.4999 5.83333 17.4999V15.8333ZM9.16667 17.4999C9.6269 17.4999 10 17.1268 10 16.6666C10 16.2063 9.6269 15.8333 9.16667 15.8333V17.4999ZM8.33333 13.3333C8.33333 12.873 7.96024 12.4999 7.5 12.4999C7.03976 12.4999 6.66667 12.873 6.66667 13.3333H8.33333ZM6.66667 16.6666C6.66667 17.1268 7.03976 17.4999 7.5 17.4999C7.96024 17.4999 8.33333 17.1268 8.33333 16.6666H6.66667ZM16.0774 16.9107C15.752 17.2361 15.752 17.7637 16.0774 18.0892C16.4028 18.4146 16.9305 18.4146 17.2559 18.0892L16.0774 16.9107ZM18.3333 15.8333L18.9226 16.4225C19.248 16.0971 19.248 15.5694 18.9226 15.244L18.3333 15.8333ZM17.2559 13.5773C16.9305 13.2519 16.4028 13.2519 16.0774 13.5773C15.752 13.9028 15.752 14.4304 16.0774 14.7558L17.2559 13.5773ZM14.7559 14.7558C15.0814 14.4304 15.0814 13.9028 14.7559 13.5773C14.4305 13.2519 13.9028 13.2519 13.5774 13.5773L14.7559 14.7558ZM12.5 15.8333L11.9107 15.244C11.5853 15.5694 11.5853 16.0971 11.9107 16.4225L12.5 15.8333ZM13.5774 18.0892C13.9028 18.4146 14.4305 18.4146 14.7559 18.0892C15.0814 17.7637 15.0814 17.2361 14.7559 16.9107L13.5774 18.0892ZM10.4167 12.4999H3.33333V14.1666H10.4167V12.4999ZM3.33333 12.4999H3.33333L2.15482 13.6784C2.46738 13.991 2.89131 14.1666 3.33333 14.1666V12.4999ZM3.33333 12.4999H3.33333H1.66667C1.66667 12.9419 1.84226 13.3659 2.15482 13.6784L3.33333 12.4999ZM3.33333 12.4999V4.16659H1.66667V12.4999H3.33333ZM3.33333 4.16659L3.33333 4.16659L2.15482 2.98807C1.84226 3.30063 1.66667 3.72456 1.66667 4.16659H3.33333ZM3.33333 4.16659L3.33333 4.16659V2.49992C2.89131 2.49992 2.46738 2.67551 2.15482 2.98807L3.33333 4.16659ZM3.33333 4.16659H16.6667V2.49992H3.33333V4.16659ZM16.6667 4.16659L16.6667 4.16659L17.8452 2.98807C17.5326 2.67551 17.1087 2.49992 16.6667 2.49992V4.16659ZM16.6667 4.16659L16.6667 4.16659H18.3333C18.3333 3.72456 18.1577 3.30064 17.8452 2.98807L16.6667 4.16659ZM16.6667 4.16659V10.8333H18.3333V4.16659H16.6667ZM5.83333 17.4999H9.16667V15.8333H5.83333V17.4999ZM6.66667 13.3333V16.6666H8.33333V13.3333H6.66667ZM17.2559 18.0892L18.9226 16.4225L17.7441 15.244L16.0774 16.9107L17.2559 18.0892ZM18.9226 15.244L17.2559 13.5773L16.0774 14.7558L17.7441 16.4225L18.9226 15.244ZM13.5774 13.5773L11.9107 15.244L13.0893 16.4225L14.7559 14.7558L13.5774 13.5773ZM11.9107 16.4225L13.5774 18.0892L14.7559 16.9107L13.0893 15.244L11.9107 16.4225Z" fill="#0A2540"/>
</g>
</svg>
