<svg width="15" height="15" viewBox="0 0 15 15" fill="none" xmlns="http://www.w3.org/2000/svg">
<g id="dots-vertical">
<g id="Vector">
<path d="M6.91675 7.49992C6.91675 7.65463 6.97821 7.803 7.0876 7.9124C7.197 8.02179 7.34537 8.08325 7.50008 8.08325C7.65479 8.08325 7.80316 8.02179 7.91256 7.9124C8.02196 7.803 8.08341 7.65463 8.08341 7.49992C8.08341 7.34521 8.02196 7.19684 7.91256 7.08744C7.80316 6.97804 7.65479 6.91659 7.50008 6.91659C7.34537 6.91659 7.197 6.97804 7.0876 7.08744C6.97821 7.19684 6.91675 7.34521 6.91675 7.49992Z" stroke="#6F7C95" stroke-width="1.16667" stroke-linecap="round" stroke-linejoin="round"/>
<path d="M6.91675 11.5833C6.91675 11.738 6.97821 11.8863 7.0876 11.9957C7.197 12.1051 7.34537 12.1666 7.50008 12.1666C7.65479 12.1666 7.80316 12.1051 7.91256 11.9957C8.02196 11.8863 8.08341 11.738 8.08341 11.5833C8.08341 11.4285 8.02196 11.2802 7.91256 11.1708C7.80316 11.0614 7.65479 10.9999 7.50008 10.9999C7.34537 10.9999 7.197 11.0614 7.0876 11.1708C6.97821 11.2802 6.91675 11.4285 6.91675 11.5833Z" stroke="#6F7C95" stroke-width="1.16667" stroke-linecap="round" stroke-linejoin="round"/>
<path d="M6.91675 3.41659C6.91675 3.57129 6.97821 3.71967 7.0876 3.82906C7.197 3.93846 7.34537 3.99992 7.50008 3.99992C7.65479 3.99992 7.80316 3.93846 7.91256 3.82906C8.02196 3.71967 8.08341 3.57129 8.08341 3.41659C8.08341 3.26188 8.02196 3.1135 7.91256 3.00411C7.80316 2.89471 7.65479 2.83325 7.50008 2.83325C7.34537 2.83325 7.197 2.89471 7.0876 3.00411C6.97821 3.1135 6.91675 3.26188 6.91675 3.41659Z" stroke="#6F7C95" stroke-width="1.16667" stroke-linecap="round" stroke-linejoin="round"/>
</g>
</g>
</svg>
