<svg width="23" height="23" viewBox="0 0 23 23" fill="none" xmlns="http://www.w3.org/2000/svg">
<g clip-path="url(#clip0_1786_10007)">
<path d="M11.694 -0.013411C11.7376 -0.0133166 11.7812 -0.0132222 11.826 -0.0131249C12.46 -0.0109193 13.0813 0.00209919 13.7041 0.13173C13.7469 0.140436 13.7897 0.149141 13.8337 0.15811C15.9536 0.601609 17.8809 1.56191 19.444 3.06742C19.4874 3.10897 19.4874 3.10897 19.5316 3.15135C19.9473 3.55203 20.3303 3.9594 20.6709 4.42573C20.7085 4.47616 20.7461 4.52659 20.7837 4.57703C21.0483 4.93594 21.283 5.30898 21.5034 5.6964C21.5194 5.72408 21.5353 5.75176 21.5518 5.78029C22.4936 7.42575 22.9264 9.29505 22.9192 11.1789C22.9191 11.2442 22.9191 11.2442 22.919 11.3108C22.917 11.9459 22.8968 12.5642 22.7741 13.189C22.767 13.2282 22.76 13.2675 22.7527 13.3079C22.407 15.2186 21.5443 17.0211 20.2765 18.4908C20.2488 18.5234 20.221 18.556 20.1923 18.5897C19.6748 19.1814 19.1161 19.7366 18.4801 20.1996C18.4297 20.2371 18.3793 20.2747 18.3289 20.3122C17.97 20.5769 17.5969 20.8117 17.2094 21.0321C17.1817 21.0481 17.154 21.064 17.1255 21.0805C15.985 21.7333 14.696 22.1559 13.3974 22.3466C13.3447 22.3543 13.292 22.3621 13.2377 22.37C12.7244 22.4403 12.2144 22.4518 11.6968 22.4506C11.6535 22.4506 11.6103 22.4506 11.5657 22.4505C8.71968 22.4422 5.98495 21.3433 3.93307 19.3671C3.90418 19.3394 3.87529 19.3117 3.84552 19.2831C3.42978 18.8825 3.04683 18.4751 2.70621 18.0088C2.66862 17.9583 2.63102 17.9079 2.59342 17.8575C2.32885 17.4986 2.09406 17.1255 1.8737 16.7381C1.85773 16.7104 1.84176 16.6827 1.82531 16.6542C1.17112 15.5113 0.755782 14.2259 0.559216 12.9261C0.547609 12.8523 0.547609 12.8523 0.535767 12.777C0.463168 12.2682 0.454112 11.7636 0.455152 11.2501C0.455176 11.2058 0.4552 11.1614 0.455225 11.1157C0.45701 10.3913 0.497485 9.69373 0.646849 8.98262C0.656006 8.93813 0.665163 8.89365 0.674597 8.84781C1.05921 7.03767 1.89184 5.34497 3.10056 3.94375C3.12835 3.9111 3.15614 3.87845 3.18477 3.84482C3.70229 3.25308 4.26097 2.69787 4.89703 2.23491C4.94741 2.19738 4.99779 2.15984 5.04816 2.12229C5.40709 1.85761 5.78021 1.6228 6.1677 1.4024C6.19538 1.38643 6.22307 1.37046 6.25159 1.35401C7.39216 0.701184 8.68102 0.278802 9.97972 0.0879141C10.0585 0.0762594 10.0585 0.0762594 10.1389 0.0643693C10.6571 -0.00698695 11.1716 -0.0154497 11.694 -0.013411ZM11.0205 6.36597C10.3732 7.11969 10.3534 8.02034 10.3658 8.96071C10.3665 9.04829 10.3671 9.13586 10.3676 9.22344C10.3691 9.43529 10.3713 9.64711 10.3741 9.85894C10.3336 9.85826 10.2931 9.85757 10.2515 9.85686C10.1013 9.85462 9.95113 9.85297 9.80095 9.85172C9.73597 9.85106 9.67098 9.85017 9.606 9.84903C9.51257 9.84743 9.41917 9.84669 9.32572 9.84611C9.26951 9.84542 9.21329 9.84473 9.15537 9.84402C9.01922 9.84648 9.01922 9.84648 8.94241 9.91424C8.87117 10.0076 8.86747 10.0557 8.8666 10.1722C8.86605 10.2086 8.86549 10.245 8.86492 10.2825C8.86505 10.3217 8.86518 10.3608 8.86531 10.4012C8.86508 10.4415 8.86485 10.4819 8.86461 10.5234C8.86433 10.6087 8.86439 10.694 8.86477 10.7793C8.86514 10.9101 8.86388 11.0407 8.86249 11.1714C8.86242 11.2542 8.86244 11.3371 8.86257 11.4199C8.86208 11.4591 8.86159 11.4982 8.86108 11.5386C8.86149 11.575 8.8619 11.6114 8.86233 11.6489C8.86233 11.6809 8.86234 11.7129 8.86235 11.7459C8.87877 11.8366 8.87877 11.8366 8.95427 11.907C9.09659 11.9815 9.20396 11.977 9.36423 11.975C9.40763 11.9747 9.40763 11.9747 9.4519 11.9744C9.54387 11.9737 9.63581 11.972 9.72777 11.9703C9.7903 11.9697 9.85283 11.9691 9.91536 11.9685C10.0683 11.9671 10.2212 11.9648 10.3741 11.9621C10.3738 11.9985 10.3738 11.9985 10.3735 12.0357C10.3686 12.6259 10.365 13.2161 10.3627 13.8063C10.3616 14.0917 10.36 14.3772 10.3575 14.6626C10.3552 14.9379 10.3538 15.2131 10.3533 15.4884C10.3529 15.5936 10.3521 15.6988 10.3509 15.804C10.3493 15.951 10.3491 16.098 10.3492 16.245C10.3484 16.2887 10.3476 16.3325 10.3468 16.3776C10.3476 16.4875 10.3502 16.587 10.3741 16.6943C10.5481 16.8553 10.738 16.8437 10.9646 16.8401C10.9999 16.84 11.0353 16.8399 11.0717 16.8399C11.1462 16.8396 11.2206 16.839 11.2951 16.8381C11.4091 16.8367 11.5232 16.8363 11.6372 16.836C11.7097 16.8356 11.7821 16.8351 11.8546 16.8346C11.9057 16.8344 11.9057 16.8344 11.9579 16.8341C12.0983 16.8322 12.2117 16.8266 12.3458 16.7819C12.3972 16.679 12.395 16.6188 12.3949 16.5041C12.3949 16.4642 12.395 16.4242 12.3951 16.3831C12.3949 16.3391 12.3947 16.2952 12.3946 16.2499C12.3946 16.2038 12.3946 16.1576 12.3946 16.11C12.3946 15.9569 12.3942 15.8037 12.3939 15.6506C12.3938 15.5446 12.3937 15.4386 12.3937 15.3327C12.3935 15.0533 12.3931 14.774 12.3926 14.4946C12.3922 14.2097 12.392 13.9249 12.3918 13.64C12.3913 13.0807 12.3905 12.5214 12.3896 11.9621C12.4418 11.963 12.494 11.964 12.5477 11.9649C12.7414 11.9681 12.9351 11.9701 13.1288 11.9718C13.2126 11.9726 13.2964 11.9738 13.3802 11.9753C13.5007 11.9775 13.6212 11.9785 13.7418 11.9792C13.7792 11.9801 13.8166 11.9811 13.8552 11.982C14.0687 11.9828 14.0687 11.9828 14.2527 11.8817C14.3395 11.7548 14.3538 11.6515 14.373 11.4991C14.3803 11.4426 14.3877 11.386 14.3952 11.3277C14.4004 11.2836 14.4004 11.2836 14.4056 11.2385C14.416 11.15 14.4274 11.0617 14.439 10.9734C14.548 10.4281 14.548 10.4281 14.4383 9.9197C14.3405 9.84251 14.289 9.84298 14.1654 9.84402C14.1062 9.84404 14.1062 9.84404 14.0458 9.84405C14.0034 9.84473 13.9609 9.84541 13.9172 9.84611C13.8518 9.84639 13.8518 9.84639 13.7851 9.84667C13.6458 9.84741 13.5066 9.84906 13.3673 9.85073C13.2729 9.85139 13.1785 9.85199 13.0841 9.85253C12.8526 9.85398 12.6211 9.85618 12.3896 9.85894C12.3937 9.64775 12.3984 9.43657 12.4035 9.2254C12.4052 9.15371 12.4067 9.08202 12.4081 9.01034C12.4224 8.27765 12.4224 8.27765 12.5211 7.93103C12.5328 7.88855 12.5446 7.84608 12.5567 7.80232C12.6286 7.67741 12.6906 7.66395 12.8278 7.62431C12.869 7.60946 12.9102 7.5946 12.9527 7.5793C13.246 7.49531 13.5659 7.52089 13.8683 7.51957C13.9425 7.51804 13.9425 7.51804 14.0182 7.51649C14.0855 7.51594 14.0855 7.51594 14.1541 7.51539C14.2768 7.50025 14.2768 7.50025 14.376 7.4255C14.4766 7.27677 14.4734 7.14312 14.4707 6.96964C14.4708 6.91942 14.4708 6.91942 14.4709 6.86818C14.4708 6.79758 14.4703 6.72698 14.4694 6.65639C14.4681 6.54828 14.4685 6.44027 14.4691 6.33216C14.4688 6.2635 14.4684 6.19484 14.468 6.12617C14.4681 6.09386 14.4682 6.06154 14.4684 6.02824C14.4656 5.85337 14.4656 5.85337 14.3903 5.69966C13.5489 5.15521 11.6569 5.71959 11.0205 6.36597Z" fill="#5F7394"/>
</g>
<defs>
<clipPath id="clip0_1786_10007">
<rect width="22.4339" height="22.4339" fill="white" transform="translate(0.472168)"/>
</clipPath>
</defs>
</svg>
