<svg width="16" height="17" viewBox="0 0 16 17" fill="none" xmlns="http://www.w3.org/2000/svg">
<path d="M9.3335 2.5V5.16667C9.3335 5.34348 9.40373 5.51305 9.52876 5.63807C9.65378 5.7631 9.82335 5.83333 10.0002 5.83333H12.6668M9.3335 2.5H4.66683C4.31321 2.5 3.97407 2.64048 3.72402 2.89052C3.47397 3.14057 3.3335 3.47971 3.3335 3.83333V13.1667C3.3335 13.5203 3.47397 13.8594 3.72402 14.1095C3.97407 14.3595 4.31321 14.5 4.66683 14.5H11.3335C11.6871 14.5 12.0263 14.3595 12.2763 14.1095C12.5264 13.8594 12.6668 13.5203 12.6668 13.1667V5.83333M9.3335 2.5L12.6668 5.83333M6.66683 9.16667L6.00016 10.5L6.66683 11.8333M9.3335 9.16667L10.0002 10.5L9.3335 11.8333" stroke="#64748b" stroke-linecap="round" stroke-linejoin="round"/>
</svg>
