<svg width="10" height="3" viewBox="0 0 10 3" fill="none" xmlns="http://www.w3.org/2000/svg">
<path d="M1.65341 2.06818C1.44318 2.06818 1.26278 1.9929 1.11222 1.84233C0.961648 1.69176 0.886364 1.51136 0.886364 1.30114C0.886364 1.09091 0.961648 0.910511 1.11222 0.759943C1.26278 0.609375 1.44318 0.534091 1.65341 0.534091C1.86364 0.534091 2.04403 0.609375 2.1946 0.759943C2.34517 0.910511 2.42045 1.09091 2.42045 1.30114C2.42045 1.44034 2.38494 1.56818 2.31392 1.68466C2.24574 1.80114 2.15341 1.89489 2.03693 1.96591C1.9233 2.03409 1.79545 2.06818 1.65341 2.06818ZM4.9581 2.06818C4.74787 2.06818 4.56747 1.9929 4.4169 1.84233C4.26634 1.69176 4.19105 1.51136 4.19105 1.30114C4.19105 1.09091 4.26634 0.910511 4.4169 0.759943C4.56747 0.609375 4.74787 0.534091 4.9581 0.534091C5.16832 0.534091 5.34872 0.609375 5.49929 0.759943C5.64986 0.910511 5.72514 1.09091 5.72514 1.30114C5.72514 1.44034 5.68963 1.56818 5.61861 1.68466C5.55043 1.80114 5.4581 1.89489 5.34162 1.96591C5.22798 2.03409 5.10014 2.06818 4.9581 2.06818ZM8.26278 2.06818C8.05256 2.06818 7.87216 1.9929 7.72159 1.84233C7.57102 1.69176 7.49574 1.51136 7.49574 1.30114C7.49574 1.09091 7.57102 0.910511 7.72159 0.759943C7.87216 0.609375 8.05256 0.534091 8.26278 0.534091C8.47301 0.534091 8.65341 0.609375 8.80398 0.759943C8.95455 0.910511 9.02983 1.09091 9.02983 1.30114C9.02983 1.44034 8.99432 1.56818 8.9233 1.68466C8.85511 1.80114 8.76278 1.89489 8.64631 1.96591C8.53267 2.03409 8.40483 2.06818 8.26278 2.06818Z" fill="#6F7C95" stroke="#9EB1D5"/>
</svg>
