<svg width="20" height="20" viewBox="0 0 20 20" fill="none" xmlns="http://www.w3.org/2000/svg">
<path d="M11.6665 2.5V5.83333C11.6665 6.05435 11.7543 6.26631 11.9106 6.42259C12.0669 6.57887 12.2788 6.66667 12.4998 6.66667H15.8332M11.6665 2.5H5.83317C5.39114 2.5 4.96722 2.67559 4.65466 2.98816C4.3421 3.30072 4.1665 3.72464 4.1665 4.16667V15.8333C4.1665 16.2754 4.3421 16.6993 4.65466 17.0118C4.96722 17.3244 5.39114 17.5 5.83317 17.5H14.1665C14.6085 17.5 15.0325 17.3244 15.345 17.0118C15.6576 16.6993 15.8332 16.2754 15.8332 15.8333V6.66667M11.6665 2.5L15.8332 6.66667M9.99984 14.1667V9.16667M9.99984 14.1667L7.9165 12.0833M9.99984 14.1667L12.0832 12.0833" stroke="#9EB1D5" stroke-width="1.6" stroke-linecap="round" stroke-linejoin="round"/>
</svg>
