<svg xmlns="http://www.w3.org/2000/svg" width="20" height="20" viewBox="0 0 20 20" fill="none">
    <path
        d="M11.6665 3.27783V6.61117C11.6665 6.83218 11.7543 7.04414 11.9106 7.20042C12.0669 7.3567 12.2788 7.4445 12.4998 7.4445H15.8332M11.6665 3.27783H5.83317C5.39114 3.27783 4.96722 3.45343 4.65466 3.76599C4.3421 4.07855 4.1665 4.50247 4.1665 4.9445V16.6112C4.1665 17.0532 4.3421 17.4771 4.65466 17.7897C4.96722 18.1022 5.39114 18.2778 5.83317 18.2778H14.1665C14.6085 18.2778 15.0325 18.1022 15.345 17.7897C15.6576 17.4771 15.8332 17.0532 15.8332 16.6112V7.4445M11.6665 3.27783L15.8332 7.4445"
        stroke="#9EB1D5" stroke-width="1.6" stroke-linecap="round" stroke-linejoin="round" />
</svg>