<svg width="12" height="12" viewBox="0 0 12 12" fill="none" xmlns="http://www.w3.org/2000/svg">
<path d="M4.5 1.5C4.6099 1.49999 4.71674 1.53619 4.804 1.603L4.854 1.6465L6.207 3H9.5C9.88261 2.99998 10.2508 3.14616 10.5291 3.40864C10.8075 3.67112 10.9751 4.03005 10.9975 4.412L11 4.5V8.5C11 8.88261 10.8538 9.25076 10.5914 9.52913C10.3289 9.8075 9.96995 9.97505 9.588 9.9975L9.5 10H2.5C2.11739 10 1.74924 9.85384 1.47087 9.59136C1.1925 9.32888 1.02495 8.96995 1.0025 8.588L1 8.5V3C0.999979 2.61739 1.14616 2.24924 1.40864 1.97087C1.67112 1.6925 2.03005 1.52495 2.412 1.5025L2.5 1.5H4.5Z" fill="#9EB1D5" stroke="#9EB1D5"/>
</svg>
