<svg width="122" height="122" viewBox="0 0 122 122" fill="none" xmlns="http://www.w3.org/2000/svg">
<path d="M60.9994 81.3333C63.6957 81.3333 66.2816 82.4045 68.1883 84.3111C70.0949 86.2177 71.166 88.8036 71.166 91.5C71.166 94.1964 70.0949 96.7823 68.1883 98.6889C66.2816 100.596 63.6957 101.667 60.9994 101.667C58.303 101.667 55.7171 100.596 53.8104 98.6889C51.9038 96.7823 50.8327 94.1964 50.8327 91.5C50.8327 88.8036 51.9038 86.2177 53.8104 84.3111C55.7171 82.4045 58.303 81.3333 60.9994 81.3333ZM60.9994 81.3333V61M35.5827 40.6667C32.8863 40.6667 30.3004 39.5955 28.3938 37.6889C26.4871 35.7823 25.416 33.1964 25.416 30.5C25.416 27.8036 26.4871 25.2177 28.3938 23.3111C30.3004 21.4045 32.8863 20.3333 35.5827 20.3333C38.2791 20.3333 40.865 21.4045 42.7716 23.3111C44.6782 25.2177 45.7493 27.8036 45.7493 30.5C45.7493 33.1964 44.6782 35.7823 42.7716 37.6889C40.865 39.5955 38.2791 40.6667 35.5827 40.6667ZM35.5827 40.6667V50.8333C35.5827 53.5297 36.6538 56.1156 38.5604 58.0223C40.467 59.9289 43.053 61 45.7493 61H76.2494C78.9457 61 81.5316 59.9289 83.4383 58.0223C85.3449 56.1156 86.416 53.5297 86.416 50.8333V40.6667M86.416 40.6667C83.7196 40.6667 81.1337 39.5955 79.2271 37.6889C77.3205 35.7823 76.2494 33.1964 76.2494 30.5C76.2494 27.8036 77.3205 25.2177 79.2271 23.3111C81.1337 21.4045 83.7196 20.3333 86.416 20.3333C89.1124 20.3333 91.6983 21.4045 93.6049 23.3111C95.5116 25.2177 96.5827 27.8036 96.5827 30.5C96.5827 33.1964 95.5116 35.7823 93.6049 37.6889C91.6983 39.5955 89.1124 40.6667 86.416 40.6667Z" stroke="#9EB1D5" stroke-width="6" stroke-linecap="round" stroke-linejoin="round"/>
</svg>
