<svg width="26" height="25" viewBox="0 0 26 25" fill="none" xmlns="http://www.w3.org/2000/svg">
<g id="github-mark 1" clip-path="url(#clip0_9218_16995)">
<path id="Vector" fill-rule="evenodd" clip-rule="evenodd" d="M12.9628 0.332031C6.07117 0.332031 0.5 5.83203 0.5 12.6363C0.5 18.0753 4.06964 22.6793 9.02168 24.3088C9.64082 24.4313 9.8676 24.044 9.8676 23.7183C9.8676 23.433 9.84719 22.4553 9.84719 21.4365C6.38036 22.17 5.65842 19.9698 5.65842 19.9698C5.10128 18.5438 4.27577 18.1773 4.27577 18.1773C3.14107 17.4235 4.35842 17.4235 4.35842 17.4235C5.61709 17.505 6.27755 18.6865 6.27755 18.6865C7.39158 20.5605 9.18673 20.031 9.90893 19.705C10.012 18.9105 10.3423 18.3605 10.6931 18.055C7.92806 17.7698 5.01888 16.7105 5.01888 11.9843C5.01888 10.6398 5.51378 9.53978 6.29796 8.68428C6.17423 8.37878 5.74082 7.11553 6.42194 5.42478C6.42194 5.42478 7.47423 5.09878 9.84694 6.68778C10.8628 6.41845 11.9104 6.28143 12.9628 6.28028C14.0151 6.28028 15.0878 6.42303 16.0783 6.68778C18.4513 5.09878 19.5036 5.42478 19.5036 5.42478C20.1847 7.11553 19.751 8.37878 19.6273 8.68428C20.4321 9.53978 20.9066 10.6398 20.9066 11.9843C20.9066 16.7105 17.9974 17.7493 15.2117 18.055C15.6658 18.442 16.0577 19.1753 16.0577 20.3365C16.0577 21.9865 16.0372 23.3108 16.0372 23.718C16.0372 24.044 16.2643 24.4313 16.8832 24.309C21.8352 22.679 25.4048 18.0753 25.4048 12.6363C25.4253 5.83203 19.8337 0.332031 12.9628 0.332031Z" fill="#24292F"/>
</g>
<defs>
<clipPath id="clip0_9218_16995">
<rect width="25" height="24" fill="white" transform="translate(0.5 0.332031)"/>
</clipPath>
</defs>
</svg>
