<svg width="24" height="23" viewBox="0 0 24 23" fill="none" xmlns="http://www.w3.org/2000/svg">
<g clip-path="url(#clip0_1786_10025)">
<path d="M11.8667 -0.0135056C11.9113 -0.0134112 11.9559 -0.0133167 12.0019 -0.0132195C12.6419 -0.0110435 13.2697 -5.20246e-05 13.8983 0.13161C13.9411 0.140314 13.9838 0.149018 14.0278 0.157985C16.1473 0.601356 18.0744 1.56149 19.6373 3.06679C19.6806 3.10833 19.6806 3.10833 19.7248 3.1507C20.1405 3.55131 20.5234 3.95861 20.8639 4.42485C20.9015 4.47528 20.9391 4.5257 20.9767 4.57613C21.2412 4.93497 21.476 5.30795 21.6963 5.6953C21.7122 5.72298 21.7282 5.75066 21.7447 5.77918C22.6912 7.43287 23.119 9.30642 23.1118 11.1988C23.1117 11.2434 23.1117 11.2879 23.1116 11.3339C23.1094 11.9739 23.0984 12.6018 22.9667 13.2304C22.9537 13.2944 22.9537 13.2944 22.9404 13.3598C22.497 15.4793 21.5368 17.4064 20.0316 18.9693C20.0039 18.9982 19.9762 19.0271 19.9476 19.0568C19.547 19.4725 19.1397 19.8554 18.6735 20.1959C18.6231 20.2335 18.5726 20.2711 18.5222 20.3087C18.1634 20.5732 17.7909 20.809 17.403 21.0283C17.3721 21.0459 17.3411 21.0635 17.3092 21.0817C16.2956 21.6523 15.1929 22.0356 14.0544 22.2686C14.0229 22.2751 13.9914 22.2816 13.959 22.2882C13.3161 22.4104 12.6797 22.4455 12.0265 22.444C11.8977 22.4439 11.769 22.4449 11.6402 22.446C11.0544 22.448 10.4894 22.3952 9.91177 22.2988C9.83705 22.2864 9.83705 22.2864 9.76082 22.2738C7.86533 21.9333 6.067 21.0577 4.61093 19.8017C4.57829 19.7739 4.54565 19.7461 4.51202 19.7175C3.92038 19.2 3.36527 18.6415 2.90239 18.0055C2.86487 17.9551 2.82734 17.9048 2.78979 17.8544C2.52518 17.4956 2.28935 17.123 2.07003 16.7351C2.05241 16.7041 2.03479 16.6731 2.01664 16.6412C1.44601 15.6277 1.06274 14.5249 0.829698 13.3864C0.823242 13.355 0.816787 13.3235 0.810136 13.291C0.679855 12.6056 0.651813 11.9277 0.654463 11.2316C0.654558 11.187 0.654652 11.1424 0.654749 11.0965C0.656925 10.4565 0.667917 9.82861 0.799579 9.19999C0.808283 9.15728 0.816987 9.11458 0.825954 9.07057C1.26932 6.95103 2.22946 5.02397 3.73476 3.46106C3.76245 3.43218 3.79014 3.40329 3.81867 3.37353C4.21928 2.95786 4.62658 2.57498 5.09282 2.23442C5.14325 2.19683 5.19367 2.15924 5.2441 2.12165C5.60287 1.85715 5.97536 1.62134 6.36327 1.40206C6.39425 1.38444 6.42523 1.36682 6.45716 1.34867C7.47068 0.778042 8.5734 0.394768 9.71189 0.161729C9.74338 0.155273 9.77488 0.148818 9.80733 0.142167C10.4928 0.0118863 11.1706 -0.0161561 11.8667 -0.0135056ZM5.35567 6.7029C5.52022 6.89487 5.68321 7.08166 5.85868 7.26265C5.88135 7.28616 5.90403 7.30968 5.9274 7.33391C6.00253 7.41176 6.0778 7.48947 6.15308 7.56717C6.17958 7.59457 6.20608 7.62198 6.23339 7.65021C6.7557 8.19036 7.2816 8.72698 7.80875 9.2624C8.14378 9.60282 8.47766 9.94423 8.80894 10.2883C9.09879 10.5894 9.39063 10.8883 9.68499 11.185C9.84037 11.3417 9.99462 11.4992 10.1465 11.6593C10.8835 12.4846 10.8835 12.4846 11.879 12.8632C12.6685 12.8201 13.2665 12.0335 13.7712 11.503C13.9331 11.3341 14.0983 11.1685 14.2631 11.0025C14.5738 10.6884 14.8815 10.3716 15.1883 10.0536C15.5379 9.69145 15.8909 9.33274 16.2442 8.97421C16.7639 8.44657 17.2823 7.91765 17.7975 7.3856C17.8533 7.32801 17.9091 7.27045 17.965 7.21293C18.0408 7.13479 18.1165 7.0565 18.1921 6.97816C18.2257 6.94358 18.2257 6.94358 18.26 6.9083C18.3647 6.81989 18.3647 6.81989 18.4106 6.7029C14.1025 6.7029 9.79436 6.7029 5.35567 6.7029ZM4.78616 7.31622C4.78616 10.0052 4.78616 12.6942 4.78616 15.4646C5.0362 15.2513 5.0362 15.2513 5.27273 15.0271C5.32091 14.979 5.32091 14.979 5.37007 14.93C5.4042 14.8957 5.43832 14.8614 5.47348 14.8261C5.51028 14.7893 5.54707 14.7525 5.58497 14.7146C5.68496 14.6146 5.78485 14.5145 5.88469 14.4143C5.98938 14.3094 6.0942 14.2045 6.19901 14.0997C6.39706 13.9015 6.595 13.7032 6.7929 13.5048C7.01838 13.2789 7.24398 13.053 7.46959 12.8272C7.93332 12.363 8.39689 11.8987 8.86036 11.4342C8.79794 11.2922 8.72228 11.1976 8.61282 11.0882C8.57959 11.0548 8.54635 11.0214 8.51212 10.987C8.47563 10.9507 8.43915 10.9145 8.40156 10.8772C8.34396 10.8194 8.34396 10.8194 8.2852 10.7606C8.18001 10.6552 8.07462 10.5501 7.96914 10.4451C7.85886 10.3352 7.74882 10.225 7.63874 10.115C7.45398 9.93023 7.26905 9.74568 7.08401 9.56124C6.8698 9.34772 6.65582 9.13397 6.44197 8.92009C6.23642 8.71452 6.03075 8.50907 5.82501 8.30369C5.73734 8.21618 5.64971 8.12863 5.56211 8.04105C5.44003 7.91903 5.31777 7.79719 5.19549 7.67537C5.15891 7.63878 5.12234 7.60219 5.08466 7.56449C5.05155 7.53157 5.01844 7.49864 4.98433 7.46472C4.95541 7.43588 4.92649 7.40703 4.89669 7.37731C4.83966 7.31129 4.83966 7.31129 4.78616 7.31622ZM18.868 7.37916C18.8235 7.42375 18.8235 7.42375 18.7781 7.46923C18.7441 7.50314 18.7101 7.53705 18.6751 7.57199C18.6376 7.60968 18.6001 7.64737 18.5614 7.6862C18.5221 7.72551 18.4828 7.76482 18.4422 7.80532C18.3341 7.91347 18.226 8.02176 18.118 8.13007C18.0053 8.24311 17.8924 8.35603 17.7795 8.46896C17.5656 8.68298 17.3519 8.89711 17.1381 9.11129C16.8948 9.35504 16.6515 9.59868 16.4081 9.8423C15.9072 10.3436 15.4065 10.8451 14.9059 11.3466C14.9684 11.4886 15.044 11.5832 15.1535 11.6926C15.1867 11.726 15.22 11.7594 15.2542 11.7939C15.3089 11.8482 15.3089 11.8482 15.3647 11.9037C15.4031 11.9422 15.4415 11.9806 15.4811 12.0203C15.5863 12.1256 15.6917 12.2307 15.7972 12.3358C15.9074 12.4457 16.0175 12.5558 16.1276 12.6659C16.3123 12.8506 16.4973 13.0352 16.6823 13.2196C16.8965 13.4331 17.1105 13.6469 17.3243 13.8607C17.5299 14.0663 17.7356 14.2718 17.9413 14.4771C18.029 14.5647 18.1166 14.6522 18.2042 14.7398C18.3263 14.8618 18.4485 14.9836 18.5708 15.1055C18.6074 15.1421 18.644 15.1786 18.6816 15.2164C18.7148 15.2493 18.7479 15.2822 18.782 15.3161C18.8109 15.345 18.8398 15.3738 18.8696 15.4035C18.9266 15.4695 18.9266 15.4695 18.9801 15.4646C18.9801 12.7756 18.9801 10.0867 18.9801 7.31622C18.9262 7.31127 18.9262 7.31127 18.868 7.37916ZM9.28324 12.101C9.25184 12.1323 9.22045 12.1635 9.18811 12.1958C9.15345 12.2305 9.11878 12.2653 9.08307 12.3011C9.02858 12.3554 9.02858 12.3554 8.97299 12.4109C8.87308 12.5107 8.77327 12.6105 8.6735 12.7104C8.56932 12.8147 8.46503 12.9189 8.36075 13.0231C8.18563 13.1981 8.0106 13.3733 7.83562 13.5485C7.63301 13.7513 7.43025 13.954 7.2274 14.1566C7.05358 14.3302 6.87984 14.5039 6.70617 14.6777C6.6023 14.7817 6.4984 14.8856 6.39442 14.9894C6.2786 15.1051 6.16292 15.221 6.04727 15.3369C6.01252 15.3715 5.97777 15.4062 5.94197 15.4419C5.9107 15.4733 5.87943 15.5047 5.84721 15.537C5.81981 15.5644 5.79241 15.5919 5.76417 15.6201C5.70122 15.6747 5.70122 15.6747 5.70614 15.7275C9.78297 15.7275 13.8598 15.7275 18.0602 15.7275C17.8525 15.4834 17.8525 15.4834 17.6343 15.2525C17.6048 15.223 17.5754 15.1935 17.545 15.163C17.5136 15.1318 17.4821 15.1005 17.4498 15.0683C17.416 15.0345 17.3822 15.0007 17.3474 14.9659C17.2365 14.8551 17.1256 14.7444 17.0146 14.6338C16.9373 14.5566 16.8601 14.4795 16.7829 14.4023C16.5804 14.1999 16.3777 13.9977 16.1749 13.7954C15.9678 13.5888 15.7608 13.382 15.5538 13.1752C15.1482 12.77 14.7423 12.3649 14.3364 11.9599C14.2882 12.0008 14.2401 12.0418 14.192 12.0827C14.1518 12.1169 14.1518 12.1169 14.1107 12.1518C13.9827 12.264 13.8636 12.3844 13.7442 12.5057C13.7185 12.5314 13.6929 12.5572 13.6665 12.5838C13.5858 12.665 13.5052 12.7464 13.4247 12.8279C13.3177 12.936 13.2106 13.044 13.1035 13.1518C13.0668 13.1891 13.0668 13.1891 13.0293 13.2271C12.7362 13.5221 12.4184 13.4653 12.0233 13.4696C11.9413 13.4707 11.8593 13.4725 11.7773 13.475C11.0082 13.4976 11.0082 13.4976 10.8141 13.3329C10.7604 13.2705 10.7081 13.207 10.6565 13.1428C10.5869 13.0712 10.5157 13.0016 10.4444 12.9318C10.3647 12.8537 10.2859 12.7747 10.2074 12.6953C10.1809 12.6686 10.1544 12.6418 10.1271 12.6143C10.1003 12.5872 10.0735 12.5601 10.0459 12.5322C9.93887 12.424 9.83167 12.3159 9.72438 12.2079C9.69983 12.183 9.67529 12.1581 9.65 12.1324C9.59205 12.0741 9.53298 12.0169 9.47368 11.9599C9.39155 11.9599 9.33792 12.0464 9.28324 12.101Z" fill="#5F7394"/>
</g>
<defs>
<clipPath id="clip0_1786_10025">
<rect width="22.43" height="22.43" fill="white" transform="translate(0.667969)"/>
</clipPath>
</defs>
</svg>
