<svg width="20" height="20" viewBox="0 0 20 20" fill="none" xmlns="http://www.w3.org/2000/svg">
<path d="M10 13.3333V13.3417M10 10.8333C10.3748 10.8345 10.739 10.7092 11.0339 10.4779C11.3287 10.2465 11.537 9.9225 11.625 9.55819C11.7131 9.19389 11.6758 8.81054 11.5191 8.47006C11.3625 8.12957 11.0956 7.85183 10.7617 7.68167C10.4301 7.51185 10.0509 7.45919 9.68567 7.53227C9.32043 7.60535 8.99066 7.79987 8.75 8.08417M10 2.5C16 2.5 17.5 4 17.5 10C17.5 16 16 17.5 10 17.5C4 17.5 2.5 16 2.5 10C2.5 4 4 2.5 10 2.5Z" stroke="#9EB1D5" stroke-width="1.6" stroke-linecap="round" stroke-linejoin="round"/>
</svg>
