<svg width="16" height="17" viewBox="0 0 16 17" fill="none" xmlns="http://www.w3.org/2000/svg">
<g id="info-circle">
<path id="Vector" d="M8 6.38709H8.00667M7.33333 8.38709H8V11.0538H8.66667M2 8.38709C2 9.17502 2.15519 9.95523 2.45672 10.6832C2.75825 11.4111 3.20021 12.0726 3.75736 12.6297C4.31451 13.1869 4.97595 13.6288 5.7039 13.9304C6.43185 14.2319 7.21207 14.3871 8 14.3871C8.78793 14.3871 9.56815 14.2319 10.2961 13.9304C11.0241 13.6288 11.6855 13.1869 12.2426 12.6297C12.7998 12.0726 13.2418 11.4111 13.5433 10.6832C13.8448 9.95523 14 9.17502 14 8.38709C14 6.79579 13.3679 5.26966 12.2426 4.14444C11.1174 3.01923 9.5913 2.38708 8 2.38708C6.4087 2.38708 4.88258 3.01923 3.75736 4.14444C2.63214 5.26966 2 6.79579 2 8.38709Z" stroke="#9EB1D5" stroke-linecap="round" stroke-linejoin="round"/>
</g>
</svg>
