<svg width="24" height="23" viewBox="0 0 24 23" fill="none" xmlns="http://www.w3.org/2000/svg">
<g clip-path="url(#clip0_1786_10017)">
<path d="M12.0222 -0.0143876C12.0657 -0.0142932 12.1093 -0.0141987 12.1542 -0.0141014C12.7881 -0.0118959 13.4095 0.00112263 14.0322 0.130754C14.075 0.139459 14.1178 0.148164 14.1619 0.157133C16.2817 0.600633 18.209 1.56094 19.7722 3.06644C19.8155 3.10799 19.8155 3.10799 19.8597 3.15038C20.2754 3.55105 20.6584 3.95843 20.999 4.42475C21.0366 4.47518 21.0742 4.52562 21.1118 4.57605C21.3764 4.93496 21.6112 5.308 21.8315 5.69542C21.8475 5.7231 21.8635 5.75079 21.8799 5.77931C22.8217 7.42478 23.2545 9.29408 23.2473 11.1779C23.2472 11.2432 23.2472 11.2432 23.2471 11.3099C23.2451 11.9449 23.2249 12.5632 23.1022 13.188C23.0951 13.2272 23.0881 13.2665 23.0808 13.3069C22.7351 15.2176 21.8724 17.0201 20.6047 18.4898C20.5769 18.5224 20.5491 18.5551 20.5205 18.5887C20.0029 19.1804 19.4443 19.7357 18.8082 20.1986C18.7578 20.2361 18.7074 20.2737 18.6571 20.3112C18.2981 20.5759 17.925 20.8107 17.5375 21.0311C17.5098 21.0471 17.4822 21.0631 17.4536 21.0795C16.3132 21.7323 15.0242 22.1549 13.7255 22.3456C13.6728 22.3533 13.6201 22.3611 13.5659 22.3691C13.0525 22.4393 12.5425 22.4508 12.0249 22.4497C11.9817 22.4496 11.9384 22.4496 11.8939 22.4496C9.04781 22.4413 6.31308 21.3424 4.26119 19.3661C4.2323 19.3384 4.20341 19.3107 4.17365 19.2822C3.75791 18.8815 3.37496 18.4741 3.03434 18.0078C2.99674 17.9574 2.95914 17.9069 2.92155 17.8565C2.65698 17.4976 2.42218 17.1245 2.20183 16.7371C2.18586 16.7094 2.16989 16.6818 2.15343 16.6532C1.49925 15.5103 1.08391 14.2249 0.887341 12.9251C0.875734 12.8513 0.875734 12.8513 0.863892 12.7761C0.791293 12.2672 0.782237 11.7626 0.783277 11.2491C0.783301 11.2048 0.783325 11.1604 0.78335 11.1148C0.785135 10.3903 0.82561 9.69275 0.974974 8.98164C0.984131 8.93716 0.993288 8.89267 1.00272 8.84683C1.38734 7.0367 2.21996 5.34399 3.42869 3.94277C3.45647 3.91012 3.48426 3.87748 3.51289 3.84384C4.03041 3.2521 4.5891 2.69689 5.22515 2.23394C5.27554 2.19641 5.32592 2.15887 5.37628 2.12131C5.73521 1.85664 6.10833 1.62182 6.49582 1.40143C6.52351 1.38546 6.55119 1.36949 6.57971 1.35303C7.72028 0.700208 9.00915 0.277825 10.3078 0.0869376C10.3866 0.0752829 10.3866 0.0752829 10.467 0.0633927C10.9852 -0.00796351 11.4997 -0.0164262 12.0222 -0.0143876ZM7.23249 6.75523C6.43847 7.69242 6.39406 8.81069 6.39655 9.9812C6.39649 10.0805 6.39641 10.1798 6.3963 10.2792C6.39617 10.4861 6.39636 10.6931 6.39677 10.9C6.39727 11.1632 6.39698 11.4265 6.39645 11.6897C6.39614 11.8944 6.39624 12.0992 6.39647 12.3039C6.39652 12.4009 6.39645 12.4978 6.39625 12.5948C6.39411 13.8825 6.53622 14.9403 7.46355 15.9128C8.38747 16.7921 9.57805 16.839 10.7816 16.8364C10.8809 16.8365 10.9802 16.8365 11.0796 16.8366C11.2865 16.8368 11.4935 16.8366 11.7004 16.8362C11.9637 16.8357 12.2269 16.836 12.4901 16.8365C12.6948 16.8368 12.8996 16.8367 13.1043 16.8365C13.2013 16.8364 13.2982 16.8365 13.3952 16.8367C14.6829 16.8388 15.7408 16.6967 16.7132 15.7694C17.5925 14.8455 17.6394 13.6549 17.6368 12.4513C17.6369 12.352 17.6369 12.2527 17.6371 12.1534C17.6372 11.9464 17.637 11.7395 17.6366 11.5325C17.6361 11.2693 17.6364 11.0061 17.6369 10.7428C17.6372 10.5381 17.6371 10.3334 17.6369 10.1287C17.6368 10.0317 17.6369 9.93471 17.6371 9.83773C17.6392 8.55 17.4971 7.4922 16.5698 6.51971C15.6513 5.64559 14.4757 5.59367 13.2791 5.59615C13.1777 5.59609 13.0762 5.59601 12.9748 5.5959C12.7633 5.59577 12.5517 5.59595 12.3402 5.59636C12.0709 5.59686 11.8017 5.59658 11.5324 5.59605C11.3232 5.59573 11.1141 5.59584 10.9049 5.59606C10.8057 5.59612 10.7065 5.59605 10.6073 5.59584C9.29499 5.59372 8.18432 5.75505 7.23249 6.75523Z" fill="#5F7394"/>
<path d="M10.0587 6.6913C10.1292 6.69096 10.1292 6.69096 10.201 6.69062C10.3548 6.69002 10.5085 6.69005 10.6623 6.69015C10.7701 6.68998 10.878 6.68979 10.9859 6.68959C11.2114 6.68926 11.437 6.68927 11.6626 6.6895C11.9503 6.68976 12.238 6.68901 12.5257 6.688C12.7484 6.68735 12.971 6.68731 13.1937 6.68745C13.2997 6.68743 13.4057 6.6872 13.5117 6.68676C14.4025 6.68349 15.1916 6.70577 15.8865 7.33593C16.3828 7.86623 16.5438 8.50922 16.5421 9.21812C16.5423 9.26599 16.5425 9.31385 16.5428 9.36317C16.5434 9.52022 16.5433 9.67726 16.5432 9.83432C16.5434 9.94431 16.5436 10.0543 16.5438 10.1643C16.5441 10.3945 16.5441 10.6246 16.5439 10.8548C16.5436 11.0902 16.544 11.3255 16.5448 11.5609C16.5458 11.8464 16.5461 12.1318 16.5459 12.4173C16.546 12.5255 16.5462 12.6338 16.5466 12.742C16.5498 13.6313 16.53 14.3819 15.8872 15.0609C15.1669 15.7595 14.3362 15.7497 13.3862 15.7469C13.2764 15.747 13.1666 15.7472 13.0568 15.7473C12.7982 15.7475 12.5396 15.7471 12.281 15.7464C12.0757 15.7459 11.8705 15.7461 11.6652 15.7466C11.3805 15.7474 11.0957 15.7475 10.811 15.7471C10.7031 15.747 10.5952 15.7471 10.4873 15.7474C9.60416 15.7494 8.84788 15.7306 8.17518 15.0885C7.6556 14.5576 7.49763 13.9635 7.49684 13.2346C7.49662 13.1868 7.4964 13.1389 7.49618 13.0896C7.49554 12.9316 7.49524 12.7736 7.495 12.6156C7.49475 12.5054 7.49449 12.3951 7.49424 12.2849C7.49384 12.0832 7.49356 11.8815 7.49343 11.6798C7.49324 11.3844 7.49247 11.089 7.4912 10.7935C7.49013 10.5365 7.4898 10.2794 7.48972 10.0224C7.48959 9.91361 7.48924 9.80487 7.48866 9.69614C7.48428 8.80793 7.5073 8.03964 8.1365 7.34689C8.31774 7.17752 8.50887 7.05704 8.72802 6.94432C8.75569 6.93002 8.78336 6.91571 8.81187 6.90097C9.2056 6.71356 9.62903 6.69022 10.0587 6.6913ZM14.451 7.81911C14.2799 8.0196 14.2357 8.13815 14.2395 8.3954C14.2659 8.62265 14.3758 8.76342 14.5501 8.91058C14.768 9.02169 14.9433 9.05292 15.1772 8.97904C15.3868 8.89116 15.5083 8.74681 15.6099 8.54362C15.6337 8.32652 15.6346 8.15491 15.536 7.95757C15.3567 7.75405 15.2152 7.63337 14.939 7.61252C14.7356 7.62631 14.5968 7.67175 14.451 7.81911ZM9.73853 9.41994C9.27804 10.0648 9.03467 10.7961 9.14701 11.5904C9.29311 12.4064 9.67048 13.1021 10.3552 13.591C11.1054 14.0722 11.8684 14.2056 12.7355 14.0162C13.5194 13.8207 14.1427 13.2987 14.5561 12.6127C14.958 11.8951 14.9703 11.1184 14.7774 10.3401C14.5583 9.5906 13.9995 9.00807 13.3315 8.63125C12.0733 8.03254 10.6365 8.34934 9.73853 9.41994Z" fill="#5F7394"/>
<path d="M12.9814 9.66983C13.4543 9.98939 13.7013 10.3967 13.8131 10.9539C13.874 11.4428 13.7542 11.8994 13.479 12.3067C13.1349 12.742 12.6952 12.9614 12.1464 13.0298C11.6455 13.0503 11.2009 12.8958 10.8091 12.5862C10.4161 12.2233 10.2201 11.75 10.1982 11.2168C10.2197 10.707 10.4004 10.2766 10.7459 9.90226C11.3677 9.33149 12.2543 9.2616 12.9814 9.66983Z" fill="#5F7394"/>
</g>
<defs>
<clipPath id="clip0_1786_10017">
<rect width="22.4339" height="22.4339" fill="white" transform="translate(0.799805)"/>
</clipPath>
</defs>
</svg>
