<svg width="21" height="20" viewBox="0 0 21 20" fill="none" xmlns="http://www.w3.org/2000/svg">
    <g id="device-desktop-code">
        <path id="Vector"
            d="M10.9167 14.1666C11.3769 14.1666 11.75 13.7935 11.75 13.3333C11.75 12.873 11.3769 12.4999 10.9167 12.4999V14.1666ZM3 12.4999H2.16667H3ZM3.83333 3.33325V4.16659V3.33325ZM17.1667 10.8333C17.1667 11.2935 17.5398 11.6666 18 11.6666C18.4602 11.6666 18.8333 11.2935 18.8333 10.8333H17.1667ZM6.33333 15.8333C5.8731 15.8333 5.5 16.2063 5.5 16.6666C5.5 17.1268 5.8731 17.4999 6.33333 17.4999V15.8333ZM9.66667 17.4999C10.1269 17.4999 10.5 17.1268 10.5 16.6666C10.5 16.2063 10.1269 15.8333 9.66667 15.8333V17.4999ZM8.83333 13.3333C8.83333 12.873 8.46024 12.4999 8 12.4999C7.53976 12.4999 7.16667 12.873 7.16667 13.3333H8.83333ZM7.16667 16.6666C7.16667 17.1268 7.53976 17.4999 8 17.4999C8.46024 17.4999 8.83333 17.1268 8.83333 16.6666H7.16667ZM16.5774 16.9107C16.252 17.2361 16.252 17.7637 16.5774 18.0892C16.9028 18.4146 17.4305 18.4146 17.7559 18.0892L16.5774 16.9107ZM18.8333 15.8333L19.4226 16.4225C19.748 16.0971 19.748 15.5694 19.4226 15.244L18.8333 15.8333ZM17.7559 13.5773C17.4305 13.2519 16.9028 13.2519 16.5774 13.5773C16.252 13.9028 16.252 14.4304 16.5774 14.7558L17.7559 13.5773ZM15.2559 14.7558C15.5814 14.4304 15.5814 13.9028 15.2559 13.5773C14.9305 13.2519 14.4028 13.2519 14.0774 13.5773L15.2559 14.7558ZM13 15.8333L12.4107 15.244C12.0853 15.5694 12.0853 16.0971 12.4107 16.4225L13 15.8333ZM14.0774 18.0892C14.4028 18.4146 14.9305 18.4146 15.2559 18.0892C15.5814 17.7637 15.5814 17.2361 15.2559 16.9107L14.0774 18.0892ZM10.9167 12.4999H3.83333V14.1666H10.9167V12.4999ZM3.83333 12.4999H3.83333L2.65482 13.6784C2.96738 13.991 3.39131 14.1666 3.83333 14.1666V12.4999ZM3.83333 12.4999H3.83333H2.16667C2.16667 12.9419 2.34226 13.3659 2.65482 13.6784L3.83333 12.4999ZM3.83333 12.4999V4.16659H2.16667V12.4999H3.83333ZM3.83333 4.16659L3.83333 4.16659L2.65482 2.98807C2.34226 3.30063 2.16667 3.72456 2.16667 4.16659H3.83333ZM3.83333 4.16659L3.83333 4.16659V2.49992C3.39131 2.49992 2.96738 2.67551 2.65482 2.98807L3.83333 4.16659ZM3.83333 4.16659H17.1667V2.49992H3.83333V4.16659ZM17.1667 4.16659L17.1667 4.16659L18.3452 2.98807C18.0326 2.67551 17.6087 2.49992 17.1667 2.49992V4.16659ZM17.1667 4.16659L17.1667 4.16659H18.8333C18.8333 3.72456 18.6577 3.30064 18.3452 2.98807L17.1667 4.16659ZM17.1667 4.16659V10.8333H18.8333V4.16659H17.1667ZM6.33333 17.4999H9.66667V15.8333H6.33333V17.4999ZM7.16667 13.3333V16.6666H8.83333V13.3333H7.16667ZM17.7559 18.0892L19.4226 16.4225L18.2441 15.244L16.5774 16.9107L17.7559 18.0892ZM19.4226 15.244L17.7559 13.5773L16.5774 14.7558L18.2441 16.4225L19.4226 15.244ZM14.0774 13.5773L12.4107 15.244L13.5893 16.4225L15.2559 14.7558L14.0774 13.5773ZM12.4107 16.4225L14.0774 18.0892L15.2559 16.9107L13.5893 15.244L12.4107 16.4225Z"
            fill="#ffffff" />
    </g>
</svg>