<svg width="1189" height="330" viewBox="0 0 1189 330" fill="none" xmlns="http://www.w3.org/2000/svg">
<path d="M536.673 178.736C536.673 206.786 513.933 229.526 485.883 229.526C457.833 229.526 435.093 206.786 435.093 178.736C435.093 150.686 457.833 127.946 485.883 127.946C513.933 127.946 536.673 150.686 536.673 178.736ZM463.393 178.736C463.393 191.156 473.463 201.226 485.883 201.226C498.303 201.226 508.373 191.156 508.373 178.736C508.373 166.316 498.303 156.246 485.883 156.246C473.463 156.246 463.393 166.316 463.393 178.736Z" fill="white"/>
<path d="M650.153 178.736C650.153 206.786 627.413 229.526 599.363 229.526C571.313 229.526 548.573 206.786 548.573 178.736C548.573 150.686 571.313 127.946 599.363 127.946C627.413 127.946 650.153 150.686 650.153 178.736ZM576.873 178.736C576.873 191.156 586.943 201.226 599.363 201.226C611.783 201.226 621.853 191.156 621.853 178.736C621.853 166.316 611.783 156.246 599.363 156.246C586.943 156.246 576.873 166.316 576.873 178.736Z" fill="white"/>
<path fill-rule="evenodd" clip-rule="evenodd" d="M749.643 100.756C741.863 100.756 735.553 107.066 735.553 114.846V132.956C728.743 129.566 721.063 127.656 712.943 127.656C684.893 127.656 662.153 150.396 662.153 178.446C662.153 206.496 684.893 229.236 712.943 229.236C721.963 229.236 730.443 226.886 737.783 222.756C740.293 226.656 744.663 229.236 749.643 229.236C757.423 229.236 763.733 222.926 763.733 215.146V114.846C763.733 107.066 757.423 100.756 749.643 100.756ZM712.943 200.936C700.523 200.936 690.453 190.866 690.453 178.446C690.453 166.026 700.523 155.956 712.943 155.956C725.363 155.956 735.433 166.026 735.433 178.446C735.433 190.866 725.363 200.936 712.943 200.936Z" fill="white"/>
<path d="M803.913 114.533C803.913 106.751 797.605 100.443 789.823 100.443C782.042 100.443 775.733 106.751 775.733 114.533V215.146C775.733 222.927 782.042 229.236 789.823 229.236C797.605 229.236 803.913 222.927 803.913 215.146V114.533Z" fill="white"/>
<path d="M931.381 201.282C939.161 201.282 945.471 207.592 945.471 215.372C945.471 223.162 939.161 229.462 931.381 229.462C923.601 229.462 917.291 223.152 917.291 215.372C917.291 207.582 923.601 201.282 931.381 201.282Z" fill="white"/>
<path d="M904.754 209.067C907.084 215.407 903.854 224.097 897.354 225.917C891.974 227.417 886.624 228.437 881.294 228.957C872.474 229.817 864.104 229.327 856.194 227.487C848.414 225.767 841.474 222.767 835.374 218.467C829.274 214.177 824.474 208.716 820.974 202.087C817.604 195.457 815.914 187.797 815.914 179.087C815.914 171.847 817.144 165.227 819.614 159.207C822.204 153.077 825.844 147.737 830.514 143.197C835.184 138.537 840.694 134.977 847.054 132.527C853.414 129.947 860.354 128.667 867.874 128.667C874.614 128.667 880.714 129.707 886.164 131.797C891.614 133.887 896.344 136.827 900.364 140.627C904.384 144.307 907.624 148.727 910.094 153.877C912.554 159.027 914.114 164.677 914.764 170.807C915.964 182.177 905.404 190.317 893.974 190.317H849.384C851.844 194.977 855.934 198.297 861.644 200.257C867.484 202.217 874.354 202.837 882.264 202.097C883.764 201.957 885.284 201.777 886.824 201.557C894.754 200.407 901.994 201.557 904.754 209.087V209.067ZM867.074 155.887C863.314 155.887 859.814 156.867 856.564 158.827C853.454 160.787 851.054 163.797 849.364 167.847H884.584C883.024 163.677 880.694 160.667 877.584 158.827C874.604 156.867 871.094 155.887 867.074 155.887Z" fill="white"/>
<path fill-rule="evenodd" clip-rule="evenodd" d="M1023.12 223.082C1015.81 227.186 1007.39 229.526 998.414 229.526C970.518 229.526 947.905 206.912 947.905 179.017C947.905 151.121 970.518 128.508 998.414 128.508C1007.39 128.508 1015.81 130.848 1023.12 134.951C1025.61 131.075 1029.96 128.508 1034.91 128.508C1042.65 128.508 1048.92 134.781 1048.92 142.519V215.515C1048.92 223.253 1042.65 229.526 1034.91 229.526C1029.96 229.526 1025.61 226.958 1023.12 223.082ZM998.414 201.388C986.058 201.388 976.042 191.372 976.042 179.017C976.042 166.661 986.058 156.645 998.414 156.645C1010.77 156.645 1020.79 166.661 1020.79 179.017C1020.79 191.372 1010.77 201.388 998.414 201.388Z" fill="white"/>
<rect x="1061.03" y="127.882" width="28.0224" height="101.58" rx="14.0112" fill="white"/>
<rect x="1061.03" y="93.228" width="28.0224" height="28.02" rx="14.01" fill="white"/>
<path d="M236.772 202.335C248.453 218.835 295.459 227.315 298.039 180.116C298.235 176.52 298.234 128.966 298.234 114.859" stroke="white" stroke-width="28.02" stroke-linecap="round"/>
<path fill-rule="evenodd" clip-rule="evenodd" d="M338.331 100.756C330.595 100.756 324.323 107.027 324.323 114.763V114.764V215.518C324.323 215.518 324.323 215.518 324.323 215.518C324.323 223.254 330.595 229.526 338.331 229.526H359.733C360.044 229.526 360.351 229.516 360.656 229.496C377.026 229.001 392.621 222.282 404.235 210.667C416.31 198.593 423.093 182.216 423.093 165.14C423.093 148.065 416.31 131.688 404.235 119.614C392.3 107.678 376.16 100.912 359.297 100.758C359.207 100.757 359.116 100.756 359.026 100.756H358.828L358.708 100.756V100.756H338.387L338.331 100.756ZM359.325 201.51C368.749 201.35 377.753 197.537 384.429 190.861C391.251 184.04 395.083 174.788 395.083 165.141C395.083 155.493 391.251 146.241 384.429 139.42C377.735 132.726 368.702 128.91 359.251 128.77C359.176 128.771 359.101 128.771 359.026 128.771H352.339V201.51H359.325Z" fill="white"/>
<g clip-path="url(#clip0_830_554)">
<path d="M117.012 118.105L158.526 159.62C161.466 162.56 161.466 167.326 158.526 170.265L117.012 211.78" stroke="url(#paint0_linear_830_554)" stroke-width="33.4554" stroke-linecap="round" stroke-linejoin="round"/>
<path fill-rule="evenodd" clip-rule="evenodd" d="M105.184 106.277C111.716 99.7441 122.308 99.7441 128.84 106.277L170.355 147.791C179.827 157.264 179.827 172.621 170.355 182.093L128.84 223.608C122.308 230.141 111.716 230.141 105.184 223.608C98.651 217.076 98.651 206.484 105.184 199.952L140.193 164.942L105.184 129.933C98.651 123.401 98.651 112.809 105.184 106.277Z" fill="url(#paint1_linear_830_554)"/>
<mask id="mask0_830_554" style="mask-type:alpha" maskUnits="userSpaceOnUse" x="100" y="101" width="78" height="128">
<path fill-rule="evenodd" clip-rule="evenodd" d="M105.184 106.277C111.716 99.7441 122.308 99.7441 128.84 106.277L170.355 147.791C179.827 157.264 179.827 172.621 170.355 182.093L128.84 223.608C122.308 230.141 111.716 230.141 105.184 223.608C98.651 217.076 98.651 206.484 105.184 199.952L140.193 164.942L105.184 129.933C98.651 123.401 98.651 112.809 105.184 106.277Z" fill="url(#paint2_linear_830_554)"/>
</mask>
<g mask="url(#mask0_830_554)">
<g style="mix-blend-mode:multiply" filter="url(#filter0_f_830_554)">
<path d="M105.479 106.573C111.848 100.203 122.175 100.203 128.544 106.573L170.059 148.087C179.368 157.396 179.368 172.489 170.059 181.798L128.544 223.313C122.175 229.682 111.848 229.682 105.479 223.313C99.11 216.943 99.11 206.617 105.479 200.247L140.489 165.238C140.652 165.075 140.652 164.81 140.489 164.647L105.479 129.638C99.11 123.268 99.11 112.942 105.479 106.573Z" stroke="black" stroke-opacity="0.2" stroke-width="0.836384" stroke-linecap="round" stroke-linejoin="round"/>
</g>
</g>
<mask id="mask1_830_554" style="mask-type:alpha" maskUnits="userSpaceOnUse" x="100" y="101" width="78" height="128">
<path fill-rule="evenodd" clip-rule="evenodd" d="M105.184 106.277C111.716 99.7441 122.308 99.7441 128.84 106.277L170.355 147.791C179.827 157.264 179.827 172.621 170.355 182.093L128.84 223.608C122.308 230.141 111.716 230.141 105.184 223.608C98.651 217.076 98.651 206.484 105.184 199.952L140.193 164.942L105.184 129.933C98.651 123.401 98.651 112.809 105.184 106.277Z" fill="url(#paint3_linear_830_554)"/>
</mask>
<g mask="url(#mask1_830_554)">
<g style="mix-blend-mode:multiply" filter="url(#filter1_f_830_554)">
<path fill-rule="evenodd" clip-rule="evenodd" d="M105.184 199.952C98.651 206.484 98.651 217.076 105.184 223.608C111.716 230.141 122.308 230.141 128.84 223.608L170.355 182.093C179.827 172.621 179.827 157.264 170.355 147.791L128.84 106.277C122.308 99.7441 111.716 99.7441 105.184 106.277C98.651 112.809 98.651 123.401 105.184 129.933L140.193 164.942L105.184 199.952ZM141.376 163.76C142.029 164.413 142.029 165.472 141.376 166.125L106.366 201.134C100.487 207.014 100.487 216.546 106.366 222.425C112.246 228.304 121.778 228.304 127.657 222.425L169.172 180.911C177.991 172.092 177.991 157.793 169.172 148.974L127.657 107.46C121.778 101.58 112.246 101.58 106.366 107.46C100.487 113.339 100.487 122.871 106.366 128.75L141.376 163.76Z" fill="black" fill-opacity="0.1"/>
</g>
</g>
<mask id="mask2_830_554" style="mask-type:alpha" maskUnits="userSpaceOnUse" x="100" y="101" width="78" height="128">
<path fill-rule="evenodd" clip-rule="evenodd" d="M105.184 106.277C111.716 99.7441 122.308 99.7441 128.84 106.277L170.355 147.791C179.827 157.264 179.827 172.621 170.355 182.093L128.84 223.608C122.308 230.141 111.716 230.141 105.184 223.608C98.651 217.076 98.651 206.484 105.184 199.952L140.193 164.942L105.184 129.933C98.651 123.401 98.651 112.809 105.184 106.277Z" fill="url(#paint4_linear_830_554)"/>
</mask>
<g mask="url(#mask2_830_554)">
<g filter="url(#filter2_f_830_554)">
<path fill-rule="evenodd" clip-rule="evenodd" d="M105.184 199.952C98.651 206.484 98.651 217.076 105.184 223.608C111.716 230.141 122.308 230.141 128.84 223.608L170.355 182.093C179.827 172.621 179.827 157.264 170.355 147.791L128.84 106.277C122.308 99.7441 111.716 99.7441 105.184 106.277C98.651 112.809 98.651 123.401 105.184 129.933L140.193 164.942L105.184 199.952ZM141.376 163.76C142.029 164.413 142.029 165.472 141.376 166.125L106.366 201.134C100.487 207.014 100.487 216.546 106.366 222.425C112.246 228.304 121.778 228.304 127.657 222.425L169.172 180.911C177.991 172.092 177.991 157.793 169.172 148.974L127.657 107.46C121.778 101.58 112.246 101.58 106.366 107.46C100.487 113.339 100.487 122.871 106.366 128.75L141.376 163.76Z" fill="black" fill-opacity="0.2"/>
</g>
</g>
<mask id="mask3_830_554" style="mask-type:alpha" maskUnits="userSpaceOnUse" x="100" y="101" width="78" height="128">
<path fill-rule="evenodd" clip-rule="evenodd" d="M105.184 106.277C111.716 99.7441 122.308 99.7441 128.84 106.277L170.355 147.791C179.827 157.264 179.827 172.621 170.355 182.093L128.84 223.608C122.308 230.141 111.716 230.141 105.184 223.608C98.651 217.076 98.651 206.484 105.184 199.952L140.193 164.942L105.184 129.933C98.651 123.401 98.651 112.809 105.184 106.277Z" fill="url(#paint5_linear_830_554)"/>
</mask>
<g mask="url(#mask3_830_554)">
<g filter="url(#filter3_f_830_554)">
<path fill-rule="evenodd" clip-rule="evenodd" d="M105.184 199.952C98.651 206.484 98.651 217.076 105.184 223.608C111.716 230.141 122.308 230.141 128.84 223.608L170.355 182.093C179.827 172.621 179.827 157.264 170.355 147.791L128.84 106.277C122.308 99.7441 111.716 99.7441 105.184 106.277C98.651 112.809 98.651 123.401 105.184 129.933L140.193 164.942L105.184 199.952ZM142.559 162.577C143.865 163.883 143.865 166.002 142.559 167.308L107.549 202.317C102.323 207.544 102.323 216.016 107.549 221.243C112.775 226.469 121.248 226.469 126.474 221.243L167.989 179.728C176.155 171.562 176.155 158.323 167.989 150.157L126.474 108.642C121.248 103.416 112.775 103.416 107.549 108.642C102.323 113.868 102.323 122.341 107.549 127.568L142.559 162.577Z" fill="black" fill-opacity="0.3"/>
</g>
</g>
<g style="mix-blend-mode:color-dodge" filter="url(#filter4_f_830_554)">
<path fill-rule="evenodd" clip-rule="evenodd" d="M109.619 110.713C113.702 106.63 120.322 106.63 124.405 110.713L165.919 152.227C172.942 159.25 172.942 170.636 165.919 177.658L124.405 219.173C120.322 223.255 113.702 223.255 109.619 219.173C105.536 215.09 105.536 208.471 109.619 204.387L149.064 164.943L109.619 125.498C105.536 121.415 105.536 114.795 109.619 110.713Z" fill="url(#paint6_linear_830_554)" fill-opacity="0.08"/>
</g>
<g style="mix-blend-mode:screen" filter="url(#filter5_f_830_554)">
<path d="M117.012 211.78L155.569 173.222C160.142 168.65 160.142 161.236 155.569 156.663L117.012 118.105" stroke="url(#paint7_linear_830_554)" stroke-opacity="0.37" stroke-width="8.36384" stroke-linecap="round"/>
</g>
</g>
<defs>
<filter id="filter0_f_830_554" x="99.0296" y="100.123" width="79.6844" height="129.64" filterUnits="userSpaceOnUse" color-interpolation-filters="sRGB">
<feFlood flood-opacity="0" result="BackgroundImageFix"/>
<feBlend mode="normal" in="SourceGraphic" in2="BackgroundImageFix" result="shape"/>
<feGaussianBlur stdDeviation="0.627288" result="effect1_foregroundBlur_830_554"/>
</filter>
<filter id="filter1_f_830_554" x="98.1932" y="99.2863" width="81.3566" height="131.313" filterUnits="userSpaceOnUse" color-interpolation-filters="sRGB">
<feFlood flood-opacity="0" result="BackgroundImageFix"/>
<feBlend mode="normal" in="SourceGraphic" in2="BackgroundImageFix" result="shape"/>
<feGaussianBlur stdDeviation="1.04548" result="effect1_foregroundBlur_830_554"/>
</filter>
<filter id="filter2_f_830_554" x="95.2659" y="96.359" width="87.2113" height="137.167" filterUnits="userSpaceOnUse" color-interpolation-filters="sRGB">
<feFlood flood-opacity="0" result="BackgroundImageFix"/>
<feBlend mode="normal" in="SourceGraphic" in2="BackgroundImageFix" result="shape"/>
<feGaussianBlur stdDeviation="2.50915" result="effect1_foregroundBlur_830_554"/>
</filter>
<filter id="filter3_f_830_554" x="90.2476" y="91.3406" width="97.2479" height="147.204" filterUnits="userSpaceOnUse" color-interpolation-filters="sRGB">
<feFlood flood-opacity="0" result="BackgroundImageFix"/>
<feBlend mode="normal" in="SourceGraphic" in2="BackgroundImageFix" result="shape"/>
<feGaussianBlur stdDeviation="5.01831" result="effect1_foregroundBlur_830_554"/>
</filter>
<filter id="filter4_f_830_554" x="94.0114" y="95.1046" width="89.7207" height="139.676" filterUnits="userSpaceOnUse" color-interpolation-filters="sRGB">
<feFlood flood-opacity="0" result="BackgroundImageFix"/>
<feBlend mode="normal" in="SourceGraphic" in2="BackgroundImageFix" result="shape"/>
<feGaussianBlur stdDeviation="6.27288" result="effect1_foregroundBlur_830_554"/>
</filter>
<filter id="filter5_f_830_554" x="105.804" y="106.898" width="64.4025" height="116.09" filterUnits="userSpaceOnUse" color-interpolation-filters="sRGB">
<feFlood flood-opacity="0" result="BackgroundImageFix"/>
<feBlend mode="normal" in="SourceGraphic" in2="BackgroundImageFix" result="shape"/>
<feGaussianBlur stdDeviation="3.51281" result="effect1_foregroundBlur_830_554"/>
</filter>
<linearGradient id="paint0_linear_830_554" x1="122.384" y1="117.244" x2="121.591" y2="211.788" gradientUnits="userSpaceOnUse">
<stop stop-color="#FEED30"/>
<stop offset="0.503952" stop-color="#FEA574"/>
<stop offset="1" stop-color="#FE5E85"/>
</linearGradient>
<linearGradient id="paint1_linear_830_554" x1="122.384" y1="117.244" x2="121.591" y2="211.788" gradientUnits="userSpaceOnUse">
<stop stop-color="#FEED30"/>
<stop offset="0.484" stop-color="#FF9459"/>
<stop offset="1" stop-color="#FF567F"/>
</linearGradient>
<linearGradient id="paint2_linear_830_554" x1="122.384" y1="117.244" x2="121.591" y2="211.788" gradientUnits="userSpaceOnUse">
<stop stop-color="#FEED30"/>
<stop offset="0.484" stop-color="#FF9459"/>
<stop offset="1" stop-color="#FF567F"/>
</linearGradient>
<linearGradient id="paint3_linear_830_554" x1="122.384" y1="117.244" x2="121.591" y2="211.788" gradientUnits="userSpaceOnUse">
<stop stop-color="#FEED30"/>
<stop offset="0.503952" stop-color="#FEA574"/>
<stop offset="1" stop-color="#FE5E85"/>
</linearGradient>
<linearGradient id="paint4_linear_830_554" x1="122.384" y1="117.244" x2="121.591" y2="211.788" gradientUnits="userSpaceOnUse">
<stop stop-color="#FEED30"/>
<stop offset="0.503952" stop-color="#FEA574"/>
<stop offset="1" stop-color="#FE5E85"/>
</linearGradient>
<linearGradient id="paint5_linear_830_554" x1="122.384" y1="117.244" x2="121.591" y2="211.788" gradientUnits="userSpaceOnUse">
<stop stop-color="#FEED30"/>
<stop offset="0.503952" stop-color="#FEA574"/>
<stop offset="1" stop-color="#FE5E85"/>
</linearGradient>
<linearGradient id="paint6_linear_830_554" x1="122.384" y1="117.244" x2="121.591" y2="211.788" gradientUnits="userSpaceOnUse">
<stop stop-color="#FEED30"/>
<stop offset="0.503952" stop-color="#FEA574"/>
<stop offset="1" stop-color="#FE5E85"/>
</linearGradient>
<linearGradient id="paint7_linear_830_554" x1="117.941" y1="116.784" x2="117.152" y2="215.97" gradientUnits="userSpaceOnUse">
<stop stop-color="#FEED30"/>
<stop offset="0.503952" stop-color="#FEA574"/>
<stop offset="1" stop-color="#FE5E85"/>
</linearGradient>
<clipPath id="clip0_830_554">
<rect width="78.5823" height="127.783" fill="white" transform="translate(99.2126 101.237)"/>
</clipPath>
</defs>
</svg>
