<svg width="31" height="31" viewBox="0 0 31 31" fill="none" xmlns="http://www.w3.org/2000/svg">
    <ellipse cx="15.4339" cy="15.7609" rx="15.283" ry="15.0167" fill="#D0DCF0"/>
    <mask id="path-2-inside-1_1216_2123" fill="white">
        <path fill-rule="evenodd" clip-rule="evenodd" d="M24.7571 11.522C26.4149 11.866 27.6606 13.3348 27.6606 15.0945V17.296C27.6606 19.0607 26.4079 20.5328 24.7432 20.8715C22.8943 23.7092 19.4175 25.621 15.4333 25.621C11.4489 25.621 7.97209 23.709 6.12325 20.8711C4.45954 20.5316 3.20776 19.06 3.20776 17.296V15.0945C3.20776 13.3355 4.45254 11.8672 6.10929 11.5224C7.95456 8.67255 11.4389 6.75098 15.4333 6.75098C19.4276 6.75098 22.9118 8.67237 24.7571 11.522Z"/>
    </mask>
    <path fill-rule="evenodd" clip-rule="evenodd" d="M24.7571 11.522C26.4149 11.866 27.6606 13.3348 27.6606 15.0945V17.296C27.6606 19.0607 26.4079 20.5328 24.7432 20.8715C22.8943 23.7092 19.4175 25.621 15.4333 25.621C11.4489 25.621 7.97209 23.709 6.12325 20.8711C4.45954 20.5316 3.20776 19.06 3.20776 17.296V15.0945C3.20776 13.3355 4.45254 11.8672 6.10929 11.5224C7.95456 8.67255 11.4389 6.75098 15.4333 6.75098C19.4276 6.75098 22.9118 8.67237 24.7571 11.522Z" fill="#FD5B00"/>
    <path d="M24.7571 11.522L23.2752 12.4816L23.6761 13.1008L24.3984 13.2506L24.7571 11.522ZM24.7432 20.8715L24.3912 19.1414L23.6672 19.2887L23.2639 19.9077L24.7432 20.8715ZM6.12325 20.8711L7.60254 19.9074L7.19955 19.2888L6.47616 19.1412L6.12325 20.8711ZM6.10929 11.5224L6.469 13.2509L7.19064 13.1007L7.59126 12.482L6.10929 11.5224ZM24.3984 13.2506C25.2533 13.4281 25.8951 14.1884 25.8951 15.0945H29.4261C29.4261 12.4812 27.5764 10.3039 25.1159 9.7933L24.3984 13.2506ZM25.8951 15.0945V17.296H29.4261V15.0945H25.8951ZM25.8951 17.296C25.8951 18.2048 25.2497 18.9667 24.3912 19.1414L25.0951 22.6015C27.566 22.0988 29.4261 19.9166 29.4261 17.296H25.8951ZM23.2639 19.9077C21.7645 22.2091 18.8652 23.8555 15.4333 23.8555V27.3865C19.9699 27.3865 24.0241 25.2094 26.2224 21.8352L23.2639 19.9077ZM15.4333 23.8555C12.0013 23.8555 9.10194 22.2089 7.60254 19.9074L4.64396 21.8348C6.84225 25.2092 10.8966 27.3865 15.4333 27.3865V23.8555ZM6.47616 19.1412C5.6182 18.9661 4.97327 18.2044 4.97327 17.296H1.44225C1.44225 19.9156 3.30088 22.0971 5.77033 22.6009L6.47616 19.1412ZM4.97327 17.296V15.0945H1.44225V17.296H4.97327ZM4.97327 15.0945C4.97327 14.1887 5.61455 13.4287 6.469 13.2509L5.74958 9.7939C3.29054 10.3056 1.44225 12.4822 1.44225 15.0945H4.97327ZM7.59126 12.482C9.08737 10.1714 11.9925 8.51649 15.4333 8.51649V4.98547C10.8853 4.98547 6.82174 7.17374 4.62732 10.5628L7.59126 12.482ZM15.4333 8.51649C18.874 8.51649 21.779 10.1712 23.2752 12.4816L26.2391 10.5623C24.0446 7.17353 19.9812 4.98547 15.4333 4.98547V8.51649Z" fill="#FD5B00" mask="url(#path-2-inside-1_1216_2123)"/>
    <path d="M7.73087 11.7281C7.59006 11.8055 7.45767 11.9065 7.378 12.0575C6.97133 12.8283 6.68636 14.8532 6.5721 16.0062C6.55963 16.1321 6.55963 16.2574 6.5721 16.3833C6.68636 17.5363 6.97133 19.5612 7.378 20.332C7.45767 20.483 7.59006 20.5839 7.73087 20.6614C9.51158 21.6407 11.917 22.2168 13.7227 22.5096C14.9129 22.7025 16.1257 22.7025 17.3159 22.5096C19.1216 22.2168 21.527 21.6407 23.3077 20.6614C23.4485 20.5839 23.5809 20.483 23.6606 20.332C24.0673 19.5612 24.3523 17.5363 24.4665 16.3833C24.479 16.2574 24.479 16.1321 24.4665 16.0062C24.3523 14.8532 24.0673 12.8283 23.6606 12.0575C23.5809 11.9065 23.4485 11.8055 23.3077 11.7281C20.817 10.3582 17.104 9.77735 15.5193 9.65723C13.9346 9.77735 10.2217 10.3582 7.73087 11.7281Z" fill="black"/>
    <ellipse cx="10.6614" cy="15.5241" rx="2.27514" ry="2.23505" fill="white"/>
    <ellipse cx="20.2151" cy="15.5241" rx="2.27514" ry="2.23505" fill="white"/>
    <path d="M5.53906 9.1543L5.53906 15.5242" stroke="#FD5B00" stroke-width="1.88321" stroke-linecap="round"/>
    <path d="M25.3855 9.1543L25.3855 15.5242" stroke="#FD5B00" stroke-width="1.88321" stroke-linecap="round"/>
    <path d="M13.5571 18.709C13.7731 18.9508 14.472 19.4346 15.5401 19.4346C16.6081 19.4346 17.2416 18.9508 17.4249 18.709" stroke="white" stroke-width="1.05931" stroke-linecap="round"/>
</svg>
