<svg width="30" height="30" viewBox="0 0 30 30" fill="none" xmlns="http://www.w3.org/2000/svg">
<circle cx="15" cy="15" r="15" fill="#D0DCF0"/>
<mask id="path-2-inside-1_1228_5649" fill="white">
<path fill-rule="evenodd" clip-rule="evenodd" d="M24.1591 10.7792C25.7855 11.1468 27 12.6006 27 14.3382V16.5291C27 18.2715 25.7787 19.7286 24.1455 20.0911C22.333 22.9332 18.916 24.849 14.9994 24.849C11.0825 24.849 7.66543 22.9331 5.85303 20.0908C4.22054 19.7277 3 18.2709 3 16.5291V14.3382C3 12.6012 4.21378 11.1476 5.83945 10.7795C7.64832 7.92547 11.0727 6 14.9994 6C18.9258 6 22.3501 7.92532 24.1591 10.7792Z"/>
</mask>
<path fill-rule="evenodd" clip-rule="evenodd" d="M24.1591 10.7792C25.7855 11.1468 27 12.6006 27 14.3382V16.5291C27 18.2715 25.7787 19.7286 24.1455 20.0911C22.333 22.9332 18.916 24.849 14.9994 24.849C11.0825 24.849 7.66543 22.9331 5.85303 20.0908C4.22054 19.7277 3 18.2709 3 16.5291V14.3382C3 12.6012 4.21378 11.1476 5.83945 10.7795C7.64832 7.92547 11.0727 6 14.9994 6C18.9258 6 22.3501 7.92532 24.1591 10.7792Z" fill="#FD5B00"/>
<path d="M24.1591 10.7792L22.6679 11.7244L23.0584 12.3405L23.7699 12.5013L24.1591 10.7792ZM24.1455 20.0911L23.7629 18.3676L23.0497 18.5259L22.6569 19.1418L24.1455 20.0911ZM5.85303 20.0908L7.34166 19.1416L6.94909 18.5259L6.23634 18.3674L5.85303 20.0908ZM5.83945 10.7795L6.22938 12.5014L6.94041 12.3404L7.33068 11.7246L5.83945 10.7795ZM23.7699 12.5013C24.609 12.6909 25.2345 13.4436 25.2345 14.3382H28.7655C28.7655 11.7577 26.962 9.60261 24.5483 9.05711L23.7699 12.5013ZM25.2345 14.3382V16.5291H28.7655V14.3382H25.2345ZM25.2345 16.5291C25.2345 17.4262 24.6055 18.1805 23.7629 18.3676L24.5281 21.8147C26.9519 21.2767 28.7655 19.1168 28.7655 16.5291H25.2345ZM22.6569 19.1418C21.1876 21.4459 18.349 23.0834 14.9994 23.0834V26.6145C19.483 26.6145 23.4785 24.4206 25.6341 21.0404L22.6569 19.1418ZM14.9994 23.0834C11.6496 23.0834 8.81091 21.4457 7.34166 19.1416L4.36441 21.04C6.51995 24.4204 10.5155 26.6145 14.9994 26.6145V23.0834ZM6.23634 18.3674C5.39413 18.1801 4.76551 17.4259 4.76551 16.5291H1.23449C1.23449 19.116 3.04696 21.2753 5.46972 21.8142L6.23634 18.3674ZM4.76551 16.5291V14.3382H1.23449V16.5291H4.76551ZM4.76551 14.3382C4.76551 13.4439 5.3906 12.6914 6.22938 12.5014L5.44952 9.0576C3.03696 9.60393 1.23449 11.7585 1.23449 14.3382H4.76551ZM7.33068 11.7246C8.79675 9.41147 11.6411 7.76551 14.9994 7.76551V4.23449C10.5044 4.23449 6.49989 6.43948 4.34822 9.83439L7.33068 11.7246ZM14.9994 7.76551C18.3575 7.76551 21.2018 9.41134 22.6679 11.7244L25.6503 9.83399C23.4985 6.43931 19.4942 4.23449 14.9994 4.23449V7.76551Z" fill="#FD5B00" mask="url(#path-2-inside-1_1228_5649)"/>
<path d="M7.43947 10.9719C7.30126 11.0492 7.17132 11.1501 7.09313 11.3009C6.69399 12.0708 6.41429 14.0935 6.30215 15.2453C6.28991 15.371 6.28991 15.4961 6.30215 15.6219C6.41429 16.7736 6.69399 18.7963 7.09313 19.5662C7.17132 19.717 7.30126 19.8179 7.43946 19.8952C9.1663 20.8618 11.4917 21.4351 13.2566 21.7307C14.4667 21.9335 15.7006 21.9335 16.9108 21.7307C18.6757 21.4351 21.001 20.8618 22.7279 19.8952C22.8661 19.8179 22.996 19.717 23.0742 19.5662C23.4733 18.7963 23.753 16.7736 23.8652 15.6219C23.8774 15.4961 23.8774 15.371 23.8652 15.2453C23.753 14.0935 23.4733 12.0708 23.0742 11.3009C22.996 11.1501 22.8661 11.0492 22.7279 10.9719C20.2832 9.60355 16.639 9.02331 15.0837 8.90332C13.5283 9.02331 9.88412 9.60355 7.43947 10.9719Z" fill="black"/>
<ellipse cx="10.3156" cy="14.7638" rx="2.23256" ry="2.23256" fill="white"/>
<ellipse cx="19.6925" cy="14.7638" rx="2.23256" ry="2.23256" fill="white"/>
<path d="M5.28809 8.40063L5.28809 14.7634" stroke="#FD5B00" stroke-width="1.88321" stroke-linecap="round"/>
<path d="M24.7676 8.40063L24.7676 14.7634" stroke="#FD5B00" stroke-width="1.88321" stroke-linecap="round"/>
<path d="M13.1582 17.9443C13.3701 18.1862 14.056 18.6699 15.104 18.6699C16.1521 18.6699 16.7737 18.1862 16.9536 17.9443" stroke="white" stroke-width="1.05931" stroke-linecap="round"/>
</svg>
