<svg width="23" height="23" viewBox="0 0 23 23" fill="none" xmlns="http://www.w3.org/2000/svg">
<g clip-path="url(#clip0_1786_10015)">
<path d="M11.5669 -0.0135055C11.6115 -0.0134111 11.6561 -0.0133167 11.7021 -0.0132194C12.3422 -0.011043 12.9702 -4.96348e-05 13.5989 0.131636C13.6416 0.140341 13.6843 0.149046 13.7284 0.158016C16.3383 0.70397 18.8075 2.10128 20.4343 4.25037C20.4524 4.27398 20.4706 4.29759 20.4894 4.32191C21.5629 5.71833 22.2856 7.31995 22.6388 9.04551C22.6452 9.07701 22.6517 9.10851 22.6583 9.14096C22.7886 9.82652 22.8167 10.5045 22.814 11.2007C22.8139 11.2453 22.8138 11.2899 22.8137 11.3359C22.8116 11.976 22.8006 12.604 22.6689 13.2327C22.6558 13.2968 22.6558 13.2968 22.6425 13.3621C22.1933 15.5095 21.2145 17.4376 19.6894 19.0165C19.6631 19.0437 19.6369 19.0709 19.6099 19.0989C19.2741 19.4451 18.9349 19.7757 18.5502 20.068C18.5265 20.0863 18.5028 20.1046 18.4784 20.1234C17.082 21.1968 15.4805 21.9194 13.755 22.2725C13.7235 22.279 13.692 22.2855 13.6596 22.2921C13.0165 22.4143 12.3801 22.4494 11.7268 22.448C11.598 22.4478 11.4692 22.4488 11.3404 22.45C10.7544 22.4519 10.1894 22.3991 9.61163 22.3027C9.5369 22.2903 9.5369 22.2903 9.46066 22.2777C9.34693 22.2573 9.23425 22.2345 9.12144 22.2096C9.06058 22.1961 9.06058 22.1961 8.99849 22.1824C7.02262 21.723 5.23978 20.7268 3.78407 19.3232C3.74183 19.2827 3.74183 19.2827 3.69875 19.2415C3.29668 18.8547 2.93083 18.4586 2.60103 18.0087C2.57311 17.9713 2.57311 17.9713 2.54463 17.9331C2.25914 17.5501 2.00355 17.1538 1.76852 16.738C1.7509 16.707 1.73327 16.676 1.71512 16.6441C1.14439 15.6304 0.761051 14.5275 0.527971 13.3888C0.521514 13.3573 0.515057 13.3258 0.508405 13.2933C0.378102 12.6078 0.350054 11.9298 0.352705 11.2336C0.3528 11.189 0.352894 11.1444 0.352992 11.0984C0.355168 10.4583 0.366161 9.83034 0.497847 9.20161C0.506552 9.15889 0.515257 9.11618 0.524226 9.07217C0.967674 6.95225 1.92797 5.02485 3.43354 3.46167C3.46124 3.43278 3.48893 3.40389 3.51747 3.37413C3.91814 2.95839 4.32552 2.57544 4.79184 2.23482C4.84228 2.19722 4.89271 2.15962 4.94315 2.12202C5.30198 1.85748 5.67454 1.62163 6.06251 1.40231C6.0935 1.38469 6.12449 1.36706 6.15642 1.34891C7.17012 0.778181 8.27303 0.39484 9.41172 0.16176C9.44322 0.155303 9.47472 0.148846 9.50717 0.142194C10.1927 0.0118908 10.8707 -0.0161566 11.5669 -0.0135055ZM5.71198 5.34577C5.48023 5.71004 5.3913 6.08101 5.46928 6.50793C5.57941 6.92901 5.82147 7.22671 6.19396 7.44895C6.56008 7.64696 7.07178 7.64444 7.46943 7.54703C7.57561 7.50632 7.67235 7.46091 7.77135 7.40514C7.81834 7.37893 7.86534 7.35272 7.91375 7.32572C8.23839 7.06749 8.43475 6.76516 8.49072 6.34876C8.51019 5.90904 8.39383 5.52581 8.09723 5.19515C7.70791 4.84917 7.27934 4.7781 6.7759 4.80201C6.33551 4.83668 5.99945 5.00809 5.71198 5.34577ZM13.8618 8.76344C13.8205 8.78101 13.7791 8.79857 13.7365 8.81667C13.2989 9.02991 12.8845 9.39608 12.635 9.81503C12.635 9.84395 12.635 9.87287 12.635 9.90267C12.606 9.90267 12.5771 9.90267 12.5473 9.90267C12.5473 9.52672 12.5473 9.15078 12.5473 8.76344C11.6653 8.76344 10.7833 8.76344 9.87453 8.76344C9.87453 11.4673 9.87453 14.1712 9.87453 16.9571C10.7566 16.9571 11.6386 16.9571 12.5473 16.9571C12.549 16.6016 12.5506 16.2461 12.5523 15.8798C12.5536 15.6542 12.555 15.4285 12.5565 15.2029C12.5589 14.845 12.5611 14.4871 12.5625 14.1292C12.5636 13.8406 12.5654 13.5519 12.5676 13.2633C12.5683 13.1533 12.5689 13.0434 12.5691 12.9334C12.5696 12.779 12.5708 12.6247 12.5722 12.4703C12.5721 12.4252 12.5721 12.38 12.572 12.3335C12.5785 11.8273 12.7079 11.4672 13.0553 11.0994C13.3489 10.8225 13.6619 10.7252 14.0617 10.716C14.4047 10.7264 14.7212 10.769 14.9831 11.0111C15.4248 11.5446 15.4441 12.2076 15.4482 12.8682C15.4486 12.9128 15.4491 12.9573 15.4495 13.0031C15.4509 13.1487 15.452 13.2942 15.4531 13.4398C15.454 13.5413 15.4549 13.6429 15.4558 13.7444C15.4582 14.0105 15.4604 14.2766 15.4625 14.5427C15.4651 14.8626 15.468 15.1825 15.4709 15.5023C15.4751 15.9873 15.479 16.4722 15.483 16.9571C16.365 16.9571 17.2471 16.9571 18.1558 16.9571C18.1598 16.0153 18.1598 16.0153 18.1624 15.0734C18.1631 14.7362 18.1641 14.3991 18.1657 14.0619C18.1672 13.7658 18.1679 13.4698 18.1683 13.1738C18.1685 13.0615 18.169 12.9492 18.1697 12.8369C18.1773 11.5957 18.1048 10.3372 17.2062 9.3818C16.6613 8.83251 15.9349 8.5824 15.1738 8.57151C14.7079 8.5723 14.2963 8.57814 13.8618 8.76344ZM5.62435 8.76344C5.62435 11.4673 5.62435 14.1712 5.62435 16.9571C6.50637 16.9571 7.3884 16.9571 8.29714 16.9571C8.29714 14.2532 8.29714 11.5493 8.29714 8.76344C7.41512 8.76344 6.5331 8.76344 5.62435 8.76344Z" fill="#5F7394"/>
</g>
<defs>
<clipPath id="clip0_1786_10015">
<rect width="22.4339" height="22.4339" fill="white" transform="translate(0.366211)"/>
</clipPath>
</defs>
</svg>
