<svg width="29" height="25" viewBox="0 0 29 25" fill="none" xmlns="http://www.w3.org/2000/svg">
<g id="Group">
<path id="Vector" d="M28.9906 19.8333C28.9906 20.8043 28.6956 21.545 28.1206 22.0711C27.5385 22.5978 26.7584 22.8615 25.7992 22.8615H17.1546C17.0726 22.8523 16.9891 22.8473 16.9042 22.8473C15.9332 22.8473 15.443 23.4516 15.1437 24.3003C15.1263 24.3498 15.0798 24.3835 15.0274 24.3835H13.9724C13.9204 24.3835 13.874 24.3503 13.8576 24.301C13.6733 23.7483 13.5686 23.3025 13.0241 23.0627C12.7614 22.9276 12.4333 22.8615 12.0433 22.8615H3.19144C2.21566 22.8615 1.44424 22.5978 0.870001 22.0711C0.295758 21.545 0 20.8043 0 19.8333C0 19.7145 0.00456465 19.5958 0.0140083 19.4805C0.019074 19.4186 0.0714181 19.3719 0.133489 19.3719H1.37342C1.45145 19.3719 1.51144 19.445 1.50961 19.523C1.50901 19.5488 1.50901 19.5751 1.50901 19.6023C1.50901 20.0714 1.65653 20.4418 1.95156 20.7055C2.2466 20.9685 2.67405 21.1 3.24757 21.1H12.0908C13.0507 21.1 13.8135 21.3638 14.3964 21.8983C14.4288 21.931 14.4619 21.9644 14.4863 21.9978C14.5187 21.9644 14.5525 21.9317 14.5849 21.8983C15.1671 21.3638 15.9385 21.1 16.8905 21.1H25.7416C26.3072 21.1 26.7426 20.9685 27.0376 20.7055C27.3327 20.4418 27.4723 20.0714 27.4723 19.6023C27.4723 19.5751 27.4723 19.5488 27.4717 19.523C27.4699 19.445 27.5298 19.3719 27.6079 19.3719H28.8564C28.9185 19.3719 28.9709 19.4186 28.9759 19.4805C28.9854 19.5956 28.9899 19.714 28.9899 19.8333H28.9906Z" fill="#FD5200"/>
<path id="Sun" d="M15.8445 19.3349C15.808 19.3348 15.8012 19.2764 15.8363 19.2666C17.9359 18.6818 19.509 16.7232 19.509 14.4536C19.5068 11.7069 17.2387 9.46061 14.5164 9.46274C11.779 9.48051 9.54034 11.7552 9.55761 14.4863C9.57209 16.7676 11.1375 18.6916 13.2388 19.2643C13.2741 19.2739 13.2674 19.3328 13.2308 19.3329L9.92922 19.3405C9.86581 19.3407 9.8047 19.3163 9.75976 19.2715C8.53779 18.0553 7.76932 16.3746 7.72766 14.529C7.6593 10.8574 10.7845 7.6657 14.4747 7.62731C18.1648 7.58822 21.3303 10.7394 21.339 14.4266C21.3361 16.2884 20.5337 18.0235 19.2817 19.2714C19.2367 19.3162 19.1756 19.3407 19.1121 19.3406L15.8445 19.3349Z" fill="#FD5200"/>
<path id="Vector_2" d="M28.087 14.4295C28.087 14.9221 27.6905 15.3138 27.1918 15.3138H24.4494C23.9622 15.3138 23.5542 14.9221 23.5542 14.4295C23.5542 13.9368 23.9622 13.5452 24.4494 13.5452H27.1918C27.6905 13.5452 28.087 13.9482 28.087 14.4295Z" fill="#FD5200"/>
<path id="Vector_3" d="M14.4899 0.98291C14.9886 0.98291 15.3851 1.37459 15.3851 1.86721V4.57628C15.3851 5.05753 14.9886 5.46058 14.4899 5.46058C13.9912 5.46058 13.5947 5.05753 13.5947 4.57628V1.86721C13.5947 1.37459 14.0027 0.98291 14.4899 0.98291Z" fill="#FD5200"/>
<path id="Vector_4" d="M5.44098 14.4187C5.44098 14.9113 5.04448 15.303 4.5458 15.303H1.80339C1.31622 15.303 0.908203 14.9113 0.908203 14.4187C0.908203 13.9261 1.31622 13.5344 1.80339 13.5344H4.5458C5.04448 13.5344 5.44098 13.9375 5.44098 14.4187Z" fill="#FD5200"/>
<path id="Vector_5" d="M25.5546 3.49366C25.8834 3.81781 25.9072 4.33247 25.6107 4.67297L22.4905 7.75665C22.1458 8.04952 21.6248 8.02607 21.2967 7.70121C20.9441 7.35289 20.9441 6.79913 21.2967 6.45081L24.2888 3.49366C24.6414 3.14534 25.2027 3.14534 25.5546 3.49366Z" fill="#FD5200"/>
<path id="Vector_6" d="M3.44272 3.49793C3.11386 3.82208 3.09011 4.33674 3.38659 4.67724L6.50679 7.76093C6.85148 8.0538 7.37247 8.03034 7.70061 7.70548C8.05322 7.35716 8.05322 6.80341 7.70061 6.45509L4.7085 3.49793C4.3559 3.14961 3.79461 3.14961 3.44272 3.49793Z" fill="#FD5200"/>
</g>
</svg>
