<svg width="531" height="395" viewBox="0 0 531 395" fill="none" xmlns="http://www.w3.org/2000/svg">
<path d="M175.483 122.192H70.3061C67.2491 122.192 64.7617 119.705 64.7617 116.648V48.1196C64.7617 45.0626 67.2491 42.5752 70.3061 42.5752H175.483C178.54 42.5752 181.028 45.0626 181.028 48.1196V116.648C181.028 119.705 178.54 122.192 175.483 122.192ZM66.8385 56.3341V116.649C66.8385 118.562 68.3948 120.117 70.3061 120.117H175.483C177.396 120.117 178.951 118.56 178.951 116.649V56.3341H66.8385ZM66.8385 54.2573H178.951V48.1209C178.951 46.2083 177.395 44.6533 175.483 44.6533H70.3061C68.3935 44.6533 66.8385 46.2096 66.8385 48.1209V54.2573ZM109.164 97.3685H105.731V95.2916H109.164V97.3685ZM102.714 97.3685H99.2809V95.2916H102.714V97.3685ZM86.3365 97.3685H76.3564V95.2916H86.3365V97.3685ZM122.686 89.934H105.183V87.8572H122.686V89.934ZM86.3365 89.934H76.3564V87.8572H86.3365V89.934ZM115.419 82.5009H111.395V80.4241H115.419V82.5009ZM109.517 82.5009H99.2809V80.4241H109.517V82.5009ZM86.3365 82.5009H76.3564V80.4241H86.3365V82.5009ZM143.113 75.0665H133.132V72.9897H143.113V75.0665ZM130.154 75.0665H126.131V72.9897H130.154V75.0665ZM120.626 75.0665H94.2689V72.9897H120.626V75.0665ZM86.3365 75.0665H76.3564V72.9897H86.3365V75.0665Z" fill="#C2C2D5"/>
<path d="M96.9111 0.873047H194.679C197.004 0.873047 198.891 2.76046 198.891 5.08496V62.8544C198.891 65.1789 197.004 67.0663 194.679 67.0663H96.9111C94.5866 67.0663 92.6992 65.1789 92.6992 62.8544V5.08496C92.6992 2.76046 94.5866 0.873047 96.9111 0.873047Z" fill="#A6B8D9"/>
<g opacity="0.48">
<path d="M105.658 10.7949H102.715V12.8717H105.658V10.7949Z" fill="white"/>
<path d="M127.92 10.7949H113.333V12.8717H127.92V10.7949Z" fill="white"/>
<path d="M105.658 17.7012H102.715V19.778H105.658V17.7012Z" fill="white"/>
<path d="M151.464 17.7012H118.838V19.778H151.464V17.7012Z" fill="white"/>
<path d="M160.615 17.7012H154.858V19.778H160.615V17.7012Z" fill="white"/>
<path d="M174.689 17.7012H168.933V19.778H174.689V17.7012Z" fill="white"/>
<path d="M189.638 17.7012H177.113V19.778H189.638V17.7012Z" fill="white"/>
<path d="M165.753 17.7012H164.326V19.778H165.753V17.7012Z" fill="white"/>
<path d="M105.658 24.6016H102.715V26.6784H105.658V24.6016Z" fill="white"/>
<path d="M133.425 24.6016H118.838V26.6784H133.425V24.6016Z" fill="white"/>
<path d="M143.107 24.6016H136.796V26.6784H143.107V24.6016Z" fill="white"/>
<path d="M160.613 24.6016H146.347V26.6784H160.613V24.6016Z" fill="white"/>
<path d="M105.658 31.5078H102.715V33.5846H105.658V31.5078Z" fill="white"/>
<path d="M105.658 31.5078H102.715V33.5846H105.658V31.5078Z" fill="white"/>
<path d="M147.33 31.5078H136.796V33.5846H147.33V31.5078Z" fill="white"/>
<path d="M105.658 38.4111H102.715V40.4879H105.658V38.4111Z" fill="white"/>
<path d="M120.626 38.4111H113.333V40.4879H120.626V38.4111Z" fill="white"/>
<path d="M133.851 38.4111H124.276V40.4879H133.851V38.4111Z" fill="white"/>
<path d="M138.568 38.4111H136.298V40.4879H138.568V38.4111Z" fill="white"/>
<path d="M167.375 38.4111H141.562V40.4879H167.375V38.4111Z" fill="white"/>
<path d="M105.658 45.3174H102.715V47.3942H105.658V45.3174Z" fill="white"/>
<path d="M143.115 45.3174H124.276V47.3942H143.115V45.3174Z" fill="white"/>
<path d="M153.961 45.3174H145.311V47.3942H153.961V45.3174Z" fill="white"/>
<path d="M167.376 45.3174H160.004V47.3942H167.376V45.3174Z" fill="white"/>
<path d="M105.658 52.2207H102.715V54.2975H105.658V52.2207Z" fill="white"/>
<path d="M144.22 52.2207H134.769V54.2975H144.22V52.2207Z" fill="white"/>
<path d="M151.463 52.2207H147.326V54.2975H151.463V52.2207Z" fill="white"/>
<path d="M105.658 59.124H102.715V61.2008H105.658V59.124Z" fill="white"/>
<path d="M105.658 59.124H102.715V61.2008H105.658V59.124Z" fill="white"/>
</g>
<path d="M183.376 119.518C183.376 115.335 180.178 111.943 176.235 111.943H7.96557C4.02254 111.943 0.825195 115.335 0.825195 119.518V131.704H183.376V119.518Z" fill="#6F82A2"/>
<path d="M12.0901 124.29C10.6716 124.29 9.5166 123.136 9.5166 121.716C9.5166 120.296 10.6702 119.143 12.0901 119.143C13.51 119.143 14.6636 120.298 14.6636 121.716C14.6636 123.135 13.5086 124.29 12.0901 124.29ZM12.0901 120.136C11.2186 120.136 10.51 120.846 10.51 121.717C10.51 122.589 11.2186 123.298 12.0901 123.298C12.9616 123.298 13.6716 122.589 13.6716 121.717C13.6716 120.846 12.9616 120.136 12.0901 120.136Z" fill="white"/>
<path d="M19.8147 124.29C18.3962 124.29 17.2412 123.136 17.2412 121.716C17.2412 120.296 18.3962 119.143 19.8147 119.143C21.2332 119.143 22.3882 120.298 22.3882 121.716C22.3882 123.135 21.2346 124.29 19.8147 124.29ZM19.8147 120.136C18.9432 120.136 18.2333 120.846 18.2333 121.717C18.2333 122.589 18.9432 123.298 19.8147 123.298C20.6862 123.298 21.3948 122.589 21.3948 121.717C21.3948 120.846 20.6862 120.136 19.8147 120.136Z" fill="white"/>
<path d="M27.5374 124.29C26.1188 124.29 24.9639 123.136 24.9639 121.716C24.9639 120.296 26.1175 119.143 27.5374 119.143C28.9572 119.143 30.1109 120.298 30.1109 121.716C30.1109 123.135 28.9559 124.29 27.5374 124.29ZM27.5374 120.136C26.6658 120.136 25.9572 120.846 25.9572 121.717C25.9572 122.589 26.6658 123.298 27.5374 123.298C28.4089 123.298 29.1188 122.589 29.1188 121.717C29.1188 120.846 28.4089 120.136 27.5374 120.136Z" fill="white"/>
<path d="M54.9655 131.703H0.825195V247.213C0.825195 254.245 6.52585 259.944 13.5576 259.944H170.645C177.676 259.944 183.376 254.243 183.376 247.213V131.703H54.9641H54.9655Z" fill="#A6B8D9"/>
<path d="M113.833 147.119H167.893C167.95 147.119 167.996 147.166 167.996 147.224V179.976C167.996 180.033 167.95 180.079 167.893 180.079H113.833C113.776 180.079 113.73 180.033 113.73 179.976V147.224C113.73 147.167 113.776 147.119 113.833 147.119ZM78.8625 235.612H105.788C105.845 235.612 105.893 235.565 105.893 235.508V147.224C105.893 147.167 105.847 147.119 105.788 147.119H78.8625C78.8055 147.119 78.7578 147.166 78.7578 147.224V235.508C78.7578 235.565 78.8042 235.612 78.8625 235.612ZM113.833 235.612H167.893C167.95 235.612 167.996 235.565 167.996 235.508V187.617C167.996 187.56 167.95 187.514 167.893 187.514H113.833C113.776 187.514 113.73 187.56 113.73 187.617V235.508C113.73 235.565 113.776 235.612 113.833 235.612Z" fill="#8D9DB9"/>
<path d="M530.143 56.7662C530.143 52.4576 526.533 48.9648 522.082 48.9648H332.12C327.669 48.9648 324.06 52.4576 324.06 56.7662V69.3158H530.143V56.7662Z" fill="#6F82A2"/>
<path d="M530.143 69.3154V186.732C530.143 192.637 525.11 197.425 518.902 197.425H335.303C329.095 197.425 324.062 192.638 324.062 186.732V69.3154H530.145H530.143Z" fill="#A6B8D9"/>
<g opacity="0.2">
<path d="M350.687 89.9874H335.237C334.456 89.9874 333.817 89.3473 333.817 88.565C333.817 87.7827 334.456 87.1426 335.237 87.1426H350.687C351.468 87.1426 352.107 87.7827 352.107 88.565C352.107 89.3473 351.468 89.9874 350.687 89.9874Z" fill="black"/>
<path d="M350.687 99.2755H335.237C334.456 99.2755 333.817 98.6354 333.817 97.8531C333.817 97.0707 334.456 96.4307 335.237 96.4307H350.687C351.468 96.4307 352.107 97.0707 352.107 97.8531C352.107 98.6354 351.468 99.2755 350.687 99.2755Z" fill="black"/>
<path d="M350.687 108.564H335.237C334.456 108.564 333.817 107.923 333.817 107.141C333.817 106.359 334.456 105.719 335.237 105.719H350.687C351.468 105.719 352.107 106.359 352.107 107.141C352.107 107.923 351.468 108.564 350.687 108.564Z" fill="black"/>
<path d="M350.687 117.853H335.237C334.456 117.853 333.817 117.213 333.817 116.43C333.817 115.648 334.456 115.008 335.237 115.008H350.687C351.468 115.008 352.107 115.648 352.107 116.43C352.107 117.213 351.468 117.853 350.687 117.853Z" fill="black"/>
<path d="M350.687 127.126H335.237C334.456 127.126 333.817 126.486 333.817 125.704C333.817 124.921 334.456 124.281 335.237 124.281H350.687C351.468 124.281 352.107 124.921 352.107 125.704C352.107 126.486 351.468 127.126 350.687 127.126Z" fill="black"/>
<path d="M350.687 136.414H335.237C334.456 136.414 333.817 135.774 333.817 134.992C333.817 134.209 334.456 133.569 335.237 133.569H350.687C351.468 133.569 352.107 134.209 352.107 134.992C352.107 135.774 351.468 136.414 350.687 136.414Z" fill="black"/>
<path d="M350.687 145.703H335.237C334.456 145.703 333.817 145.063 333.817 144.281C333.817 143.498 334.456 142.858 335.237 142.858H350.687C351.468 142.858 352.107 143.498 352.107 144.281C352.107 145.063 351.468 145.703 350.687 145.703Z" fill="black"/>
<path d="M350.687 154.991H335.237C334.456 154.991 333.817 154.351 333.817 153.569C333.817 152.787 334.456 152.146 335.237 152.146H350.687C351.468 152.146 352.107 152.787 352.107 153.569C352.107 154.351 351.468 154.991 350.687 154.991Z" fill="black"/>
<path d="M350.687 164.265H335.237C334.456 164.265 333.817 163.625 333.817 162.842C333.817 162.06 334.456 161.42 335.237 161.42H350.687C351.468 161.42 352.107 162.06 352.107 162.842C352.107 163.625 351.468 164.265 350.687 164.265Z" fill="black"/>
</g>
<g opacity="0.2">
<path d="M31.77 153.062H16.3204C15.5394 153.062 14.9004 152.422 14.9004 151.639C14.9004 150.857 15.5394 150.217 16.3204 150.217H31.77C32.551 150.217 33.19 150.857 33.19 151.639C33.19 152.422 32.551 153.062 31.77 153.062Z" fill="black"/>
<path d="M31.77 162.35H16.3204C15.5394 162.35 14.9004 161.71 14.9004 160.927C14.9004 160.145 15.5394 159.505 16.3204 159.505H31.77C32.551 159.505 33.19 160.145 33.19 160.927C33.19 161.71 32.551 162.35 31.77 162.35Z" fill="black"/>
<path d="M31.77 171.638H16.3204C15.5394 171.638 14.9004 170.998 14.9004 170.215C14.9004 169.433 15.5394 168.793 16.3204 168.793H31.77C32.551 168.793 33.19 169.433 33.19 170.215C33.19 170.998 32.551 171.638 31.77 171.638Z" fill="black"/>
<path d="M31.77 180.927H16.3204C15.5394 180.927 14.9004 180.287 14.9004 179.504C14.9004 178.722 15.5394 178.082 16.3204 178.082H31.77C32.551 178.082 33.19 178.722 33.19 179.504C33.19 180.287 32.551 180.927 31.77 180.927Z" fill="black"/>
<path d="M31.77 190.2H16.3204C15.5394 190.2 14.9004 189.56 14.9004 188.778C14.9004 187.996 15.5394 187.355 16.3204 187.355H31.77C32.551 187.355 33.19 187.996 33.19 188.778C33.19 189.56 32.551 190.2 31.77 190.2Z" fill="black"/>
<path d="M31.77 199.488H16.3204C15.5394 199.488 14.9004 198.848 14.9004 198.066C14.9004 197.284 15.5394 196.644 16.3204 196.644H31.77C32.551 196.644 33.19 197.284 33.19 198.066C33.19 198.848 32.551 199.488 31.77 199.488Z" fill="black"/>
<path d="M31.77 208.777H16.3204C15.5394 208.777 14.9004 208.137 14.9004 207.355C14.9004 206.573 15.5394 205.933 16.3204 205.933H31.77C32.551 205.933 33.19 206.573 33.19 207.355C33.19 208.137 32.551 208.777 31.77 208.777Z" fill="black"/>
<path d="M31.77 218.066H16.3204C15.5394 218.066 14.9004 217.425 14.9004 216.643C14.9004 215.861 15.5394 215.221 16.3204 215.221H31.77C32.551 215.221 33.19 215.861 33.19 216.643C33.19 217.425 32.551 218.066 31.77 218.066Z" fill="black"/>
<path d="M31.77 227.339H16.3204C15.5394 227.339 14.9004 226.699 14.9004 225.917C14.9004 225.134 15.5394 224.494 16.3204 224.494H31.77C32.551 224.494 33.19 225.134 33.19 225.917C33.19 226.699 32.551 227.339 31.77 227.339Z" fill="black"/>
</g>
<path d="M392.402 89.5515H365.564C364.902 89.5515 364.361 89.0095 364.361 88.347C364.361 87.6846 364.902 87.1426 365.564 87.1426H392.402C393.063 87.1426 393.604 87.6846 393.604 88.347C393.604 89.0095 393.063 89.5515 392.402 89.5515Z" fill="#384C6B" fill-opacity="0.5"/>
<path d="M469.464 89.5515H399.543C398.882 89.5515 398.341 89.0095 398.341 88.347C398.341 87.6846 398.882 87.1426 399.543 87.1426H469.464C470.125 87.1426 470.666 87.6846 470.666 88.347C470.666 89.0095 470.125 89.5515 469.464 89.5515Z" fill="#263238"/>
<g opacity="0.2">
<path d="M501.376 89.5524H481.115C480.454 89.5524 479.913 89.0104 479.913 88.348C479.913 87.6856 480.454 87.1436 481.115 87.1436H501.376C502.038 87.1436 502.579 87.6856 502.579 88.348C502.579 89.0104 502.038 89.5524 501.376 89.5524Z" fill="#263238"/>
</g>
<g opacity="0.2">
<path d="M439.26 97.4157H369.183C368.522 97.4157 367.98 96.8737 367.98 96.2113C367.98 95.5488 368.522 95.0068 369.183 95.0068H439.26C439.921 95.0068 440.462 95.5488 440.462 96.2113C440.462 96.8737 439.921 97.4157 439.26 97.4157Z" fill="#263238"/>
</g>
<path d="M510.996 97.4167H445.681C445.02 97.4167 444.479 96.8747 444.479 96.2123C444.479 95.5498 445.02 95.0078 445.681 95.0078H510.996C511.657 95.0078 512.198 95.5498 512.198 96.2123C512.198 96.8747 511.657 97.4167 510.996 97.4167Z" fill="#384C6B" fill-opacity="0.5"/>
<path d="M410.715 105.281H369.171C368.51 105.281 367.969 104.739 367.969 104.077C367.969 103.414 368.51 102.872 369.171 102.872H410.715C411.376 102.872 411.917 103.414 411.917 104.077C411.917 104.739 411.376 105.281 410.715 105.281Z" fill="#263238"/>
<path d="M460.193 105.281H419.287C418.626 105.281 418.085 104.739 418.085 104.077C418.085 103.414 418.626 102.872 419.287 102.872H460.193C460.855 102.872 461.396 103.414 461.396 104.077C461.396 104.739 460.855 105.281 460.193 105.281Z" fill="#384C6B" fill-opacity="0.5"/>
<path d="M510.997 105.281H466.844C466.183 105.281 465.642 104.739 465.642 104.077C465.642 103.414 466.183 102.872 466.844 102.872H510.997C511.658 102.872 512.199 103.414 512.199 104.077C512.199 104.739 511.658 105.281 510.997 105.281Z" fill="#263238"/>
<path d="M414.561 113.147H389.635C388.974 113.147 388.433 112.605 388.433 111.943C388.433 111.28 388.974 110.738 389.635 110.738H414.561C415.222 110.738 415.763 111.28 415.763 111.943C415.763 112.605 415.222 113.147 414.561 113.147Z" fill="#263238"/>
<path d="M449.865 113.147H422.655C421.993 113.147 421.452 112.605 421.452 111.943C421.452 111.28 421.993 110.738 422.655 110.738H449.865C450.527 110.738 451.068 111.28 451.068 111.943C451.068 112.605 450.527 113.147 449.865 113.147Z" fill="#263238"/>
<g opacity="0.2">
<path d="M500.175 113.147H456.046C455.385 113.147 454.844 112.605 454.844 111.943C454.844 111.28 455.385 110.738 456.046 110.738H500.175C500.836 110.738 501.377 111.28 501.377 111.943C501.377 112.605 500.836 113.147 500.175 113.147Z" fill="#263238"/>
</g>
<g opacity="0.2">
<path d="M402.718 120.999H369.183C368.522 120.999 367.98 120.457 367.98 119.794C367.98 119.132 368.522 118.59 369.183 118.59H402.718C403.38 118.59 403.921 119.132 403.921 119.794C403.921 120.457 403.38 120.999 402.718 120.999Z" fill="#263238"/>
</g>
<path d="M406.914 128.865H369.182C368.521 128.865 367.979 128.323 367.979 127.66C367.979 126.998 368.521 126.456 369.182 126.456H406.914C407.575 126.456 408.116 126.998 408.116 127.66C408.116 128.323 407.575 128.865 406.914 128.865Z" fill="#384C6B" fill-opacity="0.5"/>
<path d="M469.945 128.865H413.107C412.445 128.865 411.904 128.323 411.904 127.66C411.904 126.998 412.445 126.456 413.107 126.456H469.945C470.606 126.456 471.147 126.998 471.147 127.66C471.147 128.323 470.606 128.865 469.945 128.865Z" fill="#263238"/>
<path d="M510.995 128.865H476.834C476.173 128.865 475.632 128.323 475.632 127.66C475.632 126.998 476.173 126.456 476.834 126.456H510.995C511.656 126.456 512.197 126.998 512.197 127.66C512.197 128.323 511.656 128.865 510.995 128.865Z" fill="#263238"/>
<g opacity="0.2">
<path d="M402.816 136.729H381.208C380.547 136.729 380.006 136.187 380.006 135.525C380.006 134.862 380.547 134.32 381.208 134.32H402.816C403.477 134.32 404.018 134.862 404.018 135.525C404.018 136.187 403.477 136.729 402.816 136.729Z" fill="#263238"/>
</g>
<g opacity="0.2">
<path d="M451.621 136.729H410.186C409.524 136.729 408.983 136.187 408.983 135.525C408.983 134.862 409.524 134.32 410.186 134.32H451.621C452.282 134.32 452.823 134.862 452.823 135.525C452.823 136.187 452.282 136.729 451.621 136.729Z" fill="#263238"/>
</g>
<path d="M500.173 136.729H459.712C459.051 136.729 458.51 136.187 458.51 135.525C458.51 134.862 459.051 134.32 459.712 134.32H500.173C500.835 134.32 501.376 134.862 501.376 135.525C501.376 136.187 500.835 136.729 500.173 136.729Z" fill="#263238"/>
<path d="M418.71 144.594H393.242C392.581 144.594 392.04 144.052 392.04 143.39C392.04 142.728 392.581 142.186 393.242 142.186H418.71C419.371 142.186 419.912 142.728 419.912 143.39C419.912 144.052 419.371 144.594 418.71 144.594Z" fill="#263238"/>
<g opacity="0.2">
<path d="M448.195 144.595H423.93C423.269 144.595 422.728 144.053 422.728 143.391C422.728 142.729 423.269 142.187 423.93 142.187H448.195C448.856 142.187 449.397 142.729 449.397 143.391C449.397 144.053 448.856 144.595 448.195 144.595Z" fill="#263238"/>
</g>
<path d="M500.175 144.594H455.818C455.156 144.594 454.615 144.052 454.615 143.39C454.615 142.728 455.156 142.186 455.818 142.186H500.175C500.836 142.186 501.377 142.728 501.377 143.39C501.377 144.052 500.836 144.594 500.175 144.594Z" fill="#384C6B" fill-opacity="0.5"/>
<g opacity="0.2">
<path d="M424.373 152.447H393.242C392.581 152.447 392.04 151.905 392.04 151.243C392.04 150.58 392.581 150.038 393.242 150.038H424.373C425.034 150.038 425.575 150.58 425.575 151.243C425.575 151.905 425.034 152.447 424.373 152.447Z" fill="#263238"/>
</g>
<path d="M340.092 59.2896C338.674 59.2896 337.519 58.1359 337.519 56.7161C337.519 55.2962 338.672 54.1426 340.092 54.1426C341.512 54.1426 342.666 55.2975 342.666 56.7161C342.666 58.1346 341.511 59.2896 340.092 59.2896ZM340.092 55.136C339.221 55.136 338.512 55.8459 338.512 56.7174C338.512 57.5889 339.221 58.2975 340.092 58.2975C340.964 58.2975 341.674 57.5889 341.674 56.7174C341.674 55.8459 340.964 55.136 340.092 55.136Z" fill="white"/>
<path d="M347.815 59.2896C346.396 59.2896 345.241 58.1359 345.241 56.7161C345.241 55.2962 346.396 54.1426 347.815 54.1426C349.233 54.1426 350.388 55.2975 350.388 56.7161C350.388 58.1346 349.235 59.2896 347.815 59.2896ZM347.815 55.136C346.943 55.136 346.233 55.8459 346.233 56.7174C346.233 57.5889 346.943 58.2975 347.815 58.2975C348.686 58.2975 349.395 57.5889 349.395 56.7174C349.395 55.8459 348.686 55.136 347.815 55.136Z" fill="white"/>
<path d="M355.538 59.2896C354.12 59.2896 352.965 58.1359 352.965 56.7161C352.965 55.2962 354.118 54.1426 355.538 54.1426C356.958 54.1426 358.112 55.2975 358.112 56.7161C358.112 58.1346 356.957 59.2896 355.538 59.2896ZM355.538 55.136C354.667 55.136 353.958 55.8459 353.958 56.7174C353.958 57.5889 354.667 58.2975 355.538 58.2975C356.41 58.2975 357.12 57.5889 357.12 56.7174C357.12 55.8459 356.41 55.136 355.538 55.136Z" fill="white"/>
<path d="M248.669 341.936L250.456 370.307C250.456 370.307 162.647 371.222 152.37 370.307C142.098 369.397 120.867 370.928 124.433 347.43C126.078 336.565 145.914 247.67 155.257 233.03C161.882 222.641 188.715 213.177 206.759 208.554C207.335 208.406 207.906 208.259 208.466 208.124C215.057 206.497 220.258 205.575 222.513 205.575C230.918 205.575 260.358 197.249 271.567 199.079C272.505 199.232 273.721 199.469 275.156 199.785C275.8 199.92 276.49 200.079 277.22 200.244C294.246 204.184 333.306 215.727 337.41 222.961C342.079 231.197 372.91 337.361 372.91 337.361L248.668 341.935L248.669 341.936Z" fill="#C3C9D2"/>
<path d="M298.576 284.745L192.216 284.894L192.218 286.475L298.578 286.326L298.576 284.745Z" fill="#263238"/>
<path d="M296.204 295.811V297.393H188.973L189.215 295.811H296.204Z" fill="#263238"/>
<path d="M293.833 306.877V308.46H187.285L187.528 306.877H293.833Z" fill="#263238"/>
<path opacity="0.88" d="M202.169 323.441H185.002L187.285 308.461L187.529 306.878L188.97 297.393L189.214 295.81L193.922 264.93C192.56 277.874 192.175 287.959 192.419 295.81C192.436 296.347 192.454 296.873 192.476 297.393C192.634 301.045 192.928 304.183 193.324 306.878C193.403 307.426 193.481 307.952 193.573 308.461C195.941 322.299 201.035 323.379 202.17 323.441H202.169Z" fill="#182051"/>
<path opacity="0.88" d="M202.401 323.44C202.401 323.44 202.321 323.452 202.169 323.44H202.401Z" fill="#182051"/>
<path d="M276.542 221.246C271.991 229.38 262.546 235.033 251.896 236C250.704 236.107 249.488 236.164 248.261 236.164C240.574 236.164 232.219 234.05 223.366 229.855C219.087 227.831 213.722 224.892 210.183 220.139C207.538 216.577 206.35 212.384 206.758 208.556C207.334 208.409 207.905 208.262 208.465 208.127C207.855 212.083 209.348 216.278 211.496 219.166C214.814 223.633 219.958 226.442 224.068 228.386C234.061 233.117 243.378 235.136 251.75 234.378C261.875 233.463 270.828 228.127 275.125 220.45C278.759 213.949 278.562 205.747 275.159 199.789C275.803 199.924 276.493 200.083 277.223 200.247C280.241 206.556 280.202 214.707 276.545 221.247L276.542 221.246Z" fill="#263238"/>
<path d="M167.803 332.405L167.111 331.971C170.95 325.866 178.358 322.129 185.552 322.67L185.49 323.483C178.603 322.969 171.485 326.549 167.803 332.404V332.405Z" fill="#182051"/>
<path d="M179.793 318.596L163.26 318.731L163.266 319.547L179.8 319.412L179.793 318.596Z" fill="#182051"/>
<path d="M193.965 255.504C193.002 246.52 186.327 238.303 177.729 235.52L177.981 234.744C186.874 237.622 193.78 246.123 194.776 255.417L193.964 255.504H193.965Z" fill="#182051"/>
<path d="M318.173 244.679L317.359 244.614C317.954 237.201 322.916 230.183 329.706 227.149L330.04 227.895C323.514 230.81 318.746 237.556 318.174 244.681L318.173 244.679Z" fill="#182051"/>
<path d="M288.087 96.0083C288.356 100.606 285.568 105.243 281.371 107.151C282.07 106.837 283.824 111.709 283.939 112.224C284.42 114.252 284.401 116.399 283.904 118.414C282.911 122.406 279.502 126.265 275.196 126.555C270.057 126.908 268.077 122.15 264.392 119.542C260.458 116.757 255.842 114.927 251.057 114.308C244.157 113.412 236.953 115.057 231.123 118.86C227.438 121.267 224.332 124.459 220.848 127.153C218.36 129.073 211.49 133.906 208.27 131.775C206.548 130.633 205.18 127.351 204.319 125.546C203.667 124.188 203.116 122.771 202.674 121.33C202.4 120.463 202.169 119.587 201.981 118.7C201.404 115.999 201.187 113.229 201.358 110.48C201.487 108.477 201.837 106.419 202.967 104.766C204.089 103.106 206.161 101.961 208.106 102.432C207.999 95.4136 211.951 88.4825 218.037 84.9964C224.122 81.5037 232.098 81.6044 238.1 85.2414C237.959 79.6414 241.222 74.2944 245.784 71.0428C250.352 67.7898 256.047 66.4349 261.643 66.2574C267.188 66.0878 273.069 67.1461 277.258 70.7792C279.699 72.8984 281.33 76.0587 281.647 79.2348C281.879 81.5143 281.438 83.8017 280.126 85.7116C284.516 87.1315 287.82 91.4043 288.088 96.0083H288.087Z" fill="#1C1E33"/>
<path opacity="0.11" d="M281.645 79.2348C281.143 78.6163 280.522 78.0825 279.777 77.664C277.472 76.3832 274.603 75.4759 271.963 75.4375C266.253 75.3514 260.528 76.215 255.133 78.0852C249.732 79.9567 244.767 83.9659 243.207 89.4653C236.394 87.9209 229.02 87.4534 222.603 90.2282C216.185 92.9951 211.095 99.6944 211.981 106.631C206.185 108.873 202.35 115.18 202.672 121.33C202.398 120.463 202.167 119.587 201.979 118.7C201.402 115.999 201.185 113.229 201.356 110.48C201.485 108.477 201.835 106.419 202.965 104.766C204.087 103.106 206.16 101.961 208.104 102.432C207.997 95.4136 211.949 88.4825 218.035 84.9964C224.12 81.5037 232.096 81.6044 238.099 85.2414C237.957 79.6414 241.22 74.2944 245.782 71.0428C250.35 67.7898 256.045 66.4349 261.641 66.2574C267.186 66.0878 273.067 67.1461 277.256 70.7792C279.697 72.8984 281.328 76.0587 281.645 79.2348Z" fill="#263238"/>
<path d="M213.041 118.138C212.945 118.153 212.855 118.091 212.834 117.997C212.813 117.897 212.875 117.801 212.973 117.779C217.205 116.859 220.636 113.069 221.13 108.767C221.142 108.665 221.152 108.559 221.159 108.45C220.567 108.488 220.029 108.455 219.573 108.34C218.565 108.084 217.969 107.448 217.851 106.501C217.796 106.055 218.022 105.663 218.474 105.427C219.066 105.117 220.069 105.108 220.654 105.632C221.238 106.157 221.54 106.989 221.539 108.06C224.254 107.767 227.955 106.075 230.074 104.11C229.606 103.941 229.163 103.71 228.757 103.418C227.724 102.671 227.111 101.656 227.073 100.631C227.033 99.529 227.845 98.2654 229.085 98.2138C230.209 98.1674 231.096 99.1343 231.39 100.112C231.728 101.232 231.959 102.386 231.361 103.22C231.189 103.461 230.989 103.701 230.764 103.938C232.237 104.299 233.87 104.056 235.122 103.199C236.919 101.97 237.826 99.5476 237.278 97.4403C237.253 97.3423 237.311 97.2429 237.409 97.2178C237.496 97.1926 237.606 97.2509 237.632 97.3489C238.218 99.6005 237.249 102.189 235.328 103.503C233.932 104.457 232.092 104.699 230.467 104.238C228.308 106.306 224.394 108.11 221.53 108.418C221.522 108.545 221.511 108.676 221.495 108.808C220.983 113.26 217.433 117.183 213.053 118.136C213.049 118.136 213.045 118.137 213.042 118.138H213.041ZM219.13 105.599C218.951 105.627 218.784 105.679 218.643 105.752C218.422 105.868 218.168 106.084 218.214 106.456C218.314 107.252 218.801 107.767 219.663 107.986C220.098 108.096 220.609 108.128 221.173 108.092C221.179 107.306 221.016 106.447 220.41 105.904C220.087 105.614 219.573 105.529 219.13 105.598V105.599ZM228.944 98.5966C228.036 98.7356 227.408 99.7409 227.439 100.619C227.473 101.53 228.032 102.443 228.972 103.122C229.397 103.43 229.87 103.664 230.368 103.827C230.634 103.558 230.869 103.284 231.065 103.01C231.571 102.303 231.352 101.251 231.041 100.219C230.793 99.3966 230.029 98.5436 229.1 98.5807C229.047 98.582 228.996 98.5873 228.944 98.5952V98.5966Z" fill="black"/>
<path d="M262.633 103.108C262.081 103.193 261.511 103.234 260.934 103.209C259.108 103.132 257.447 102.339 256.486 101.11C253.066 100.956 249.727 98.878 248.106 95.8635C248.058 95.7747 248.091 95.6635 248.18 95.6158C248.266 95.5668 248.38 95.6012 248.428 95.69C249.946 98.5111 253.024 100.482 256.218 100.727C255.18 99.0555 255.518 96.7509 256.96 95.686C257.739 95.1111 258.845 94.9986 259.846 95.3933C260.738 95.7456 261.336 96.4198 261.49 97.2449C261.693 98.3403 261.123 99.5602 260.071 100.278C259.273 100.824 258.232 101.106 256.972 101.118C257.89 102.131 259.351 102.777 260.951 102.844C262.843 102.923 264.669 102.269 266.047 101.69C266.92 101.323 267.809 100.899 268.538 100.283C268.116 100.077 267.724 99.8211 267.369 99.5217C266.594 98.8648 266.059 97.8741 266.006 96.9959C265.972 96.4145 266.145 95.9006 266.508 95.5085C266.91 95.0754 267.52 94.8754 268.183 94.9588C268.963 95.0582 269.663 95.5178 270.012 96.1602C270.699 97.4317 270.21 98.9615 269.421 99.9111C269.347 99.9999 269.27 100.086 269.19 100.169C270.132 100.526 271.193 100.649 272.275 100.51C274.012 100.285 275.556 99.4065 276.473 98.1006C277.389 96.7946 277.695 95.0568 277.311 93.3337C276.927 91.6105 275.914 90.1668 274.531 89.3721C274.443 89.3218 274.413 89.2105 274.463 89.1231C274.514 89.0357 274.626 89.0052 274.712 89.0555C276.185 89.9006 277.262 91.4304 277.667 93.2542C278.073 95.078 277.747 96.9204 276.772 98.3112C275.796 99.7006 274.171 100.636 272.322 100.874C271.12 101.029 269.939 100.875 268.903 100.45C268.115 101.159 267.142 101.629 266.188 102.029C265.189 102.448 263.961 102.906 262.634 103.11L262.633 103.108ZM267.62 95.3257C267.285 95.3774 266.991 95.5257 266.775 95.7575C266.477 96.0794 266.34 96.4886 266.369 96.9747C266.417 97.7575 266.9 98.6476 267.604 99.2423C267.972 99.5535 268.383 99.8131 268.828 100.017C268.936 99.9098 269.041 99.7972 269.139 99.678C269.828 98.8502 270.292 97.4502 269.69 96.3337C269.402 95.8012 268.792 95.4039 268.138 95.3204C267.959 95.2979 267.785 95.2992 267.621 95.3244L267.62 95.3257ZM256.673 100.75C256.711 100.75 256.751 100.751 256.789 100.752C258.054 100.768 259.09 100.506 259.863 99.976C260.797 99.3376 261.306 98.2661 261.13 97.3111C261 96.6131 260.483 96.037 259.712 95.7324C258.841 95.388 257.845 95.4847 257.177 95.9787C255.878 96.939 255.585 99.0317 256.54 100.548C256.583 100.617 256.628 100.683 256.674 100.748L256.673 100.75Z" fill="black"/>
<path d="M285.471 136.233C284.599 138.993 282.994 141.887 280.329 144.434C280.329 144.434 280.317 145.124 280.24 146.313C279.885 152.293 278.116 170.903 269.807 177.119L270.517 205.862C270.517 205.862 272.955 221.763 254.386 226.091C235.815 230.418 224.656 222.965 215.398 211.949L216.114 155.025C216.114 155.025 206.719 156.466 202.386 147.514C198.054 138.562 201.783 129.113 208.842 131.728L208.586 130.066C208.21 127.616 207.843 125.224 207.843 125.224C207.843 125.224 216.148 124.335 221.295 119.891C223.293 118.164 224.818 115.903 225.194 112.946C225.194 112.946 240.483 111.34 241.712 100.056C241.712 100.056 262.553 115.354 276.68 101.351C276.68 101.351 278.901 106.188 279.177 112.804C279.393 117.972 279.615 125.313 279.615 125.313C279.615 125.313 284.452 123.091 285.73 126.595C286.481 128.646 286.71 132.311 285.471 136.237V136.233Z" fill="#FF9E79"/>
<path opacity="0.6" d="M232.95 173.155C232.95 173.155 253.512 191.455 269.807 177.12L270.052 187.06C270.052 187.06 251.397 196.958 232.95 173.155Z" fill="#602929"/>
<path d="M221.037 137.356C220.011 137.757 218.314 138.173 217.288 138.567C213.843 135.397 211.342 133.561 208.84 131.725C208.464 129.275 207.731 124.497 207.731 124.497C207.731 124.497 216.147 124.33 221.294 119.887C219.278 125.603 218.678 131.436 221.037 137.356Z" fill="#4D5060"/>
<path d="M230.483 124.62C230.483 124.62 242.828 116.989 249.59 119.869C252.954 121.303 251.291 124.232 249.676 124.493C248.062 124.754 242.74 124.623 240.21 125.364C237.68 126.105 231.921 127.369 231.223 127.15C230.525 126.932 229.348 125.798 230.481 124.62H230.483Z" fill="#1C1E33"/>
<path d="M261.353 122.505C260.523 122.547 259.518 122.499 259.11 121.776C258.639 120.942 259.367 119.931 260.145 119.371C261.986 118.042 264.339 117.556 266.607 117.676C268.874 117.795 271.074 118.481 273.184 119.319C274.04 119.66 275.049 120.309 274.87 121.212C274.692 122.119 273.509 122.334 272.584 122.346C268.816 122.399 265.119 122.287 261.353 122.505Z" fill="#1C1E33"/>
<path opacity="0.6" d="M255.778 145.966C255.595 145.993 255.417 145.879 255.37 145.698C255.318 145.502 255.435 145.302 255.629 145.25C257.925 144.642 260.012 143.415 261.668 141.702C261.755 141.609 261.778 141.465 261.722 141.34C259.731 136.939 258.314 132.294 257.509 127.534C257.474 127.335 257.609 127.146 257.808 127.113C258.039 127.087 258.196 127.213 258.229 127.412C259.024 132.111 260.423 136.697 262.388 141.04C262.57 141.44 262.493 141.899 262.195 142.211C260.446 144.02 258.242 145.315 255.817 145.958C255.804 145.962 255.792 145.964 255.779 145.966H255.778Z" fill="#602929"/>
<path opacity="0.32" d="M235.769 151.235C240.815 151.101 244.827 148.046 244.73 144.412C244.633 140.779 240.464 137.942 235.417 138.077C230.371 138.212 226.359 141.267 226.456 144.9C226.553 148.534 230.723 151.37 235.769 151.235Z" fill="#CC4C46"/>
<path opacity="0.32" d="M280.332 144.433C280.35 144.903 280.32 145.123 280.243 146.311C280.064 146.397 279.876 146.478 279.688 146.552C274.925 148.443 269.983 147.234 268.644 143.859C267.297 140.478 270.068 136.213 274.831 134.321C276.333 133.724 277.855 133.437 279.276 133.429C279.276 133.429 280.226 141.672 280.332 144.434V144.433Z" fill="#CC4C46"/>
<path opacity="0.6" d="M211.883 143.079C211.723 143.104 211.56 143.018 211.492 142.863C210.584 140.777 209.193 138.889 207.471 137.402C206.558 136.615 205.819 136.291 205.144 136.382C205.135 136.382 205.125 136.385 205.116 136.386C204.564 136.471 204.03 136.858 203.646 137.45C203.279 138.017 203.078 138.695 202.888 139.399C202.835 139.594 202.635 139.711 202.441 139.658C202.246 139.605 202.131 139.405 202.182 139.21C202.388 138.447 202.607 137.708 203.031 137.054C203.539 136.272 204.263 135.754 205.046 135.659C206.226 135.5 207.268 136.263 207.949 136.85C209.754 138.407 211.211 140.387 212.164 142.573C212.245 142.758 212.16 142.974 211.974 143.054C211.945 143.067 211.913 143.075 211.883 143.08V143.079Z" fill="#602929"/>
<path opacity="0.6" d="M206.396 146.157C206.258 146.178 206.114 146.118 206.033 145.992C204.284 143.27 204.289 139.473 206.046 136.757C206.156 136.586 206.382 136.538 206.552 136.648C206.722 136.758 206.771 136.984 206.661 137.154C205.054 139.637 205.049 143.109 206.649 145.598C206.759 145.767 206.709 145.994 206.539 146.102C206.494 146.131 206.446 146.149 206.397 146.155L206.396 146.157Z" fill="#602929"/>
<path d="M244.081 139.607C245.491 139.504 246.477 137.298 246.285 134.68C246.093 132.063 244.795 130.025 243.385 130.128C241.976 130.232 240.989 132.437 241.181 135.055C241.373 137.673 242.672 139.711 244.081 139.607Z" fill="#1C1E33"/>
<path d="M245.367 133.52C245.428 133.919 245.316 134.267 245.116 134.299C244.916 134.33 244.706 134.032 244.644 133.632C244.583 133.233 244.694 132.885 244.894 132.853C245.094 132.821 245.305 133.12 245.367 133.52Z" fill="#263238"/>
<path d="M244.225 138.136C244.824 138.044 245.185 137.16 245.032 136.163C244.879 135.165 244.27 134.43 243.671 134.522C243.072 134.614 242.711 135.497 242.864 136.495C243.017 137.493 243.626 138.227 244.225 138.136Z" fill="black"/>
<path d="M267.21 136.057C268.62 135.954 269.606 133.748 269.414 131.13C269.222 128.513 267.923 126.475 266.514 126.578C265.105 126.682 264.118 128.888 264.31 131.505C264.502 134.123 265.801 136.161 267.21 136.057Z" fill="#1C1E33"/>
<path d="M268.607 130.697C268.668 131.096 268.557 131.444 268.357 131.476C268.157 131.508 267.946 131.208 267.884 130.808C267.823 130.41 267.934 130.061 268.134 130.03C268.334 129.998 268.545 130.297 268.607 130.697Z" fill="#263238"/>
<path d="M268.16 132.613C268.313 133.61 267.952 134.493 267.353 134.586C266.754 134.678 266.145 133.944 265.991 132.945C265.838 131.948 266.199 131.064 266.798 130.972C267.397 130.88 268.006 131.614 268.16 132.613Z" fill="black"/>
<path opacity="0.6" d="M284.314 127.724C282.37 127.726 280.657 129.443 280.646 131.385C280.646 131.586 280.807 131.751 281.008 131.753C281.028 131.753 281.048 131.751 281.067 131.749C281.242 131.722 281.375 131.573 281.377 131.39C281.382 130.547 281.818 129.753 282.456 129.2C283.814 131.163 284.101 133.834 283.177 136.036C283.098 136.223 283.186 136.436 283.373 136.514C283.438 136.541 283.505 136.549 283.569 136.538C283.691 136.52 283.799 136.44 283.851 136.318C284.869 133.893 284.553 130.951 283.059 128.789C283.448 128.585 283.875 128.457 284.317 128.455C284.522 128.457 284.683 128.291 284.681 128.088C284.681 127.887 284.516 127.724 284.314 127.725V127.724Z" fill="#602929"/>
<path d="M270.945 126.657C265.232 127.533 260.939 130.337 260.366 133.343C259.253 132.794 257.972 132.613 256.75 132.857C255.506 133.106 254.376 133.783 253.559 134.743C252.326 131.831 247.08 130.311 240.949 131.252C236.62 131.915 233.084 133.619 231.267 135.67L209.222 130.963L209.073 131.657L230.778 136.29C230.126 137.229 229.823 138.223 229.975 139.212C230.502 142.65 236.149 144.542 242.831 143.518C249.494 142.495 254.304 139.015 253.807 135.586C254.522 134.556 255.664 133.799 256.892 133.552C258.039 133.33 259.29 133.538 260.312 134.115C260.316 134.262 260.316 134.409 260.338 134.556C260.865 137.992 266.35 139.906 272.825 138.913C279.301 137.919 283.96 134.45 283.433 131.015C282.906 127.579 277.421 125.665 270.946 126.658L270.945 126.657ZM242.722 142.816C236.538 143.764 231.134 142.099 230.676 139.105C230.216 136.11 234.873 132.902 241.057 131.952C247.241 131.004 252.645 132.669 253.105 135.664C253.565 138.658 248.908 141.866 242.724 142.815L242.722 142.816ZM272.718 138.221C266.731 139.139 261.486 137.448 261.027 134.449C260.99 134.207 260.996 133.964 261.021 133.721V133.718C261.317 130.95 265.549 128.192 271.049 127.348C277.036 126.431 282.281 128.122 282.741 131.121C283.2 134.119 278.704 137.305 272.717 138.223L272.718 138.221Z" fill="#263238"/>
<path opacity="0.6" d="M257.171 157.53C254.453 157.53 251.743 156.787 249.501 155.263C249.291 155.122 249.237 154.836 249.379 154.628C249.52 154.418 249.805 154.367 250.014 154.506C254.792 157.752 261.842 157.209 266.066 153.27C266.25 153.098 266.54 153.109 266.712 153.293C266.885 153.478 266.874 153.767 266.69 153.939C264.15 156.309 260.653 157.53 257.169 157.53H257.171Z" fill="#602929"/>
<path opacity="0.6" d="M258.797 161.388C257.872 161.388 256.944 161.189 256.097 160.779C255.869 160.667 255.775 160.394 255.885 160.167C255.995 159.94 256.269 159.845 256.497 159.955C258.55 160.952 261.268 160.439 262.815 158.76C262.987 158.573 263.276 158.563 263.461 158.734C263.646 158.904 263.658 159.194 263.487 159.38C262.285 160.685 260.542 161.388 258.797 161.388Z" fill="#602929"/>
<path d="M382.023 370.713H221.635C214.275 370.713 208.586 364.252 209.517 356.951L221.9 259.827C222.677 253.726 227.868 249.155 234.018 249.155H394.405C401.766 249.155 407.454 255.616 406.523 262.917L394.14 360.041C393.363 366.142 388.172 370.713 382.023 370.713Z" fill="#7D8488"/>
<path d="M322.611 317.736C326.915 313.432 326.915 306.453 322.611 302.148C318.306 297.844 311.327 297.844 307.023 302.148C302.718 306.453 302.718 313.432 307.023 317.736C311.327 322.041 318.306 322.041 322.611 317.736Z" fill="#646A6D"/>
<path d="M171.186 362.845H223.763V370.715H163.664C163.567 370.715 163.489 370.637 163.489 370.54C163.489 366.29 166.936 362.844 171.186 362.844V362.845Z" fill="#6D6D78"/>
<path d="M265.807 394.707C407.352 394.707 522.097 389.23 522.097 382.473C522.097 375.716 407.352 370.238 265.807 370.238C124.262 370.238 9.5166 375.716 9.5166 382.473C9.5166 389.23 124.262 394.707 265.807 394.707Z" fill="#BEC8EB"/>
<path d="M511.487 379.865H19.7136C17.0553 379.865 14.9004 377.71 14.9004 375.052C14.9004 372.393 17.0553 370.238 19.7136 370.238H511.487C514.146 370.238 516.301 372.393 516.301 375.052C516.301 377.71 514.146 379.865 511.487 379.865Z" fill="#3E3E45"/>
</svg>
