<svg width="140" height="32" viewBox="0 0 140 32" fill="none" xmlns="http://www.w3.org/2000/svg">
<path d="M133.662 1.2666H6.33832C3.26762 1.2666 0.77832 3.7559 0.77832 6.8266V25.1746C0.77832 28.2453 3.26762 30.7346 6.33832 30.7346H133.662C136.733 30.7346 139.222 28.2453 139.222 25.1746V6.8266C139.222 3.7559 136.733 1.2666 133.662 1.2666Z" fill="white" stroke="#FF6154" stroke-width="0.556"/>
<path d="M30.2848 12.1045V8.46522H31.0542V11.4701H32.6144V12.1045H30.2848ZM33.124 12.1045V8.46522H35.5762V9.0996H33.8934V9.96677H35.4501V10.6012H33.8934V11.4701H35.5833V12.1045H33.124ZM36.8152 12.1045H35.9907L37.2471 8.46522H38.2386L39.4932 12.1045H38.6686L37.757 9.29685H37.7286L36.8152 12.1045ZM36.7637 10.674H38.7113V11.2746H36.7637V10.674ZM40.1342 8.46522L41.0138 11.2302H41.0476L41.929 8.46522H42.7819L41.5274 12.1045H40.5358L39.2795 8.46522H40.1342ZM43.22 12.1045V8.46522H45.6722V9.0996H43.9894V9.96677H45.546V10.6012H43.9894V11.4701H45.6793V12.1045H43.22ZM48.0694 12.1045H47.2448L48.5012 8.46522H49.4927L50.7473 12.1045H49.9228L49.0112 9.29685H48.9827L48.0694 12.1045ZM48.0178 10.674H49.9654V11.2746H48.0178V10.674ZM52.3435 12.1045V8.46522H53.7793C54.0541 8.46522 54.2887 8.51438 54.483 8.61271C54.6784 8.70985 54.8271 8.84786 54.929 9.02675C55.032 9.20445 55.0836 9.41354 55.0836 9.65402C55.0836 9.8957 55.0314 10.1036 54.9272 10.2777C54.8229 10.4507 54.6719 10.5834 54.4741 10.6758C54.2774 10.7682 54.0393 10.8144 53.7597 10.8144H52.7984V10.196H53.6353C53.7822 10.196 53.9042 10.1759 54.0014 10.1356C54.0985 10.0953 54.1708 10.0349 54.2182 9.95434C54.2668 9.87378 54.291 9.77368 54.291 9.65402C54.291 9.53319 54.2668 9.43131 54.2182 9.34838C54.1708 9.26546 54.0979 9.20267 53.9996 9.16002C53.9025 9.11619 53.7799 9.09427 53.6318 9.09427H53.1129V12.1045H52.3435ZM54.3088 10.4483L55.2133 12.1045H54.3639L53.479 10.4483H54.3088ZM55.6273 12.1045V8.46522H58.0796V9.0996H56.3968V9.96677H57.9534V10.6012H56.3968V11.4701H58.0867V12.1045H55.6273ZM59.3488 8.46522L60.2284 11.2302H60.2622L61.1435 8.46522H61.9965L60.7419 12.1045H59.7504L58.4941 8.46522H59.3488ZM63.204 8.46522V12.1045H62.4345V8.46522H63.204ZM63.837 12.1045V8.46522H66.2893V9.0996H64.6065V9.96677H66.1631V10.6012H64.6065V11.4701H66.2964V12.1045H63.837ZM67.7202 12.1045L66.6789 8.46522H67.5194L68.1218 10.9939H68.152L68.8166 8.46522H69.5363L70.1991 10.9992H70.2311L70.8335 8.46522H71.674L70.6327 12.1045H69.8828L69.1898 9.7251H69.1613L68.4701 12.1045H67.7202ZM76.5882 10.2849C76.5882 10.6817 76.513 11.0193 76.3626 11.2977C76.2133 11.5761 76.0095 11.7888 75.7513 11.9357C75.4942 12.0814 75.2052 12.1542 74.8841 12.1542C74.5607 12.1542 74.2705 12.0808 74.0134 11.9339C73.7563 11.787 73.5531 11.5744 73.4039 11.296C73.2546 11.0176 73.18 10.6805 73.18 10.2849C73.18 9.888 73.2546 9.55037 73.4039 9.27197C73.5531 8.99358 73.7563 8.78152 74.0134 8.63581C74.2705 8.48891 74.5607 8.41546 74.8841 8.41546C75.2052 8.41546 75.4942 8.48891 75.7513 8.63581C76.0095 8.78152 76.2133 8.99358 76.3626 9.27197C76.513 9.55037 76.5882 9.888 76.5882 10.2849ZM75.8081 10.2849C75.8081 10.0278 75.7696 9.81099 75.6926 9.63448C75.6168 9.45796 75.5096 9.3241 75.371 9.23288C75.2324 9.14166 75.0701 9.09605 74.8841 9.09605C74.6981 9.09605 74.5358 9.14166 74.3972 9.23288C74.2586 9.3241 74.1508 9.45796 74.0738 9.63448C73.998 9.81099 73.9601 10.0278 73.9601 10.2849C73.9601 10.5419 73.998 10.7587 74.0738 10.9352C74.1508 11.1117 74.2586 11.2456 74.3972 11.3368C74.5358 11.4281 74.6981 11.4737 74.8841 11.4737C75.0701 11.4737 75.2324 11.4281 75.371 11.3368C75.5096 11.2456 75.6168 11.1117 75.6926 10.9352C75.7696 10.7587 75.8081 10.5419 75.8081 10.2849ZM80.2022 8.46522V12.1045H79.5376L77.9543 9.81395H77.9276V12.1045H77.1582V8.46522H77.8335L79.4043 10.754H79.4363V8.46522H80.2022Z" fill="#FF6154"/>
<path d="M29.9749 23.332V16.8622H32.5275C33.0182 16.8622 33.4362 16.9559 33.7816 17.1434C34.127 17.3287 34.3903 17.5867 34.5714 17.9173C34.7546 18.2459 34.8462 18.625 34.8462 19.0546C34.8462 19.4843 34.7536 19.8633 34.5682 20.1919C34.3829 20.5204 34.1144 20.7763 33.7627 20.9596C33.4131 21.1428 32.9897 21.2344 32.4927 21.2344H30.8658V20.1382H32.2716C32.5348 20.1382 32.7518 20.0929 32.9223 20.0023C33.095 19.9097 33.2235 19.7823 33.3078 19.6201C33.3941 19.4558 33.4373 19.2673 33.4373 19.0546C33.4373 18.8398 33.3941 18.6524 33.3078 18.4923C33.2235 18.3301 33.095 18.2048 32.9223 18.1164C32.7497 18.0258 32.5306 17.9805 32.2653 17.9805H31.3428V23.332H29.9749ZM35.7095 23.332V18.4797H37.0142V19.3263H37.0647C37.1532 19.0251 37.3016 18.7977 37.5101 18.6439C37.7186 18.4881 37.9587 18.4102 38.2304 18.4102C38.2978 18.4102 38.3705 18.4144 38.4484 18.4228C38.5263 18.4312 38.5948 18.4428 38.6537 18.4576V19.6517C38.5905 19.6327 38.5031 19.6159 38.3915 19.6011C38.2799 19.5864 38.1778 19.579 38.0851 19.579C37.8871 19.579 37.7102 19.6222 37.5544 19.7086C37.4006 19.7928 37.2785 19.9107 37.1879 20.0624C37.0995 20.214 37.0552 20.3888 37.0552 20.5868V23.332H35.7095ZM41.3161 23.4268C40.8253 23.4268 40.401 23.3226 40.0429 23.1141C39.687 22.9034 39.4122 22.6107 39.2184 22.2358C39.0247 21.8588 38.9278 21.4218 38.9278 20.9248C38.9278 20.4236 39.0247 19.9855 39.2184 19.6106C39.4122 19.2336 39.687 18.9409 40.0429 18.7324C40.401 18.5218 40.8253 18.4165 41.3161 18.4165C41.8068 18.4165 42.2301 18.5218 42.586 18.7324C42.944 18.9409 43.2199 19.2336 43.4137 19.6106C43.6074 19.9855 43.7043 20.4236 43.7043 20.9248C43.7043 21.4218 43.6074 21.8588 43.4137 22.2358C43.2199 22.6107 42.944 22.9034 42.586 23.1141C42.2301 23.3226 41.8068 23.4268 41.3161 23.4268ZM41.3224 22.3843C41.5456 22.3843 41.732 22.3211 41.8815 22.1948C42.0311 22.0663 42.1437 21.8915 42.2196 21.6703C42.2975 21.4492 42.3364 21.1975 42.3364 20.9153C42.3364 20.6331 42.2975 20.3814 42.2196 20.1603C42.1437 19.9392 42.0311 19.7644 41.8815 19.6359C41.732 19.5074 41.5456 19.4432 41.3224 19.4432C41.097 19.4432 40.9075 19.5074 40.7537 19.6359C40.6021 19.7644 40.4873 19.9392 40.4094 20.1603C40.3336 20.3814 40.2957 20.6331 40.2957 20.9153C40.2957 21.1975 40.3336 21.4492 40.4094 21.6703C40.4873 21.8915 40.6021 22.0663 40.7537 22.1948C40.9075 22.3211 41.097 22.3843 41.3224 22.3843ZM46.3674 23.411C45.9989 23.411 45.6651 23.3162 45.366 23.1267C45.0691 22.935 44.8332 22.6539 44.6584 22.2832C44.4857 21.9104 44.3993 21.4534 44.3993 20.9122C44.3993 20.3562 44.4888 19.8939 44.6678 19.5253C44.8469 19.1547 45.0848 18.8777 45.3818 18.6945C45.6809 18.5092 46.0084 18.4165 46.3643 18.4165C46.636 18.4165 46.8624 18.4628 47.0435 18.5555C47.2267 18.646 47.3741 18.7598 47.4858 18.8967C47.5995 19.0315 47.6858 19.1641 47.7448 19.2947H47.7859V16.8622H49.1285V23.332H47.8017V22.5549H47.7448C47.6816 22.6897 47.5921 22.8234 47.4763 22.9561C47.3626 23.0867 47.2141 23.1951 47.0308 23.2815C46.8497 23.3678 46.6286 23.411 46.3674 23.411ZM46.7939 22.3401C47.0108 22.3401 47.1941 22.2811 47.3436 22.1632C47.4952 22.0431 47.6111 21.8757 47.6911 21.6609C47.7732 21.4461 47.8143 21.1944 47.8143 20.9058C47.8143 20.6173 47.7743 20.3667 47.6943 20.154C47.6142 19.9413 47.4984 19.777 47.3468 19.6612C47.1951 19.5453 47.0108 19.4874 46.7939 19.4874C46.5728 19.4874 46.3864 19.5474 46.2348 19.6675C46.0831 19.7875 45.9683 19.9539 45.8904 20.1666C45.8125 20.3793 45.7735 20.6257 45.7735 20.9058C45.7735 21.1881 45.8125 21.4376 45.8904 21.6546C45.9704 21.8694 46.0852 22.0379 46.2348 22.16C46.3864 22.2801 46.5728 22.3401 46.7939 22.3401ZM53.3467 21.266V18.4797H54.6924V23.332H53.4004V22.4506H53.3498C53.2403 22.735 53.0581 22.9635 52.8033 23.1362C52.5506 23.3089 52.242 23.3952 51.8777 23.3952C51.5533 23.3952 51.268 23.3215 51.0216 23.1741C50.7752 23.0267 50.5825 22.8171 50.4435 22.5454C50.3066 22.2737 50.2371 21.9483 50.235 21.5693V18.4797H51.5807V21.3292C51.5828 21.6156 51.6597 21.842 51.8113 22.0084C51.963 22.1748 52.1662 22.2579 52.421 22.2579C52.5832 22.2579 52.7348 22.2211 52.876 22.1474C53.0171 22.0716 53.1308 21.9599 53.2171 21.8125C53.3056 21.6651 53.3488 21.4829 53.3467 21.266ZM57.9613 23.4268C57.4643 23.4268 57.0367 23.3215 56.6787 23.1109C56.3228 22.8982 56.049 22.6033 55.8573 22.2263C55.6678 21.8494 55.573 21.4155 55.573 20.9248C55.573 20.4278 55.6689 19.9918 55.8605 19.6169C56.0543 19.24 56.3291 18.9462 56.685 18.7356C57.041 18.5228 57.4643 18.4165 57.955 18.4165C58.3783 18.4165 58.749 18.4934 59.067 18.6471C59.385 18.8008 59.6367 19.0167 59.822 19.2947C60.0073 19.5727 60.1095 19.8992 60.1284 20.274H58.8585C58.8227 20.0318 58.7279 19.837 58.5742 19.6896C58.4225 19.5401 58.2235 19.4653 57.9771 19.4653C57.7686 19.4653 57.5864 19.5222 57.4306 19.6359C57.2768 19.7475 57.1568 19.9107 57.0704 20.1256C56.9841 20.3404 56.9409 20.6005 56.9409 20.9058C56.9409 21.2154 56.983 21.4787 57.0673 21.6956C57.1536 21.9125 57.2747 22.0779 57.4306 22.1916C57.5864 22.3053 57.7686 22.3622 57.9771 22.3622C58.1308 22.3622 58.2688 22.3306 58.3909 22.2674C58.5152 22.2042 58.6173 22.1126 58.6974 21.9926C58.7795 21.8704 58.8332 21.7241 58.8585 21.5535H60.1284C60.1074 21.9241 60.0063 22.2506 59.8252 22.5328C59.6462 22.8129 59.3987 23.0319 59.0828 23.1899C58.7669 23.3478 58.393 23.4268 57.9613 23.4268ZM63.5711 18.4797V19.4906H60.6489V18.4797H63.5711ZM61.3123 17.3171H62.6581V21.8409C62.6581 21.9652 62.677 22.0621 62.7149 22.1316C62.7529 22.199 62.8055 22.2464 62.8729 22.2737C62.9424 22.3011 63.0224 22.3148 63.113 22.3148C63.1762 22.3148 63.2394 22.3095 63.3025 22.299C63.3657 22.2864 63.4142 22.2769 63.4479 22.2706L63.6595 23.272C63.5921 23.2931 63.4973 23.3173 63.3752 23.3447C63.253 23.3742 63.1046 23.3921 62.9298 23.3984C62.6054 23.411 62.3211 23.3678 62.0768 23.2688C61.8346 23.1699 61.6461 23.0161 61.5113 22.8076C61.3765 22.5991 61.3102 22.3359 61.3123 22.0178V17.3171ZM66.5319 23.332V16.8622H67.8998V19.5316H70.6766V16.8622H72.0414V23.332H70.6766V20.6594H67.8998V23.332H66.5319ZM76.2556 21.266V18.4797H77.6014V23.332H76.3093V22.4506H76.2588C76.1492 22.735 75.9671 22.9635 75.7122 23.1362C75.4595 23.3089 75.151 23.3952 74.7866 23.3952C74.4623 23.3952 74.1769 23.3215 73.9305 23.1741C73.6841 23.0267 73.4914 22.8171 73.3524 22.5454C73.2155 22.2737 73.146 21.9483 73.1439 21.5693V18.4797H74.4897V21.3292C74.4918 21.6156 74.5686 21.842 74.7203 22.0084C74.8719 22.1748 75.0751 22.2579 75.33 22.2579C75.4921 22.2579 75.6438 22.2211 75.7849 22.1474C75.926 22.0716 76.0397 21.9599 76.1261 21.8125C76.2145 21.6651 76.2577 21.4829 76.2556 21.266ZM80.0236 20.5268V23.332H78.6778V18.4797H79.9604V19.3358H80.0173C80.1247 19.0536 80.3048 18.8303 80.5575 18.6661C80.8102 18.4997 81.1166 18.4165 81.4768 18.4165C81.8138 18.4165 82.1076 18.4902 82.3582 18.6376C82.6088 18.785 82.8036 18.9957 82.9426 19.2694C83.0816 19.5411 83.1511 19.8655 83.1511 20.2424V23.332H81.8053V20.4825C81.8074 20.1856 81.7316 19.9539 81.5779 19.7875C81.4241 19.619 81.2125 19.5348 80.9429 19.5348C80.7618 19.5348 80.6017 19.5738 80.4627 19.6517C80.3258 19.7296 80.2184 19.8433 80.1405 19.9929C80.0647 20.1403 80.0257 20.3183 80.0236 20.5268ZM86.7927 18.4797V19.4906H83.8706V18.4797H86.7927ZM84.534 17.3171H85.8798V21.8409C85.8798 21.9652 85.8987 22.0621 85.9366 22.1316C85.9745 22.199 86.0272 22.2464 86.0946 22.2737C86.1641 22.3011 86.2441 22.3148 86.3347 22.3148C86.3979 22.3148 86.461 22.3095 86.5242 22.299C86.5874 22.2864 86.6358 22.2769 86.6695 22.2706L86.8812 23.272C86.8138 23.2931 86.719 23.3173 86.5969 23.3447C86.4747 23.3742 86.3263 23.3921 86.1514 23.3984C85.8271 23.411 85.5428 23.3678 85.2985 23.2688C85.0563 23.1699 84.8678 23.0161 84.733 22.8076C84.5982 22.5991 84.5319 22.3359 84.534 22.0178V17.3171Z" fill="#FF6154"/>
<path fill-rule="evenodd" clip-rule="evenodd" d="M134.75 14.1264L128.313 13.9512L126.157 7.88281L124 13.9512L117.563 14.1264L122.669 18.0518L120.846 24.2292L126.157 20.5871L131.468 24.2292L129.645 18.0526L134.75 14.1264ZM126.157 18.6995L123.578 20.4672L124.464 17.4696L121.986 15.5641L125.11 15.4792L126.157 12.533L127.203 15.4784L130.327 15.5633L127.85 17.4688L128.735 20.4664L126.157 18.6995Z" fill="#FF6154"/>
<path fill-rule="evenodd" clip-rule="evenodd" d="M23.8522 16.2782C23.8522 21.0377 19.9938 24.8962 15.2342 24.8962C10.4746 24.8962 6.61621 21.0377 6.61621 16.2782C6.61621 11.5186 10.4746 7.66016 15.2342 7.66016C19.9938 7.66016 23.8522 11.5186 23.8522 16.2782Z" fill="#FF6154"/>
<path fill-rule="evenodd" clip-rule="evenodd" d="M16.309 16.5317L13.8959 16.5317V13.9463H16.309C17.0145 13.9463 17.5865 14.525 17.5865 15.239C17.5865 15.9529 17.0145 16.5317 16.309 16.5317ZM16.309 12.2227H12.1926V20.8407H13.8959V18.2553H16.309C17.9553 18.2553 19.2898 16.9048 19.2898 15.239C19.2898 13.5731 17.9553 12.2227 16.309 12.2227Z" fill="white"/>
</svg>
