<svg width="93" height="93" viewBox="0 0 93 93" fill="none" xmlns="http://www.w3.org/2000/svg">
<path fill-rule="evenodd" clip-rule="evenodd" d="M21.444 19.4971C16.8126 19.4971 13.0581 23.2516 13.0581 27.883V64.7811C13.0581 69.4125 16.8126 73.167 21.444 73.167H71.7596C76.391 73.167 80.1455 69.4125 80.1455 64.7811V27.883C80.1455 23.2516 76.391 19.4971 71.7596 19.4971H21.444ZM16.4125 27.883C16.4125 25.1041 18.6652 22.8514 21.444 22.8514H71.7596C74.5384 22.8514 76.7911 25.1041 76.7911 27.883V31.2402H16.4125V27.883ZM16.4125 34.5946V64.7811C16.4125 67.5599 18.6652 69.8126 21.444 69.8126H71.7596C74.5384 69.8126 76.7911 67.5599 76.7911 64.7811V34.5946H16.4125ZM23.1209 27.3212C23.1209 28.2475 22.37 28.9984 21.4437 28.9984C20.5174 28.9984 19.7665 28.2475 19.7665 27.3212C19.7665 26.3949 20.5174 25.644 21.4437 25.644C22.37 25.644 23.1209 26.3949 23.1209 27.3212ZM27.9886 28.9984C28.9149 28.9984 29.6658 28.2475 29.6658 27.3212C29.6658 26.3949 28.9149 25.644 27.9886 25.644C27.0624 25.644 26.3115 26.3949 26.3115 27.3212C26.3115 28.2475 27.0624 28.9984 27.9886 28.9984Z" fill="#0A2540"/>
<circle cx="46.6025" cy="51.9975" r="9.79004" stroke="#0A2540" stroke-width="3.35437"/>
<path d="M35.1353 43.4912L37.3633 41.2632" stroke="#0A2540" stroke-width="3.35437" stroke-linecap="round"/>
<path d="M58.0703 43.4912L55.8423 41.2632" stroke="#0A2540" stroke-width="3.35437" stroke-linecap="round"/>
<path d="M54.8584 62.792L52.6304 60.564" stroke="#0A2540" stroke-width="3.35437" stroke-linecap="round"/>
<path d="M38.1602 62.792L40.3882 60.564" stroke="#0A2540" stroke-width="3.35437" stroke-linecap="round"/>
<path d="M44.3765 48.8027L41.6397 51.3859C41.2854 51.7203 41.2854 52.284 41.6397 52.6184L44.3765 55.2015" stroke="#0A2540" stroke-width="2.6835" stroke-linecap="round"/>
<path d="M48.831 48.8027L51.5678 51.3859C51.9221 51.7203 51.9221 52.284 51.5678 52.6184L48.831 55.2015" stroke="#0A2540" stroke-width="2.6835" stroke-linecap="round"/>
</svg>
