<svg width="93" height="93" viewBox="0 0 93 93" fill="none" xmlns="http://www.w3.org/2000/svg">
<path fill-rule="evenodd" clip-rule="evenodd" d="M21.0136 19.0381C16.303 19.0381 12.4844 22.8568 12.4844 27.5673V65.096C12.4844 69.8065 16.303 73.6252 21.0136 73.6252H72.189C76.8996 73.6252 80.7183 69.8065 80.7183 65.096V27.5673C80.7183 22.8568 76.8996 19.0381 72.189 19.0381H21.0136ZM15.8961 27.5673C15.8961 24.741 18.1873 22.4498 21.0136 22.4498H72.189C75.0154 22.4498 77.3066 24.741 77.3066 27.5673V30.9806H15.8961V27.5673ZM15.8961 34.3923V65.096C15.8961 67.9223 18.1873 70.2135 21.0136 70.2135H72.189C75.0154 70.2135 77.3066 67.9223 77.3066 65.096V34.3923H15.8961ZM22.7195 26.9951C22.7195 27.9372 21.9557 28.701 21.0136 28.701C20.0715 28.701 19.3078 27.9372 19.3078 26.9951C19.3078 26.053 20.0715 25.2893 21.0136 25.2893C21.9557 25.2893 22.7195 26.053 22.7195 26.9951ZM27.6705 28.701C28.6126 28.701 29.3764 27.9372 29.3764 26.9951C29.3764 26.053 28.6126 25.2893 27.6705 25.2893C26.7284 25.2893 25.9647 26.053 25.9647 26.9951C25.9647 27.9372 26.7284 28.701 27.6705 28.701Z" fill="#0A2540"/>
<path d="M23.1104 41.1611H43.189" stroke="#0A2540" stroke-width="3.41169" stroke-linecap="round"/>
<path d="M23.1104 47.8193H34.2529" stroke="#0A2540" stroke-width="3.41169" stroke-linecap="round"/>
<path d="M53.7233 49.6514L47.9734 55.0785C47.2289 55.7812 47.2289 56.9654 47.9734 57.668L53.7233 63.0952" stroke="#0A2540" stroke-width="3.41169" stroke-linecap="round"/>
<path d="M61.411 49.6514L67.1609 55.0785C67.9054 55.7812 67.9054 56.9654 67.1609 57.668L61.411 63.0952" stroke="#0A2540" stroke-width="3.41169" stroke-linecap="round"/>
</svg>
