<svg width="93" height="93" viewBox="0 0 93 93" fill="none" xmlns="http://www.w3.org/2000/svg">
<path fill-rule="evenodd" clip-rule="evenodd" d="M21.5992 19.5791C16.939 19.5791 13.1611 23.357 13.1611 28.0172V65.1449C13.1611 69.8051 16.939 73.583 21.5992 73.583H72.2279C76.8881 73.583 80.666 69.8051 80.666 65.1449V28.0172C80.666 23.357 76.8881 19.5791 72.2279 19.5791H21.5992ZM16.5364 28.0172C16.5364 25.2211 18.8031 22.9543 21.5992 22.9543H72.2279C75.024 22.9543 77.2908 25.2211 77.2908 28.0172V31.3955H16.5364V28.0172ZM16.5364 34.7708V65.1449C16.5364 67.941 18.8031 70.2078 21.5992 70.2078H72.2279C75.024 70.2078 77.2908 67.941 77.2908 65.1449V34.7708H16.5364ZM23.2864 27.4531C23.2864 28.385 22.531 29.1404 21.5991 29.1404C20.6672 29.1404 19.9118 28.385 19.9118 27.4531C19.9118 26.5212 20.6672 25.7658 21.5991 25.7658C22.531 25.7658 23.2864 26.5212 23.2864 27.4531ZM28.1845 29.1404C29.1164 29.1404 29.8719 28.385 29.8719 27.4531C29.8719 26.5212 29.1164 25.7658 28.1845 25.7658C27.2527 25.7658 26.4972 26.5212 26.4972 27.4531C26.4972 28.385 27.2527 29.1404 28.1845 29.1404Z" fill="#0A2540"/>
<path d="M46.9148 42.2295L30.822 48.6666C30.5391 48.7798 30.5391 49.1802 30.822 49.2934L46.9148 55.7305L63.0076 49.2934C63.2904 49.1802 63.2904 48.7798 63.0076 48.6666L46.9148 42.2295Z" stroke="#0A2540" stroke-width="2.36267"/>
<path d="M35.1016 50.332V56.712L46.9146 61.3061L58.7275 56.712V50.5661" stroke="#0A2540" stroke-width="2.36267" stroke-linejoin="round"/>
<path d="M59.2347 62.5963C59.2347 63.2488 59.7636 63.7777 60.416 63.7777C61.0684 63.7777 61.5974 63.2488 61.5974 62.5963H59.2347ZM59.2347 49.9609V62.5963H61.5974V49.9609H59.2347Z" fill="#0A2540"/>
</svg>
