<svg width="93" height="93" viewBox="0 0 93 93" fill="none" xmlns="http://www.w3.org/2000/svg">
<path fill-rule="evenodd" clip-rule="evenodd" d="M34.3473 38.4375C31.7123 38.4375 29.5762 40.5736 29.5762 43.2086V56.9813C29.5762 59.7715 31.8381 62.0335 34.6283 62.0335H43.4804C43.3247 61.3297 43.2427 60.5983 43.2427 59.8478C43.2427 59.4511 43.2656 59.0598 43.3102 58.6751H34.6283C33.6929 58.6751 32.9345 57.9168 32.9345 56.9813V43.2086C32.9345 42.4284 33.5671 41.7959 34.3473 41.7959H37.9929C37.4609 42.4456 37.1653 43.2634 37.1653 44.1133V44.2767C37.1653 47.2997 39.6159 49.7504 42.639 49.7504C45.6621 49.7504 48.1127 47.2997 48.1127 44.2767V44.1133C48.1127 43.2634 47.8171 42.4456 47.2851 41.7959H50.3556C50.9878 41.7959 51.5002 42.3083 51.5002 42.9405V46.6086C51.5002 49.2667 54.714 50.5978 56.5935 48.7183L57.1259 48.1859C57.204 48.1078 57.3099 48.0639 57.4204 48.0639H57.5783C58.8785 48.0639 59.9326 49.118 59.9326 50.4182C59.9326 50.9573 59.7513 51.4541 59.4465 51.851C60.3444 52.5402 61.1229 53.3772 61.7456 54.3257C62.704 53.3039 63.2909 51.9296 63.2909 50.4182C63.2909 47.2632 60.7333 44.7056 57.5783 44.7056H57.4204C56.469 44.7056 55.5547 45.0647 54.8586 45.7079V42.9405C54.8586 40.4536 52.8426 38.4375 50.3556 38.4375H46.1022C43.4905 38.4375 42.2325 41.6394 44.1458 43.4172L44.6586 43.8937C44.7197 43.9504 44.7544 44.03 44.7544 44.1133V44.2767C44.7544 45.445 43.8073 46.392 42.639 46.392C41.4707 46.392 40.5236 45.445 40.5236 44.2767V44.1133C40.5236 44.03 40.5583 43.9504 40.6194 43.8937L41.1322 43.4172C43.0455 41.6394 41.7876 38.4375 39.1758 38.4375H34.3473Z" fill="#0A2540"/>
<path fill-rule="evenodd" clip-rule="evenodd" d="M21.4135 19.4648C16.7766 19.4648 13.0176 23.2238 13.0176 27.8608V64.8029C13.0176 69.4398 16.7766 73.1988 21.4135 73.1988H71.7891C76.4261 73.1988 80.1851 69.4398 80.1851 64.8029V27.8608C80.1851 23.2238 76.4261 19.4648 71.7891 19.4648H21.4135ZM16.376 27.8608C16.376 25.0786 18.6313 22.8232 21.4135 22.8232H71.7891C74.5713 22.8232 76.8267 25.0786 76.8267 27.8608V31.2207H16.376V27.8608ZM16.376 34.5791V64.8029C16.376 67.5851 18.6313 69.8405 21.4135 69.8405H71.7891C74.5713 69.8405 76.8267 67.5851 76.8267 64.8029V34.5791H16.376ZM23.0926 27.2978C23.0926 28.2251 22.3409 28.9769 21.4135 28.9769C20.4861 28.9769 19.7344 28.2251 19.7344 27.2978C19.7344 26.3704 20.4861 25.6186 21.4135 25.6186C22.3409 25.6186 23.0926 26.3704 23.0926 27.2978ZM27.9667 28.9769C28.8941 28.9769 29.6459 28.2251 29.6459 27.2978C29.6459 26.3704 28.8941 25.6186 27.9667 25.6186C27.0394 25.6186 26.2876 26.3704 26.2876 27.2978C26.2876 28.2251 27.0394 28.9769 27.9667 28.9769Z" fill="#0A2540"/>
<path d="M48.6633 57.6551L48.378 56.3116C48.3531 56.1943 48.3896 56.0724 48.475 55.9882L49.402 55.0731C49.4824 54.9936 49.5962 54.9577 49.7077 54.9765L51.129 55.2167C51.4832 55.2795 51.8342 55.1734 52.0668 54.9061L53.0001 53.8261C53.0753 53.739 53.1885 53.6943 53.303 53.7063L54.5988 53.8425C54.7129 53.8545 54.8139 53.9213 54.8696 54.0216L55.5523 55.2517C55.6391 55.4068 55.7643 55.5345 55.9129 55.6245C56.0606 55.7136 56.2315 55.7657 56.4103 55.7718L57.8381 55.817C57.9523 55.8206 58.0577 55.8794 58.1206 55.9748L58.8231 57.039C58.8884 57.138 58.8994 57.2633 58.8525 57.3722L58.2982 58.6575C58.2293 58.8188 58.2088 58.9908 58.2322 59.1577M48.6633 57.6551C48.6975 57.8287 48.6852 58.0095 48.6302 58.1757M48.6633 57.6551C48.6982 57.8285 48.6857 58.0089 48.6298 58.1774M48.6302 58.1757C48.5749 58.3399 48.4776 58.4901 48.3444 58.6061M48.6302 58.1757L48.6298 58.1774M48.3444 58.6061L47.2849 59.5298C47.196 59.6074 47.1519 59.7243 47.1674 59.8413L47.333 61.088C47.3485 61.2046 47.4212 61.3058 47.5268 61.3576L48.7843 61.9744C48.9437 62.0561 49.0762 62.1757 49.171 62.3187M48.3444 58.6061C48.4783 58.4913 48.5748 58.3414 48.6298 58.1774M49.171 62.3187C49.265 62.4621 49.3217 62.6291 49.3321 62.8047L49.411 64.1954C49.4176 64.3118 49.4815 64.4174 49.5815 64.4773L50.694 65.1432C50.7908 65.2012 50.9096 65.2092 51.0134 65.1646L52.3051 64.6103M49.171 62.3187L49.1695 62.3167C49.1632 62.3073 49.1566 62.2975 49.1501 62.2883M52.3051 64.6103C52.4688 64.5398 52.6459 64.5143 52.8184 64.5323M52.3051 64.6103C52.37 64.5819 52.437 64.5609 52.5051 64.547C52.6084 64.5258 52.7143 64.5211 52.8184 64.5323M52.8184 64.5323C52.9081 64.5419 52.9966 64.5632 53.0816 64.5958C53.1607 64.6261 53.2365 64.6662 53.307 64.7156M52.8184 64.5323C52.9917 64.5502 53.1607 64.612 53.307 64.7156M53.307 64.7156L54.5073 65.5384C54.6001 65.602 54.7178 65.6174 54.8238 65.5798L56.0459 65.1463C56.156 65.1073 56.2395 65.0161 56.2688 64.903L56.6088 63.5917C56.6543 63.421 56.7437 63.2681 56.8654 63.1463C56.9861 63.0257 57.139 62.9356 57.3109 62.888L58.683 62.5101C58.7952 62.4792 58.8848 62.3948 58.9225 62.2847L59.3309 61.0894C59.3685 60.9796 59.3494 60.8583 59.28 60.7653L58.4335 59.6306M58.4335 59.6306C58.3252 59.4888 58.2563 59.3258 58.2322 59.1577M58.4335 59.6306C58.3826 59.5643 58.3403 59.4933 58.3076 59.4192C58.2702 59.3351 58.245 59.2472 58.2322 59.1577M55.3118 59.8193C55.1975 60.9068 54.2034 61.6936 53.0916 61.5767C51.9798 61.4599 51.171 60.4836 51.2853 59.3961C51.3996 58.3086 52.3937 57.5218 53.5055 57.6386C54.6173 57.7555 55.4261 58.7318 55.3118 59.8193Z" stroke="#0A2540" stroke-width="2.01502"/>
</svg>
