<svg width="24" height="23" viewBox="0 0 24 23" fill="none" xmlns="http://www.w3.org/2000/svg">
<path fill-rule="evenodd" clip-rule="evenodd" d="M12.1199 0.000166327L12.255 0.00045246C12.8951 0.00262869 13.523 0.0136213 14.1517 0.145298L14.2811 0.171675C16.4009 0.615092 18.3282 1.57533 19.8912 3.08078L19.9788 3.16471C20.3945 3.56536 20.7774 3.9727 21.118 4.43899L21.2308 4.59028C21.4953 4.94917 21.7301 5.32218 21.9504 5.70958L21.9988 5.79346C22.9455 7.44733 23.3734 9.32107 23.3662 11.2136L23.3659 11.3488C23.3637 11.9888 23.3527 12.6168 23.221 13.2454L23.1947 13.3749C22.7512 15.4946 21.791 17.4219 20.2855 18.985L20.2016 19.0725C19.801 19.4882 19.3936 19.8711 18.9273 20.2117L18.776 20.3245C18.4172 20.5891 18.0447 20.8249 17.6568 21.0442L17.5629 21.0976C16.5492 21.6683 15.4464 22.0516 14.3078 22.2847L14.2123 22.3042C13.5693 22.4264 12.933 22.4615 12.2797 22.46C12.1509 22.4599 12.0221 22.4609 11.8933 22.462C11.3074 22.464 10.7424 22.4112 10.1647 22.3148L10.0137 22.2898C8.11805 21.9493 6.31952 21.0736 4.8633 19.8174L4.76437 19.7332C4.17268 19.2157 3.6175 18.6571 3.15458 18.0211L3.04197 17.87C2.77733 17.5111 2.54147 17.1385 2.32213 16.7505L2.26873 16.6566C1.69805 15.643 1.31473 14.5401 1.08167 13.4015L1.06211 13.3061C0.931811 12.6206 0.903765 11.9426 0.906416 11.2465L0.906702 11.1113C0.908879 10.4713 0.919871 9.84332 1.05155 9.21463L1.07793 9.0852C1.52134 6.96544 2.48158 5.03817 3.98703 3.4751L4.07096 3.38756C4.47161 2.97185 4.87895 2.58893 5.34524 2.24833L5.49653 2.13555C5.85535 1.87102 6.22788 1.63518 6.61582 1.41588L6.70972 1.36248C7.72335 0.791798 8.82618 0.408483 9.9648 0.175419L10.0602 0.155855C10.7458 0.0255609 11.4237 -0.00248453 12.1199 0.000166327ZM6.77573 5.73843C7.1878 5.72572 7.59982 5.71602 8.01204 5.71008C8.20349 5.70724 8.39481 5.70338 8.58619 5.69716C8.7711 5.69119 8.95588 5.68794 9.14088 5.68653C9.21124 5.68552 9.28158 5.68356 9.35188 5.68059C9.72639 5.66544 9.83933 5.66087 9.92839 5.70475C9.96684 5.7237 10.0008 5.75169 10.0495 5.79175C10.1632 5.92143 10.243 6.06511 10.317 6.22009C10.3613 6.30936 10.4167 6.38898 10.4746 6.46988L10.5296 6.55018L10.5841 6.62956L10.6444 6.71742L10.8234 6.97827L10.8772 7.05654L11.1756 7.49055L11.4251 7.85345L11.5254 7.99931L11.726 8.29104L11.7761 8.36401L11.8762 8.50952C11.961 8.63295 12.0459 8.75634 12.131 8.87963C12.3298 9.168 12.5265 9.45748 12.7197 9.74968C13.0029 9.46944 13.2639 9.1729 13.5141 8.86296C13.6153 8.74034 13.722 8.62329 13.8291 8.50586L13.8411 8.4926C13.9253 8.3979 14.0053 8.30074 14.0849 8.20216C14.2256 8.02812 14.3742 7.86326 14.5257 7.69861C14.6423 7.56884 14.7513 7.43371 14.8608 7.29803L14.8633 7.29492C14.9645 7.17233 15.0712 7.05532 15.1782 6.93791L15.1782 6.93788L15.1904 6.92457C15.2746 6.82987 15.3545 6.7327 15.4341 6.63412C15.5746 6.46022 15.7226 6.29533 15.8755 6.13229C15.9259 6.079 15.9475 6.05615 15.965 6.03047C15.9781 6.01119 15.9888 5.99032 16.0076 5.95378C16.06 5.86491 16.1036 5.80368 16.1839 5.73843C16.3478 5.70247 16.5049 5.7108 16.6717 5.72019L16.8057 5.72418C16.9146 5.72761 17.0233 5.7324 17.1321 5.73843C17.086 5.83744 17.0371 5.91713 16.965 5.99896L16.9083 6.06378L16.8472 6.13271L16.7178 6.28029L16.6509 6.35628C16.5487 6.47272 16.4472 6.58988 16.3458 6.70705L16.2864 6.77553C16.0811 7.01246 15.8772 7.25057 15.6734 7.48879C15.4295 7.77393 15.1849 8.05841 14.9389 8.34181C14.7511 8.5583 14.5646 8.77584 14.3783 8.9936L14.1039 9.31382L14.0511 9.37543L13.7708 9.70267C13.5796 9.92602 13.3882 10.1491 13.1937 10.3696C13.2561 10.5057 13.3383 10.6278 13.4217 10.7515L13.4217 10.7515L13.4285 10.7616L13.4771 10.8342C13.6434 11.0816 13.8124 11.3271 13.9817 11.5724C14.0586 11.6838 14.1353 11.7954 14.212 11.907L14.2124 11.9077L14.233 11.9376L14.3336 12.0839L14.3838 12.1569L14.5313 12.3714C14.7321 12.6632 14.9323 12.9553 15.1322 13.2477C15.308 13.5048 15.4844 13.7614 15.6609 14.018L15.9104 14.3809L16.0107 14.5267L16.6124 15.4019L16.6626 15.4749L16.7624 15.6201C16.8485 15.7454 16.9347 15.8706 17.0212 15.9956L17.0752 16.0737L17.1761 16.2195C17.2573 16.3372 17.3358 16.4559 17.4113 16.5773L17.46 16.6556L17.4967 16.7147C17.0859 16.7291 16.6752 16.7401 16.2642 16.7468C16.0733 16.75 15.8826 16.7544 15.6918 16.7614C15.5073 16.7682 15.323 16.7719 15.1385 16.7735C15.0684 16.7746 14.9983 16.7769 14.9283 16.7802C14.5685 16.7968 14.4515 16.8022 14.3583 16.7577C14.3134 16.7363 14.2741 16.7032 14.2157 16.6543C14.0838 16.5065 13.9845 16.3429 13.8909 16.169C13.8358 16.0686 13.7709 15.9762 13.7044 15.8831L13.5789 15.6982L13.4395 15.4931L13.3705 15.3915C13.2663 15.2383 13.1617 15.0853 13.057 14.9324L12.9982 14.8465C12.8248 14.5932 12.6509 14.3402 12.4769 14.0874L12.1776 13.6521C12.0919 13.5273 12.006 13.4026 11.9201 13.2779L11.8149 13.1251L11.764 13.0513C11.6561 12.8945 11.5504 12.7364 11.4478 12.5759L11.4478 12.5759C11.4294 12.5473 11.4198 12.5321 11.4067 12.5209C11.3922 12.5084 11.3735 12.5008 11.334 12.4846L11.3079 12.546C11.2504 12.6496 11.179 12.7255 11.0981 12.8114L11.0947 12.8151C10.9681 12.9512 10.8468 13.0897 10.73 13.2345C10.6248 13.3649 10.517 13.4912 10.4041 13.6151C10.2905 13.7397 10.1819 13.8669 10.0759 13.998C9.9442 14.1608 9.80654 14.3163 9.66551 14.471C9.58135 14.5657 9.50136 14.6629 9.42179 14.7615C9.28104 14.9355 9.13245 15.1004 8.98092 15.265C8.86439 15.3948 8.75532 15.5299 8.64581 15.6656L8.64333 15.6687C8.54116 15.7925 8.43341 15.9106 8.32527 16.0291L8.31698 16.0382C8.20142 16.1683 8.09273 16.3036 7.98423 16.4396L7.90617 16.5323L7.83452 16.6346C7.67909 16.747 7.51822 16.7389 7.33799 16.7298C7.31131 16.7284 7.2842 16.7271 7.25662 16.7261L7.12735 16.7236C7.02225 16.7214 6.91725 16.7184 6.81219 16.7147C6.8712 16.5904 6.93901 16.5033 7.03327 16.4024C7.15243 16.2726 7.26673 16.1407 7.37742 16.0036C7.50911 15.8408 7.64678 15.6852 7.7878 15.5305C7.87196 15.4358 7.95196 15.3387 8.03152 15.2401C8.17227 15.0661 8.32086 14.9012 8.47239 14.7365C8.58891 14.6068 8.69797 14.4716 8.80747 14.336L8.80999 14.3329C8.9112 14.2102 9.01791 14.0932 9.12498 13.9757L9.13704 13.9625C9.2212 13.8678 9.3012 13.7706 9.38076 13.672C9.52151 13.498 9.6701 13.3331 9.82163 13.1685C9.93815 13.0387 10.0472 12.9036 10.1567 12.7679L10.1567 12.7679L10.1592 12.7648C10.2384 12.6689 10.3203 12.5765 10.4041 12.4846C10.4589 12.4239 10.5136 12.3632 10.5682 12.3023L10.6631 12.1967L10.7551 12.0903L10.8397 11.9939L10.8397 11.9939C10.8738 11.9479 10.8901 11.926 10.8963 11.9016C10.9019 11.8793 10.8992 11.8549 10.8941 11.8083C10.8561 11.7089 10.8114 11.641 10.746 11.557C10.5913 11.3516 10.4459 11.1408 10.3015 10.928L10.1578 10.7165L10.0874 10.6128C9.99589 10.4783 9.9038 10.3441 9.81152 10.2101L9.76295 10.1395L9.66754 10.0009C9.41822 9.63892 9.16953 9.27649 8.92141 8.91365C8.74561 8.65662 8.56926 8.39996 8.39273 8.14342L8.1432 7.78052L8.04292 7.63465L7.79221 7.26998L7.69201 7.12429C7.60785 7.00193 7.5238 6.87949 7.43995 6.75691L7.33867 6.60905L7.28913 6.53667C7.20545 6.41489 7.12075 6.29402 7.03412 6.17431L6.98264 6.1031C6.95024 6.05848 6.9177 6.01398 6.88497 5.9696C6.81051 5.86715 6.7868 5.83454 6.77925 5.79854C6.77573 5.78172 6.77573 5.76417 6.77573 5.73843ZM8.65726 6.44403C8.45533 6.44928 8.2538 6.45718 8.05209 6.46807C8.07088 6.50563 8.07998 6.52385 8.09026 6.54138C8.09994 6.55789 8.11066 6.57378 8.13146 6.60466L8.18585 6.68202L8.24732 6.76963L8.38349 6.96335L8.45479 7.06491C8.56721 7.22491 8.67946 7.38504 8.79157 7.54526L8.91805 7.72598L8.98198 7.81731L9.23724 8.18197L9.36487 8.3643L9.68277 8.81836C9.90505 9.13555 10.1271 9.45292 10.3482 9.77093C10.598 10.1303 10.8484 10.4894 11.0996 10.8478L11.4159 11.2996L11.5437 11.4822L11.6075 11.5733L12.3733 12.6673L12.5009 12.8496L12.8188 13.3037C13.0399 13.6191 13.2607 13.9346 13.4806 14.2508L13.5539 14.3561C13.6786 14.5353 13.8033 14.7146 13.9275 14.8941L14.0053 15.0065L14.1579 15.2267L14.2945 15.4243C14.3418 15.4892 14.3881 15.5548 14.4336 15.621C14.5003 15.746 14.5672 15.86 14.6526 15.9731C14.7143 16.0214 14.7561 16.0541 14.803 16.0751C14.901 16.119 15.0217 16.1123 15.3942 16.0916C15.4609 16.0878 15.5276 16.0848 15.5944 16.0826C15.7912 16.0774 15.9875 16.0695 16.184 16.0586C16.184 16.0225 16.184 16.0043 16.1793 15.9874C16.1745 15.9701 16.1648 15.9542 16.1452 15.922L16.0903 15.8447L16.0285 15.7571C15.9824 15.6925 15.9365 15.6279 15.8907 15.5631L15.8188 15.4613C15.7069 15.3036 15.5955 15.1455 15.4846 14.987L15.4228 14.8985C15.2633 14.6707 15.1042 14.4427 14.9454 14.2144C14.6956 13.855 14.4452 13.496 14.194 13.1375L13.8777 12.6858L13.7499 12.5032L13.6861 12.412L13.4308 12.0474L13.3032 11.865L12.9853 11.411C12.763 11.0938 12.541 10.7764 12.3199 10.4584C12.07 10.099 11.8197 9.73998 11.5685 9.3815L11.2522 8.92979L10.8703 8.38429L10.7451 8.20569L10.6822 8.11587C10.5707 7.95672 10.4592 7.79749 10.3485 7.63777L10.2721 7.52743L10.1193 7.30679L9.98066 7.10622C9.93248 7.04004 9.88526 6.97315 9.83893 6.90566C9.77273 6.78038 9.70643 6.66649 9.62098 6.55332C9.55944 6.50574 9.51757 6.47336 9.47062 6.45233C9.37066 6.40755 9.24766 6.41421 8.86278 6.43506C8.79431 6.43886 8.7258 6.44184 8.65726 6.44403Z" fill="#5F7394"/>
</svg>
