<svg width="23" height="23" viewBox="0 0 23 23" fill="none" xmlns="http://www.w3.org/2000/svg">
<path fill-rule="evenodd" clip-rule="evenodd" d="M11.215 22.43C17.4089 22.43 22.43 17.4089 22.43 11.215C22.43 5.02113 17.4089 0 11.215 0C5.02113 0 0 5.02113 0 11.215C0 17.4089 5.02113 22.43 11.215 22.43ZM10.2775 8.58375L13.2775 10.5837C13.3461 10.6294 13.4023 10.6913 13.4412 10.7639C13.4801 10.8365 13.5005 10.9176 13.5005 11C13.5005 11.0824 13.4801 11.1635 13.4412 11.2361C13.4023 11.3087 13.3461 11.3706 13.2775 11.4163L10.2775 13.4163C10.2022 13.4665 10.1146 13.4954 10.0242 13.4997C9.93376 13.5041 9.84383 13.4839 9.76401 13.4411C9.68418 13.3984 9.61746 13.3348 9.57097 13.2571C9.52447 13.1794 9.49994 13.0905 9.5 13V9C9.49994 8.90946 9.52447 8.8206 9.57097 8.74291C9.61746 8.66521 9.68418 8.60161 9.76401 8.55887C9.84383 8.51614 9.93376 8.49588 10.0242 8.50026C10.1146 8.50464 10.2022 8.5335 10.2775 8.58375ZM10.5 9.9375V12.0656L12.0988 11L10.5 9.9375ZM17.3164 6.72327C17.4739 6.90149 17.5867 7.11459 17.6456 7.345C17.8075 7.96875 18 9.10875 18 11C18 12.8912 17.8075 14.03 17.6456 14.655C17.5868 14.8855 17.474 15.0988 17.3166 15.2771C17.1591 15.4554 16.9615 15.5937 16.74 15.6806C14.6894 16.4725 11.475 16.5 11.0413 16.5H10.9587C10.525 16.5 7.3125 16.4725 5.26 15.6806C5.03853 15.5937 4.8409 15.4554 4.68344 15.2771C4.52597 15.0988 4.41318 14.8855 4.35437 14.655C4.1925 14.0312 4 12.8912 4 11C4 9.10875 4.1925 7.96875 4.35437 7.345C4.41327 7.11459 4.5261 6.90149 4.68356 6.72327C4.84102 6.54505 5.0386 6.40683 5.26 6.32C7.38567 5.499 10.759 5.49993 10.995 5.5L11 5.5L11.005 5.5C11.241 5.49993 14.6143 5.499 16.74 6.32C16.9614 6.40683 17.159 6.54505 17.3164 6.72327ZM16.5697 14.6149C16.6215 14.5553 16.6585 14.4842 16.6775 14.4075V14.4044C16.825 13.8369 17 12.7856 17 11C17 9.21437 16.825 8.16313 16.6763 7.59312C16.6572 7.51644 16.6203 7.44537 16.5684 7.38573C16.5166 7.32608 16.4514 7.27957 16.3781 7.25C14.4178 6.49489 11.0911 6.49987 11.0046 6.5L11.0031 6.5H10.9862C10.7244 6.5 7.52812 6.51312 5.62063 7.25C5.54707 7.27981 5.48166 7.32671 5.42982 7.38681C5.37798 7.44691 5.34119 7.51849 5.3225 7.59562C5.175 8.16313 5 9.21437 5 11C5 12.7856 5.175 13.8369 5.32687 14.4075C5.34592 14.4842 5.38287 14.5553 5.43469 14.6149C5.48651 14.6745 5.55173 14.7211 5.625 14.7506C7.58724 15.5065 10.9082 15.5008 10.9984 15.5006L11 15.5006H11.0044L11.0061 15.5006C11.098 15.5008 14.4192 15.5074 16.3794 14.7506C16.4526 14.7211 16.5179 14.6745 16.5697 14.6149Z" fill="#5F7394"/>
</svg>
